/* XPM */
static char * enemy_l_attack_xpm[] = {
"64 64 24 1",
" 	c #7B9200",
".	c #8CB229",
"+	c #CEFB42",
"@	c #BDBA00",
"#	c #000000",
"$	c #A0C956",
"%	c #4A8822",
"&	c #0A3807",
"*	c #303848",
"=	c #768298",
"-	c #1A1E24",
";	c #714D91",
">	c #F8DC70",
",	c #7A5F2C",
"'	c #F2F2F2",
")	c #2B1E38",
"!	c #BCBCBC",
"~	c #C99E1D",
"{	c #B5B5C4",
"]	c #4D3463",
"^	c #474648",
"/	c #E67597",
"(	c #6C6C7B",
"_	c #FFFFFF",
"              ....  ..++      ..              ....  ..++      ..",
"              ....  ..++      ..              ....  ..++      ..",
"  ..    ....@@..    ++@@..  ..    ..    ....@@..    ++@@..  ..  ",
"  ..    ....@@..    ++@@..  ..    ..    ....@@..    ++@@..  ..  ",
"    ....  ..@@    ..@@      ..      ....  ..@@    ..@@      ..  ",
"    ....  ..@@    ..@@      ..      ....  ..@@    ..@@      ..  ",
"      ..  ..@@  ..++..  ..            ..  ..@@  ..++..  ..      ",
"      ..  ..@@  ..++..  ..            ..  ..@@  ..++..  ..      ",
"..    ..    @@@@++++    @@..    ..    ..    @@@@++++    @@..    ",
"..    ..    @@@@++++    @@..    ..    ..    @@@@++++    @@..    ",
"++..          @@@@  ..  @@..  ..++..         #@@@@  ..  @@..  ..",
"++..          @@@@  ..  @@..  .##+..        #$#@@@  ..  @@..  ..",
"@@++..  ..    @@..  ..  ....  #$#@++..  .. #$$#@..  ..  ....  ..",
"@@++..  ..    @@..  ..  ....  #$#@++..  .. #$$%#..  ..  ....  ..",
"..@@@@  ++++  ....  ..  ..   #$%#.@@@@  ++#$&&$#..  ..  ..    ..",
"..@@@@  ++++  ....  ..  ..   #$&#.@@@@  ++#$&&$#..  ..  ..    ..",
"  ....  ..++          ..     #$&# ....  .#$$$$$#      ..    $ ..",
"  ....  ..++          ..     #$&##....  .#$&$$%#      ..     $..",
"          @@@@      ....     #$&##  #####&$$$%&#    ....     $$ ",
"          @@@@      ....     #$&####****#%$&&%#     ....      $$",
"    ..    ....  ........@@@@ #$%##***==*&$$&&%# ........@@@@  $$",
"    ..    ....  ........@@@@ #%$#-*--==*%$$$%%# ........@@@@   $",
"    ..++++..    ........@@@@  #$#*=-----$$$&%&# ........@@@@  .$",
"    ..++++..    ........@@@@  #%%-**---%$&$%%&# ........@@@@  ..",
"  ..  ..@@@@..  ....          #$%------$&$%%$$%#....          ..",
"  ..  ..@@@@..  ....         #%$%---%$$$$$$$$$$#....          ..",
"  ....  ..@@..        ..  .. #%$$%-$$$$$%&&#&&$#      ..  ..  ..",
"  ....  ..@@..        ..  ..  #$$%%$$$###;>,#&%#      ..  ..  ..",
"    ..    ..@@        ..       #$%$$$#'');>,#%#       ..        ",
"    ..    ..@@  ########     ####%$%#''!;>~>##        ..        ",
"    ..      .. #{''''$$%#####*=*#]'^/'{;;>###.        ..    ....",
"    ..      .. #''{{''$$$$;$&%*=*#!'''{;>{# ..        ..    ....",
"              .#'(({''$&$%;%$$***{#!'';>((##  ....  ..++      ..",
"              ..##'''#######$$**-;{#>>>{((-*##....  ..++      ..",
"  ..    ....@@..  #####***--####;-{{{(({{**-**#.    ++@@..  ..  ",
"  ..    ....@@..   ##***-------#*******-*=*#**#.    ++@@..  ..  ",
"    ....  ..###  ##***---------#--==***-***#**#   ..@@      ..  ",
"    .... ####*-#####----------###*-***---*-#]#    ..@@      ..  ",
"      .##,~>>*-****-#####--###__#**---*=*-#%#@  .##+..  ..      ",
"      #~>>>~*-***==***-]%####__#;$$$$%**$#%%##  #{##..  ..      ",
"..   #>>>>>>*-**=*****;;$$$$%##]$;;%$$%$;#%]%&##({({#   @@..    ",
"..   #########--*****-$$;$$&$$$%]$]];;;;]#]%%%&%(({{#   @@..    ",
"++..          ########%$;$$$$&$$]%$$]]]]$###&%%%{(({#.  @@..  ..",
"++..          @@@@  ..##%$&$$&&$%]%%$$$$%##-####{({#..  @@..  ..",
"@@++..  ..    @@..  ..  #####%$$%]%**%%%]%#-*#@@### ..  ....  ..",
"@@++..  ..    @@..  ..  .... ####]%*=-%]%%%#*#@@..  ..  ....  ..",
"..@@@@  ++++  ....  ..  ..    ...###--]%&&%%##....  ..  ..    ..",
"..@@@@  ++++  ....  ..  ..    ...#####%%&&%%# ....  ..  ..    ..",
"@@@@..  ..++          ..      .. #~~-##%%%%;;#        ..      ..",
"@@@@..  ..++          ..      .. ~,--*-##%;%%#        ..      ..",
"..@@      @@@@      ....         ~~---**--]%%#      ....        ",
"..@@      @@@@      ....         ~~~####*--]]#      ....        ",
"  @@..    ....  ........@@@@      ~~#.--#####.  ........@@@@    ",
"  @@..    ....  ........@@@@      ~~#.---*#...  ........@@@@    ",
"@@  ..++++..    ........@@@@  ..  ##..--*#..    ........@@@@  ..",
"@@  ..++++..    ........@@@@  ..    ..-*#+..    ........@@@@  ..",
"@@    ..@@@@..  ....          ..  ..  ##@@@@..  ....          ..",
"@@    ..@@@@..  ....          ..  ..  ..@@@@..  ....          ..",
"..  ..  ..@@..        ..  ..  ..  ....  ..@@..        ..  ..  ..",
"..  ..  ..@@..        ..  ..  ..  ....  ..@@..        ..  ..  ..",
"    ..    ..@@        ..            ..    ..@@        ..        ",
"    ..    ..@@        ..            ..    ..@@        ..        ",
"    ..      ..        ..    ....    ..      ..        ..    ....",
"    ..      ..        ..    ....    ..      ..        ..    ...."};
