/* XPM */
static char * enemy_d_attack_xpm[] = {
"64 64 24 1",
" 	c #7B9200",
".	c #8CB229",
"+	c #CEFB42",
"@	c #BDBA00",
"#	c #000000",
"$	c #303848",
"%	c #1A1E24",
"&	c #B5B5C4",
"*	c #F8DC70",
"=	c #C99E1D",
"-	c #6C6880",
";	c #A0C956",
">	c #768298",
",	c #4A8822",
"'	c #0A3807",
")	c #4D3463",
"!	c #714D91",
"~	c #FFFFFF",
"{	c #7A5F2C",
"]	c #2B1E38",
"^	c #F2F2F2",
"/	c #BCBCBC",
"(	c #E67597",
"_	c #474648",
"              ....  ..++      ..              ....  ..++      ..",
"              ....  ..++      ..              ....  ..++      ..",
"  ..    ....@@..    ++@@..  ..    ..    ....@@..    ++@@..  ..  ",
"  ..    ....@@..    ++@@..  ..    ..    ....@@..    ++@@..  ..  ",
"    ....  ..@@    ..@@      ..      ....  ..@@    ..@@      ..  ",
"    ....  ..@@    ..@@      ..      ....  ..@@    ..@@      ..  ",
"      ..  ..@@  ..++..  ..            ..  ..@@  ..++..  ..      ",
"      ..  ..@@  ..++..  ..            ..  ..@@  ..++..  ..      ",
"..    ..    @@@@++++    @@..    ..    ..    @@@@++++    @@..    ",
"..    ..    @@@@++++    @@..    ..    ..    @@@@++++    @@..    ",
"++..          @@@@  ..  @@..  ..++..          @@@@  ..  @@..  ..",
"++..          @@@@  ..  @@..  ..##..          @@@@  ..  @@..  ..",
"@@++..  ..    @@..  ..  ....  ..$$#+..  ..    @@..  ..  ....  ..",
"@@++..  ..    @@..  ..  ....  ..%%$#..  ..    @@..  ..  ....  ..",
"..@@@@  ++++  ....  ..  ..    ..%%%$#@  ++++  ....  ..  ..    ..",
"..@@@@  ++++  ....  ..  ..    ....%%$#  ++++  ....  ..  ..    ..",
"  ....  ..++          ..      ..  %%$#  ..++          ..      ..",
"  ....  ..++          ..      ..  %%%$# ..++          ..      ..",
"          @@@@      ....           %%$#   &@@@      ....        ",
"          @@@@#**   ....  ###      %%%$#  @&@@      ....        ",
"    ..    ....#=***.....@#-&&#     %%%$#  ..&.  ........@@@@    ",
"    ..    .... #***=....#&--&&##   %%%$$# ..&.  ........@@@@    ",
"    ..++++..    #$$=*...#&--&&#;##  %%%$#+.. &  ........@@@@  ..",
"    ..++++..    #$$$*#..@#&&&&#;;;# %%%$#+.. &  ;.......@@@@  ..",
"  ..  ..@@@@..  .#>$$#    ##&#,;;;##%%%$$#@@..& .;..          ..",
"  ..  ..@@@@..  .#$>$#  #   ##;''';#%%%%$#@@..& .;..          ..",
"  ....  ..@@..    #>$#..#%.. #;''';##%%%$#@@.. & ;;   ..  ..  ..",
"  ....  ..@@..    #$>$#.#%.. #;;;;;;##%%$#@@.. &  ;   ..  ..  ..",
"    ..    ..@@    #$$$#.#%%  #,;;;';##%%$#..@@  & ;;  ..        ",
"    ..    ..@@    #)$$#.#%%  #',;;;;'#####..@@  &  ;  ..        ",
"    ..      ..   #,;),#.#%%%..#,''';,#$$$$##;.   ; ;; ..    ....",
"    ..      ..   #;,!;,###%%%.#,''';;'$>>$$$;.   ; ;; ..    ....",
"              ...##!;;,,##%%% #,,,;;;,$>>%%$% ...;  ;;++      ..",
"              ....#,;;;;##%%%%#',,';;;%%%%%>$;....; ;;++      ..",
"  ..    ....@@..   #;';;;##%###',,,;';,%%%$$%;..  ; ;;@@..  ..  ",
"  ..    ....@@..   #,;;;',##;#,;;;,,;';%%%%%%;..   ;~;@@..  ..  ",
"    ....  ..@@    ..#;;'',;;)#;;;;;;;;;;;,%%%;    .;~;      ..  ",
"    ....  ..@@    ..#,;;,;!),#;;,,'',,;;;;;%,;  ; .;~;      ..  ",
"      ..  ..@@  ..++.#;,;!,;)!#'##{*!###;;;,,;  ;;++;.  ..      ",
"      ..  ..@@#==.++..#;!,;)!;;###{*!]^^#;;;,;; ;;++;.  ..      ",
"..    ..    @@#{===+   #$,;)!;,$##*=*!/^^#,;,;;;;;++;   @@..    ",
"..    ..    @@@#{=={=  #$$,)!,$>####*!!&^(_^);;;;;;+#   @@..    ",
"++..          @@#%$={###$$;)!;$>$$%&-*!&^^^/#;;;,;;;#.  @@..  ..",
"++..          @@#%$%##,;!,;)!;;$$$%%-&*!^^/#~,;;,,;;#.  @@..  ..",
"@@++..  ..    @@#$##,;;;;!;,!,;;,,$$$&&***##~,,,,,;#..  ....  ..",
"@@++..  ..    @@##';;;;';,!;;!##;;;$>$$$%>>$#,;,,,# ..  ....  ..",
"..@@@@  ++++  .###;;'';;;;,!##..####$>$%$$$>#;;;;#  ..  ..    ..",
"..@@@@  ++++  .##);;'';;,,;;# ....@@###,,$$$,;;;,#  ..  ..    ..",
"@@@@..  ..++   ##;!;;;,#####  ..  .... #',;;;;;;#     ..      ..",
"@@@@..  ..++    #,!;,##.      ..  ....  ##;;;,;;#     ..      ..",
"..@@      @@@@   ####...                  ##;;,#    ....        ",
"..@@      @@@@      ....                  @@###     ....        ",
"  @@..    ....  ........@@@@        ..    ....  ........@@@@    ",
"  @@..    ....  ........@@@@        ..    ....  ........@@@@    ",
"@@  ..++++..    ........@@@@  ..    ..++++..    ........@@@@  ..",
"@@  ..++++..    ........@@@@  ..    ..++++..    ........@@@@  ..",
"@@    ..@@@@..  ....          ..  ..  ..@@@@..  ....          ..",
"@@    ..@@@@..  ....          ..  ..  ..@@@@..  ....          ..",
"..  ..  ..@@..        ..  ..  ..  ....  ..@@..        ..  ..  ..",
"..  ..  ..@@..        ..  ..  ..  ....  ..@@..        ..  ..  ..",
"    ..    ..@@        ..            ..    ..@@        ..        ",
"    ..    ..@@        ..            ..    ..@@        ..        ",
"    ..      ..        ..    ....    ..      ..        ..    ....",
"    ..      ..        ..    ....    ..      ..        ..    ...."};
