/* XPM */
static char * enemy_l_floor_xpm[] = {
"64 64 24 1",
" 	c #7B9200",
".	c #8CB229",
"+	c #CEFB42",
"@	c #BDBA00",
"#	c #000000",
"$	c #A0C956",
"%	c #4A8822",
"&	c #0A3807",
"*	c #303848",
"=	c #768298",
"-	c #1A1E24",
";	c #161A1F",
">	c #7A5F2C",
",	c #F8DC70",
"'	c #714D91",
")	c #2B1E38",
"!	c #F2F2F2",
"~	c #C99E1D",
"{	c #E67597",
"]	c #474648",
"^	c #B5B5C4",
"/	c #4D3463",
"(	c #6C6880",
"_	c #FFFFFF",
"              ....  ..++      ..              ....  ..++      ..",
"              ....  ..++      ..              ....  ..++      ..",
"  ..    ....@@..    ++@@..  ..    ..    ....@@..    ++@@..  ..  ",
"  ..    ....@@..    ++@@..  ..    ..    ....@@..    ++@@..  ..  ",
"    ....  ..@@    ..@@      ..      ....  ..@@    ..@@      ..  ",
"    ....  ..@@    ..@@      ..      ....  ..@@    ..@@      ..  ",
"      ..  ..@@  ..++..  ..            #.  ..@@  ..++..  ..      ",
"      ..  ..@@  ..++..  ##           #$#  ..@@  ..++..  ..      ",
"..    ..    @@@@++++   #$#..    ..  #$$#    @@@@++++    @@..    ",
"..    ..    @@@@++++   #$#..    ..  #$$%#   @@@@++++    @@..    ",
"++..          @@@@  ..#$%#..  ..++.#$&&$#     @@@@  ..  @@..  ..",
"++..          @@@@  ..#$&#..  ..++.#$&&$#     @@@@  ..  @@..  ..",
"@@++..  ..    @@..  ..#$&#..  ..@@#$$$$$#.    @@..  ..  ....  ..",
"@@++..  ..    @@..  ..#$&##.  ..@@#$&$$%#.    @@..  ..  ....  ..",
"..@@@@  ++++  ....  ..#$&##  #####%$$$$&#+++  ....  ..  ..    ..",
"..@@@@  ++++  ....  ..#$&####****#$$&&$#++++  ....  ..  ..    ..",
"  ....  ..++          #$%##***==*&$$&&%#..++          ..      ..",
"  ....  ..++          #%$#;*--==*%$%&&%#..++          ..      ..",
"          @@@@      ...#$#*=-----$$%%%%#  @@@@      ....        ",
"          @@@@      ...#$%-**---%$%%%&&#  @@@@      ....        ",
"    ..    ....  .......#%%------$$%%%&&#  ....  ........@@@@    ",
"    ..    ....  ......#$%%---%$$$$&$$%&#  ....  ........@@@@    ",
"    ..++++..    ......#%$%%-%$$$$$$$$$$#++..    ........@@@@  ..",
"    ..++++..    .......#$$%%$$$%##',>#&$#+..    ........@@@@  ..",
"  ..  ..@@@@..  ....    #$%$$%##!)',>#&%#@@@..  ....          ..",
"  ..  ..@@@@..  ....     #%$%]{!!',~,#%#@@@@..  ....          ..",
"  ....  ..@@..        .. #/!!!!^'',#### ..@@..        ..  ..  ..",
"  ....  ..@@..        ..  #^!!!^',(#..  ..@@..        ..  ..  ..",
"    ..    ..@@        ..   #^!!',((##.    ..@@        ..        ",
"    ..    ..@@        ..#####,,,^^(**#### ..@@        ..        ",
"    ..      ..        .#-*--^(^^^^**'*=**#  ..        ..    ....",
"    ..      ..        .#**-###**###*'**=*#  ..        ..    ....",
"              ....  ..#%**#!!^###^!#'***-#    ....  ..++      ..",
"              ....  ..#%&&###!!!$###''--#     ....  ..++      ..",
"  ..    ....@@..    +#&&%$$$%#^$%%$$$%'#*#..@@..    ++@@..  ..  ",
"  ..    ....@@..    +#%%%%$$$%#$%%$$$%$#-*#.@@..    ++@@..  ..  ",
"    ....  ..@@    ..@#%%%&#########$$%#---*#@@    ..@@      ..  ",
"    ....  ..@@    ..@@#####'''''$$$###----*#@@    ..@@      ..  ",
"      ..  ..@@  ..++..#*-##/////''#--------*#@  ..++..  ..      ",
"      ..  ..@@  ..++..#*-#%$$%$$$$#--------*#@  ..++..  ..      ",
"..    ..    @@@@++++ #*-#$/$***$$%'##-------*#@@++++    @@..    ",
"..    ..    @@@@++++ #*-#$%/--=*''$$$#------*#@@++++    @@..    ",
"++..          @@@@  .#*-#%$$---*$$%%##------**#@@@  ..  @@..  ..",
"++..          @@@@  #*---#%&&###&$$%#--------*#@@@  ..  @@..  ..",
"@@++..  ..    @@..  #*---#%&%%##$$$$$#-------*#@..  ..  ....  ..",
"@@++..  ..    @@..  #*--##%%%%##%$&&$#_------**#..  ..  ....  ..",
"..@@@@  ++++  ....  #*--#//%%&#.#$&&%## ------*#..  ..  ..    ..",
"..@@@@  ++++  ....  #*--#%%/%#...#$$'/# +-----*#..  ..  ..    ..",
"@@@@..  ..++        #*-.#&%)-#.. #/'$%# ..----*#      ..      ..",
"@@@@..  ..++        #*-. #)--#..  #'%$# ..+---*#      ..      ..",
"..@@      @@@@      .#*. #*--#     #**-#  @@--*#    ....        ",
"..@@      @@@@      .#*. #*--#     #*=*#  @@@-*#    ....        ",
"  @@..    ....  ......#.@@#*-#     #-=*#  ....*#........@@@@    ",
"  @@..    ....  ........@@#*-#      #*=-# ....  ........@@@@    ",
"@@  ..++++..    ........@##*~#..    #-=*#+..    ........@@@@  ..",
"@@  ..++++..    .......##~~>~#..    .#,*#+..    ........@@@@  ..",
"@@    ..@@@@..  ....  #~~~~~>#..  .. #,~,#@@..  ....          ..",
"@@    ..@@@@..  ....          ..  .. #~,,,#@..  ....          ..",
"..  ..  ..@@..        ..  ..  ..  ....  ..@@..        ..  ..  ..",
"..  ..  ..@@..        ..  ..  ..  ....  ..@@..        ..  ..  ..",
"    ..    ..@@        ..            ..    ..@@        ..        ",
"    ..    ..@@        ..            ..    ..@@        ..        ",
"    ..      ..        ..    ....    ..      ..        ..    ....",
"    ..      ..        ..    ....    ..      ..        ..    ...."};
