/* XPM */
static char * enemy_dead_xpm[] = {
"64 64 19 1",
" 	c #7B9200",
".	c #8CB229",
"+	c #CEFB42",
"@	c #BDBA00",
"#	c #000000",
"$	c #4A8822",
"%	c #A0C956",
"&	c #0A3807",
"*	c #B5B5C4",
"=	c #F2F2F2",
"-	c #1A1E24",
";	c #303848",
">	c #4D3463",
",	c #6C6880",
"'	c #714D91",
")	c #C99E1D",
"!	c #F8DC70",
"~	c #7A5F2C",
"{	c #768298",
"              ....  ..++      ..              ....  ..++      ..",
"              ....  ..++      ..              ....  ..++      ..",
"  ..    ....@@..    ++@@..  ..    ..    ....@@..    ++@@..  ..  ",
"  ..    ....@@..    ++@@..  ..    ..    ....@@..    ++@@..  ..  ",
"    ....  ..@@    ..@@      ..      ....  ..@@    ..@@      ..  ",
"    ....  ..@@    ..@@      ..      ....  ..@@    ..@@      ..  ",
"      ..  ..@@  ..++..  ..            ..  ..@@  ..++..  ..      ",
"      ..  ..@@  ..++..  ..            ..  ..@@  ..++..  ..      ",
"..    ..    @@@@++++    @@..    ..    ..    @@@@++++    @@..    ",
"..    ..    @@@@++++    @@..    ..    ..    @@@@++++    @@..    ",
"++..          @@@@  ..  @@..  ..++..          @@@@  ..  @@..  ..",
"++..          @@@@  ..  @@..  ..++..          @@@@  ..  @@..  ..",
"@@++..  ..    @@..  ..  ....  ..@@++..  ..    @@..  ..  ....  ..",
"@@++..  ..    @@..  ..  ....  ..@@++..  ..    @@..  ..  ....  ..",
"..@@@@  ++++  ....  ..  ..    ....@@@@  ++++  ....  ..  ..    ..",
"..@@@@  ++++  ....  ..  ..    ....@@@@  ++++  ....  ..  ..    ..",
"  ....  ..++          ..      ..  ....  ..++          ..      ..",
"  ....  ..++          ..      ..  ....  ..++          ..      ..",
"          @@@@      ....                  @@@@      ....        ",
"          @@@@      ....                  @@@@      ....        ",
"    ..    ....  ........@@@@        ..    ....  ........@@@@    ",
"    ..    ....  ..###...@@@@        ..    ....  ........@@@@    ",
"    ..++++..   ###$%%##.@@@@  ..    ..++++..    ........@@@@  ..",
"    ..++++..###&$%%$$%$##@@@  ..    ..++++..    ........@@@@  ..",
"  ..  ..@@##$%%%%%$##*==*#    ..  ..  ..@@@@..  ....          ..",
"  ..  ..##$$-;;-$##*=====*#   ..  ..  ..@@@@..  ....          ..",
"  ....##$$;;---$#>*==,,**=#.  ..  ....  ..@@..        ..  ..  ..",
"  ...#$$;##$%%%%$>'=,=====#####.  ....  ..@@..        ..  ..  ..",
"    ..###&%%%&%%))'*=====##;;-###   ..    ..@@        ..        ",
"    ..##$%%%%$%$!)>'====#;;-;;-#### ..   #####        ..        ",
"    .#%%%%&&$$%~!)!>'*##;;;---;$%%###.#####>$$##      ..    ....",
"    #%%&%%&&$$%~!)!###;{{;-;;{;%%'>####%'%%##$>-#     ..    ....",
"     ###$%%$$$%!!)#{;;';;-$%;;$$'>$##%%%'%$>-#---## ..++      ..",
"        ####$%%))#;;{;';-;;%%%%'>%%>%%&%%'>;;;#--;-##.++      ..",
"  ..    ....####$#$;;;##-;;$$%%>$%>$%%%%%$>;;{;#--;;-#@@..  ..  ",
"  ..    ....@@..#%%$#######%%$'>%%'%%&&%%##;;;{;###-;-#@..  ..  ",
"    ....  ..@@  #%%''###*==#%%>$%%'%%&&$# .#-;;{;-##########..  ",
"    ....  ..@@  ##'%&%%===*=##>$%%>$%%##  ..##;;;!!!!!#~~))#..  ",
"      ..  ..@@  .#$%%%$====##-########..  ..@@#;)!!!!#)))))     ",
"      ..  ..@@  ..#####==**#-----------.  ..@@ #!!!!##~)))      ",
"..    ..    @@@@++++   ##=##;;;----------   @@@#!!++ ###@@..    ",
"..    ..    @@@@++++    ##..###;;;;-------- @@@@++++    @@..    ",
"++..          @@@@  ..  @@..  .####;;;;------ @@@@  ..  @@..  ..",
"++..          @@@@  ..  @@..  ..++.####;;;;;;;;@@@  ..  @@..  ..",
"@@++..  ..    @@..  ..  ....  ..@@++.. #########..  ..  ....  ..",
"@@++..  ..    @@..  ..  ....  ..@@++..  ..    @@..  ..  ....  ..",
"..@@@@  ++++  ....  ..  ..    ....@@@@  ++++  ....  ..  ..    ..",
"..@@@@  ++++  ....  ..  ..    ....@@@@  ++++  ....  ..  ..    ..",
"@@@@..  ..++          ..      ..  ....  ..++          ..      ..",
"@@@@..  ..++          ..      ..  ....  ..++          ..      ..",
"..@@      @@@@      ....                  @@@@      ....        ",
"..@@      @@@@      ....                  @@@@      ....        ",
"  @@..    ....  ........@@@@        ..    ....  ........@@@@    ",
"  @@..    ....  ........@@@@        ..    ....  ........@@@@    ",
"@@  ..++++..    ........@@@@  ..    ..++++..    ........@@@@  ..",
"@@  ..++++..    ........@@@@  ..    ..++++..    ........@@@@  ..",
"@@    ..@@@@..  ....          ..  ..  ..@@@@..  ....          ..",
"@@    ..@@@@..  ....          ..  ..  ..@@@@..  ....          ..",
"..  ..  ..@@..        ..  ..  ..  ....  ..@@..        ..  ..  ..",
"..  ..  ..@@..        ..  ..  ..  ....  ..@@..        ..  ..  ..",
"    ..    ..@@        ..            ..    ..@@        ..        ",
"    ..    ..@@        ..            ..    ..@@        ..        ",
"    ..      ..        ..    ....    ..      ..        ..    ....",
"    ..      ..        ..    ....    ..      ..        ..    ...."};
