/* XPM */
static char * exit_fire_xpm[] = {
"64 64 420 2",
"  	c #7B9200",
". 	c #8CB229",
"+ 	c #CEFB42",
"@ 	c #F9921B",
"# 	c #F89520",
"$ 	c #F6961E",
"% 	c #F7941C",
"& 	c #F7941D",
"* 	c #F8951E",
"= 	c #798A02",
"- 	c #F2980E",
"; 	c #F7971C",
"> 	c #FD951C",
", 	c #FA931D",
"' 	c #BDBA00",
") 	c #F89A28",
"! 	c #F7921E",
"~ 	c #F8982A",
"{ 	c #F5911F",
"] 	c #F48F1B",
"^ 	c #F49322",
"/ 	c #FA9A2C",
"( 	c #F5921D",
"_ 	c #F35927",
": 	c #F25A29",
"< 	c #F45825",
"[ 	c #F8931D",
"} 	c #F6931B",
"| 	c #F79518",
"1 	c #F99A2E",
"2 	c #F6931C",
"3 	c #F3921D",
"4 	c #EF911F",
"5 	c #F79928",
"6 	c #EE8F1B",
"7 	c #EF5926",
"8 	c #F15B29",
"9 	c #F55928",
"0 	c #F7931B",
"a 	c #F99B2A",
"b 	c #F2931F",
"c 	c #F36130",
"d 	c #EC5828",
"e 	c #F8931F",
"f 	c #F99D2E",
"g 	c #F9961E",
"h 	c #F9951D",
"i 	c #F49320",
"j 	c #F0901F",
"k 	c #F56332",
"l 	c #EC582A",
"m 	c #EE5A2A",
"n 	c #F05A28",
"o 	c #F55926",
"p 	c #FA961E",
"q 	c #F8951D",
"r 	c #F6921A",
"s 	c #F39221",
"t 	c #F15B26",
"u 	c #EF5C26",
"v 	c #EC5B26",
"w 	c #F26633",
"x 	c #EA592A",
"y 	c #F36235",
"z 	c #F26134",
"A 	c #F4592D",
"B 	c #F2572B",
"C 	c #F6961D",
"D 	c #F9941E",
"E 	c #F55A2A",
"F 	c #F0592A",
"G 	c #EB5928",
"H 	c #F16033",
"I 	c #F36537",
"J 	c #F1592A",
"K 	c #F3572E",
"L 	c #F59421",
"M 	c #EE5728",
"N 	c #EB592A",
"O 	c #F79319",
"P 	c #F6931E",
"Q 	c #F15B28",
"R 	c #F46337",
"S 	c #EE592E",
"T 	c #F16236",
"U 	c #EB5A25",
"V 	c #F5951D",
"W 	c #F3961F",
"X 	c #F5961E",
"Y 	c #F25C27",
"Z 	c #F25A2B",
"` 	c #F45929",
" .	c #F11B25",
"..	c #E91A20",
"+.	c #EB1A20",
"@.	c #E81B22",
"#.	c #EB242B",
"$.	c #E92026",
"%.	c #EE252B",
"&.	c #EA1B21",
"*.	c #ED1A21",
"=.	c #EF1B27",
"-.	c #EF6028",
";.	c #F7941F",
">.	c #CD7E1F",
",.	c #F4951F",
"'.	c #F26027",
").	c #ED1925",
"!.	c #ED1B24",
"~.	c #EA1B23",
"{.	c #EF282F",
"].	c #E81F29",
"^.	c #EA1B25",
"/.	c #ED1B26",
"(.	c #F79621",
"_.	c #A4575C",
":.	c #A3575B",
"<.	c #A66F5D",
"[.	c #A66E5D",
"}.	c #FB9624",
"|.	c #FC9021",
"1.	c #F15C24",
"2.	c #F4592B",
"3.	c #A56D5D",
"4.	c #A4555C",
"5.	c #7B797B",
"6.	c #9C9A9C",
"7.	c #A66C5D",
"8.	c #A88258",
"9.	c #F5951A",
"0.	c #F79822",
"a.	c #F49624",
"b.	c #F69B29",
"c.	c #FA9C2A",
"d.	c #F2941A",
"e.	c #F25B26",
"f.	c #EE5B27",
"g.	c #F69520",
"h.	c #F68D17",
"i.	c #FA9A2A",
"j.	c #EE8E1D",
"k.	c #A88359",
"l.	c #F58E17",
"m.	c #F89A29",
"n.	c #F79927",
"o.	c #F99011",
"p.	c #F1901B",
"q.	c #F59829",
"r.	c #F1901D",
"s.	c #F5921B",
"t.	c #F1911D",
"u.	c #FDB141",
"v.	c #FCB040",
"w.	c #F8941C",
"x.	c #F2911C",
"y.	c #A8835A",
"z.	c #F19321",
"A.	c #BDBABD",
"B.	c #9B8B7D",
"C.	c #BE8748",
"D.	c #F9B143",
"E.	c #939091",
"F.	c #939093",
"G.	c #8B7C6F",
"H.	c #FDD59A",
"I.	c #7B0039",
"J.	c #AA8D66",
"K.	c #FF5D8C",
"L.	c #FF0000",
"M.	c #FF79B5",
"N.	c #FF79CE",
"O.	c #DEDBDE",
"P.	c #E69029",
"Q.	c #FF8ABD",
"R.	c #FF59AD",
"S.	c #F29424",
"T.	c #9C9A9B",
"U.	c #FBAF3F",
"V.	c #F9AF43",
"W.	c #A9A096",
"X.	c #FAAE40",
"Y.	c #FBAF41",
"Z.	c #AAA8AA",
"`.	c #7C033B",
" +	c #FF72B3",
".+	c #FF5C94",
"++	c #FF7FB9",
"@+	c #FFB64D",
"#+	c #F8AF40",
"$+	c #B4A2AC",
"%+	c #D53D88",
"&+	c #FF73AC",
"*+	c #FF88BC",
"=+	c #FEB54C",
"-+	c #FDB64C",
";+	c #F9AD3F",
">+	c #94466B",
",+	c #F5AE44",
"'+	c #F3AB3F",
")+	c #F9B145",
"!+	c #7E083F",
"~+	c #FF86C1",
"{+	c #FF79C8",
"]+	c #FB56A9",
"^+	c #7D033C",
"/+	c #FBB249",
"(+	c #FBB448",
"_+	c #FCB54B",
":+	c #F7AE3F",
"<+	c #939193",
"[+	c #BBB8BB",
"}+	c #9E9B9E",
"|+	c #FF84C3",
"1+	c #FF5DAE",
"2+	c #FDB44B",
"3+	c #F3AA41",
"4+	c #F7AF43",
"5+	c #F4AB42",
"6+	c #9A989A",
"7+	c #B6B3B6",
"8+	c #A3A1A3",
"9+	c #F6AD3E",
"0+	c #F4AC40",
"a+	c #FCB54D",
"b+	c #F6AC41",
"c+	c #B1AEB1",
"d+	c #9D9B9D",
"e+	c #D9D6D9",
"f+	c #F3AD3D",
"g+	c #A98E69",
"h+	c #A98C66",
"i+	c #A9A7A9",
"j+	c #BEBBBE",
"k+	c #DBD8DB",
"l+	c #FAB246",
"m+	c #F7AD40",
"n+	c #A98D66",
"o+	c #C2BFC2",
"p+	c #D4D1D4",
"q+	c #FCB042",
"r+	c #7D7B7D",
"s+	c #CFCCCF",
"t+	c #7A787A",
"u+	c #C9C6C9",
"v+	c #999799",
"w+	c #B1AFB1",
"x+	c #989598",
"y+	c #979597",
"z+	c #A2A0A2",
"A+	c #ABA8AB",
"B+	c #C5C2C5",
"C+	c #AEACAE",
"D+	c #AFADAF",
"E+	c #A5A3A5",
"F+	c #A4A2A4",
"G+	c #8B898B",
"H+	c #878487",
"I+	c #858385",
"J+	c #7E7C7E",
"K+	c #7C7A7C",
"L+	c #7D8070",
"M+	c #84816B",
"N+	c #A98D67",
"O+	c #FAAB35",
"P+	c #A8A506",
"Q+	c #2B2A28",
"R+	c #2D2B29",
"S+	c #FBB243",
"T+	c #63730C",
"U+	c #4C5518",
"V+	c #4C3E2B",
"W+	c #FAB043",
"X+	c #F9B64D",
"Y+	c #A8845D",
"Z+	c #7B9001",
"`+	c #F6A636",
" @	c #E5A240",
".@	c #FBB347",
"+@	c #F59622",
"@@	c #A58159",
"#@	c #FDAC37",
"$@	c #FDB044",
"%@	c #FAB244",
"&@	c #FCB446",
"*@	c #A98F68",
"=@	c #A98E67",
"-@	c #A98560",
";@	c #A98C65",
">@	c #FAB54D",
",@	c #F69628",
"'@	c #A78259",
")@	c #A88259",
"!@	c #A76E5E",
"~@	c #A46C5D",
"{@	c #FEAB35",
"]@	c #FDAF42",
"^@	c #FBAE42",
"/@	c #F6A941",
"(@	c #F69931",
"_@	c #F59525",
":@	c #F89827",
"<@	c #F45A28",
"[@	c #A56D5E",
"}@	c #A76E5C",
"|@	c #A5575C",
"1@	c #A3585B",
"2@	c #A4575D",
"3@	c #A76F5E",
"4@	c #F1582C",
"5@	c #EE5124",
"6@	c #FAB140",
"7@	c #FEB449",
"8@	c #FAAE3E",
"9@	c #FBB03B",
"0@	c #FBB23F",
"a@	c #F9B03F",
"b@	c #F79623",
"c@	c #F69723",
"d@	c #F59726",
"e@	c #F68B17",
"f@	c #F29221",
"g@	c #F6911D",
"h@	c #F4112D",
"i@	c #F01D24",
"j@	c #EC1A25",
"k@	c #EC5623",
"l@	c #F15628",
"m@	c #F15427",
"n@	c #FCAC3B",
"o@	c #FAAC3F",
"p@	c #FFAA48",
"q@	c #F4AD43",
"r@	c #FAB349",
"s@	c #F4911C",
"t@	c #F59524",
"u@	c #EE1A28",
"v@	c #F55929",
"w@	c #FCB541",
"x@	c #F9B041",
"y@	c #FAB148",
"z@	c #F7AE45",
"A@	c #F9B047",
"B@	c #F6AC43",
"C@	c #F39019",
"D@	c #F8992B",
"E@	c #F29222",
"F@	c #EE1B24",
"G@	c #FBB442",
"H@	c #F5AD41",
"I@	c #FDB44D",
"J@	c #F9B240",
"K@	c #F39524",
"L@	c #EB1924",
"M@	c #EE1C25",
"N@	c #FBB344",
"O@	c #F8AE41",
"P@	c #F9B049",
"Q@	c #FCAE3F",
"R@	c #F89422",
"S@	c #EE5C29",
"T@	c #F36734",
"U@	c #EB5B29",
"V@	c #F76937",
"W@	c #FAA73D",
"X@	c #F9A83D",
"Y@	c #F7921C",
"Z@	c #F55F2C",
"`@	c #F8AB3F",
" #	c #FAB142",
".#	c #F99523",
"+#	c #F05829",
"@#	c #F46638",
"##	c #F02833",
"$#	c #EB1C24",
"%#	c #F05826",
"&#	c #EE572A",
"*#	c #F9AC40",
"=#	c #F35828",
"-#	c #F46336",
";#	c #EB5729",
">#	c #ED5C2F",
",#	c #E51924",
"'#	c #ED212A",
")#	c #E81A24",
"!#	c #F45827",
"~#	c #EE5627",
"{#	c #FAAD41",
"]#	c #EF5927",
"^#	c #EE5C2D",
"/#	c #EC232D",
"(#	c #EC2931",
"_#	c #EB232D",
":#	c #E81C25",
"<#	c #FCAE41",
"[#	c #F25727",
"}#	c #FCAB3F",
"|#	c #FBAA3E",
"1#	c #F7AA3E",
"2#	c #F9A84C",
"3#	c #F7AA40",
"4#	c #F1A43C",
"5#	c #F8AF3C",
"6#	c #FDAF43",
"7#	c #EF5C28",
"8#	c #F05D29",
"9#	c #F25C29",
"0#	c #FFA747",
"a#	c #FBA83E",
"b#	c #FCAF43",
"c#	c #F5AB40",
"d#	c #FBAE3C",
"e#	c #F2592D",
"f#	c #EE5C23",
"g#	c #FFB447",
"h#	c #F8AF46",
"i#	c #FEB64A",
"j#	c #FDAF40",
"k#	c #F3582A",
"l#	c #8EAC2B",
"m#	c #9E8537",
"                            . . . .     . . + +         @ # # # # # # $ % & & *             . . . .     . . + +             . . ",
"  =                         . . . .     . . + +         - ; ; ; ; ; ; > & & & ,             . . . .     . . + +             . . ",
"    . .         . . . . ' ' . .         ) ! ~ { ] ^ / ( _ : : : : : : < [ & & } * [ [ [ [ [ [ |         + + ' ' . .     . .     ",
"    . .         . . . . ' ' . .         1 & & 2 3 4 5 6 7 8 : : : : : 9 [ & & & & & & & & & & 0         + + ' ' . .     . .     ",
"        . . . .     . . ' '         . . a & & & 2 b 6 5 c d 8 : : : : 9 e & & & & & & * & & & [     . . ' '             . .     ",
"        . . . .     . . ' '         . . f & & & g h i j k l m n : : : o p g g g g g g q & & & [     . . ' '             . .     ",
"            . .     . . ' '     q q * r s & & [ t u v w x y z m 8 : : 8 A t t t t t t B & & & C * * * [ . .     . .             ",
"            . .     . . ' '     * & & & & & & D E 8 F m G H I H J : : : : : : : : : : K & & & & & & & L . .     . .             ",
". .         . .         ' ' ' ' * & & & & & & D E : : 8 n M I N d F : : : : : : : : : K & & & & & & & L         ' ' . .         ",
". .         . .         ' ' ' ' & & & O O 2 P P : : : : Q R S T T l M J J J J 9 U : : K & & & & & & & V         ' ' . .         ",
"+ + . .                 e e e W & & & X Y : Z Z ` : : :  ...+.@.#.$.%.&.*.*.*.=.-.: : K & & & & & & & 2 ;.e ! # ' ' . .     . . ",
"+ + . .                 & >.& & & & & ,.'.: : : : : : : ).!.!.~.{.].^.!.!.!.!./.Y : : K & & & & & & & & & & & (.' ' . .     . . ",
"' ' + + . .     . .     & & & & & & & ,.'.: : : : : : : )._._.:._.:._._._._._._.<.[.: K & & & & & & & & & & & (.. . . .     . . ",
"' ' + + . .     . .     & & & }.@ @ @ |.1.: 2.[.3.3.3.3.4.5.5.5.5.5.5.5.5.5.5.5.6.5.3.7.8.8.8.8.@ @ @ @ 9.& & * . . . .     . . ",
". . ' ' ' '     0.a.b.c.& & & d.: : : e.f.[.6.5.5.6.6.5.5.6.5.6.5.6.5.5.6.5.5.5.5.6.5.5.5.5.5.5.[.[.: : g.& & & [ V V V     . . ",
". . ' ' ' '     h.6 i.j.( & & e : : : [.[.5.6.6.6.6.6.6.6.6.6.6.6.5.6.6.5.5.6.6.6.6.6.5.5.5.5.5.5.5.[.[.k.& & & & & & &     . . ",
"    . . . .     l.m.a 5 n.2 & e : : [.5.5.6.6.6.6.6.6.6.6.6.6.6.6.6.6.6.6.6.6.6.5.5.5.6.5.5.5.5.5.5.5.5.5.k.& & & & & &     . . ",
"    . . . .     o.P ( p.q.r.s.e : [.6.6.6.6.6.6.6.6.6.6.6.6.6.6.6.6.6.6.6.6.6.6.6.6.6.5.5.5.5.5.5.5.5.5.5.5.k.& & & t.&     . . ",
"        u.v.v.v.w.& & x.a 3 2 6.6.5.5.6.6.6.6.6.6.6.6.6.6.6.6.6.6.6.6.6.6.6.6.6.6.6.5.6.6.6.6.6.5.5.6.5.5.5.5.y.z.& & &         ",
"        u.v.v.v.w.& & 2 2 2 k.5.5.5.6.6.6.6.6.6.6.6.6.6.6.6.6.A.6.6.6.6.6.6.6.6.6.6.6.6.5.5.5.5.5.5.5.5.6.5.5.5.B.C.& &         ",
"        D.v.v.v.w.& & & & & k.5.5.5.6.6.6.6.6.6.6.6.6.6.6.6.6.A.6.6.6.6.6.6.6.6.6.6.6.6.5.5.5.5.5.5.5.5.6.5.5.5.E.A.k.&         ",
"  v.v.v.v.v.v.v.w.& & & & 6.5.5.5.6.6.6.6.6.6.6.A.6.6.6.6.A.A.6.6.A.6.6.A.6.6.6.6.6.6.6.6.6.5.5.6.6.6.5.5.5.5.5.5.F.G.& u.v.v.H.",
"  v.v.v.v.v.v.v.w.& & k.k.6.5.6.6.6.6.6.6.A.I.I.I.I.I.A.A.A.A.A.A.A.A.A.6.A.6.6.A.6.6.6.6.6.6.6.6.6.6.5.6.5.5.5.5.6.6.k.J.v.v.H.",
"  v.v.v.v.v.v.v.w.& & k.5.5.6.6.6.6.6.I.I.I.K.K.K.K.K.I.I.I.A.A.A.A.A.A.A.A.A.A.6.A.A.6.A.A.6.6.6.6.6.6.6.5.6.5.6.5.5.6.6.v.v.H.",
"  v.v.v.v.v.v.v.w.& k.6.6.5.6.6.6.6.6.L.L.K.K.K.K.K.K.K.K.K.I.A.A.A.A.A.A.A.A.A.A.6.6.6.6.6.6.6.6.6.6.6.5.6.5.6.5.6.6.6.6.v.v.H.",
"  v.v.v.v.v.v.v.w.& k.5.5.6.6.6.6.I.L.K.K.K.K.K.M.K.K.K.K.M.K.M.I.A.A.A.A.A.A.A.A.A.A.6.A.A.A.A.6.6.6.6.6.6.6.6.5.6.6.6.6.v.v.H.",
"  v.v.v.v.v.v.v.w.& k.6.6.6.6.A.A.I.K.K.K.K.M.M.K.N.N.N.N.M.M.M.I.O.A.A.O.A.A.A.A.A.A.A.6.6.6.6.6.6.6.6.6.6.6.6.6.6.6.6.6.v.v.H.",
"  v.v.v.v.v.v.v.P.k.6.6.6.6.A.I.I.K.K.K.K.M.K.N.Q.Q.Q.Q.Q.Q.N.M.R.I.O.O.A.O.A.A.A.A.A.A.A.A.A.A.6.6.6.6.6.6.6.6.6.6.6.6.6.A.v.H.",
"  v.v.v.v.v.v.v.S.T.6.6.6.6.A.I.I.K.K.K.K.K.N.Q.Q.Q.Q.Q.Q.Q.N.R.R.I.A.A.O.A.O.O.A.O.A.A.A.A.A.A.A.A.6.A.6.6.6.6.6.6.6.6.6.A.v.H.",
"  U.v.v.v.v.v.v.V.W.6.6.6.6.A.I.I.K.M.N.N.N.R.Q.Q.Q.Q.Q.Q.Q.N.M.R.I.O.O.O.O.A.A.O.A.A.A.A.A.6.6.A.A.6.6.6.A.6.6.6.6.6.6.6.A.v.H.",
"  X.Y.u.v.v.v.v.v.Z.6.6.6.A.6.`.I. +.+++Q.Q.Q.Q.Q.Q.Q.Q.Q.Q.N.R.R.I.O.O.O.A.O.O.A.O.A.A.A.A.A.A.A.A.6.A.6.6.6.6.6.6.6.A.A.A.v.H.",
"  @+#+Y.v.v.v.6.6.6.6.6.6.A.$+I.%+&+*+Q.Q.Q.Q.Q.Q.Q.Q.Q.Q.Q.N.M.R.I.O.O.O.O.O.O.A.O.A.A.A.A.A.A.6.6.A.6.6.6.A.6.6.A.A.6.6.A.v.H.",
"  =+-+;+Y.v.v.6.6.6.6.A.A.A.>+I.K.M.Q.Q.Q.Q.Q.Q.Q.Q.Q.Q.Q.Q.N.M.R.I.O.O.O.O.O.O.O.A.A.A.A.A.A.A.A.A.A.A.6.6.6.6.6.6.6.6.6.A.v.H.",
"  ,+'+)+#+Y.v.6.6.6.6.A.A.A.!+I.K.M.Q.Q.Q.Q.Q.Q.Q.Q.Q.Q.Q.~+{+ +]+^+O.O.O.O.O.O.O.O.A.O.A.A.A.A.A.A.6.A.A.6.A.6.A.6.6.A.A.A.v.H.",
"  /+(+_+_+:+Y.6.6.<+A.[+A.}+I.I.M.K.Q.Q.Q.Q.Q.Q.Q.Q.Q.|+~+N.1+R.I.O.O.O.O.O.O.O.O.O.O.A.A.A.A.A.A.A.6.A.6.6.A.6.A.6.6.A.A.A.v.H.",
"  :+2+3+4+5+#+6.6.6+7+7+8+A.I.I.K.M.N.N.N.R.Q.Q.Q.Q.Q.Q.Q.N.M.R.I.O.O.O.O.O.O.O.O.O.O.A.A.A.A.A.A.A.6.A.6.6.A.6.A.6.6.A.A.A.v.H.",
"  Y.#+9+0+a+b+6.6.6.6.c+d+A.I.I.K.K.K.K.K.N.Q.Q.Q.Q.Q.Q.Q.N.R.R.I.A.A.O.e+O.O.O.O.O.A.O.A.A.A.A.A.A.A.A.A.6.A.6.A.6.6.A.A.Y.v.H.",
"        f+0+_+g+h+6.6.i+d+A.I.I.K.K.K.K.M.K.N.Q.Q.Q.Q.Q.Q.N.M.R.I.O.O.j+O.k+O.O.O.O.A.A.A.A.A.A.A.A.A.A.A.6.A.A.6.A.A.A.A..     ",
"        )+l+m+X.Y.n+6.6.6.6.A.A.I.K.K.K.K.M.M.K.N.N.N.N.M.M.M.I.O.A.A.O.o+p+O.O.O.A.A.O.A.A.A.A.A.A.A.A.6.A.6.6.A.A.A.A.A.      ",
"        q+Y.Y.v.v.n+5.r+6.6.6.6.I.L.K.K.K.K.K.M.K.K.K.K.M.K.M.I.A.A.A.A.A.s+O.O.O.O.O.A.A.A.A.A.A.A.A.6.A.A.A.A.6.A.A.A.A.      ",
". .     u.v.v.v.v.n+6.6.t+6.6.6.6.6.L.L.K.K.K.K.K.K.K.K.K.I.A.A.A.A.A.A.A.u+O.O.A.O.O.A.A.A.A.A.A.A.A.A.6.A.6.A.6.A.A.6.        ",
". .     u.v.v.v.v.v.n+5.5.6.6.6.6.6.I.I.I.K.K.K.K.K.I.I.I.A.A.A.A.A.A.A.A.u+O.O.O.A.A.A.A.A.A.A.A.A.A.A.A.A.v+w+x+5.y+6.        ",
"+ + . . u.v.v.v.v.v.n+n+6.5.6.6.6.6.6.6.A.I.I.I.I.I.A.A.A.A.A.A.A.A.A.6.A.z+A+B+C+D+D+E+F+E+E+E+E+E+G+6.H+I+J+K+6.6.L+L+    . . ",
"+ + . . u.v.v.v.v.v.v.v.6.5.5.5.6.6.6.6.6.6.6.A.6.6.6.6.A.A.6.6.A.6.6.A.6.6.6.6.6.6.6.6.6.5.5.6.6.6.5.5.5.5.5.5.M+M+. .     . . ",
"' ' + + u.v.v.v.v.v.v.v.v.n+5.5.5.6.6.6.6.6.6.6.6.6.6.6.6.6.A.6.6.6.6.6.6.6.6.6.6.6.6.5.5.5.5.5.5.5.5.6.5.5.5.N+. . . .     . . ",
"' ' + + . .     O+v.v.v.v.n+5.5.5.6.6.6.6.6.6.6.6.6.6.6.6.6.A.6.6.6.6.6.6.6.6.6.6.6.6.5.5.5.5.5.5.5.5.6.5.5.5.N+. . . .     . . ",
". . ' ' ' P+Q+Q+R+v.v.v.v.v.6.6.5.5.6.6.6.6.6.6.6.6.6.6.6.6.6.6.6.6.6.6.6.6.6.6.6.5.6.6.6.6.6.5.5.6.5.5.5.5.n+S+. .         . . ",
". . ' ' ' ' T+U+V+v.R+R+v.Y.W+X+Y+6.6.6.6.6.6.6.6.6.6.6.6.6.6.6.6.6.6.6.6.6.6.6.6.6.5.5.5.5.5.5.5.5.5.5.5.n+v.S+. .         . . ",
"' ' ' ' . .   Z+`+ @v.v.v.Y.X..@+@@@5.5.6.6.6.6.6.6.6.6.6.6.6.6.6.6.6.6.6.6.6.5.5.5.6.5.5.5.5.5.5.5.5.5.n+v.v.S+            . . ",
"' ' ' ' . .     #@v.v.v.v.q+Y.$@%@&@*@=@5.6.6.6.6.6.6.6.6.6.6.6.5.6.6.5.5.6.6.6.6.6.5.5.5.5.5.5.5.n+n+n+v.v.v.S+            . . ",
". . ' '         #@v.v.v.v.v.v.Y.u.:+_+3+-@6.5.5.6.6.5.5.6.5.6.5.6.5.5.6.5.5.5.5.6.5.5.5.5.5.5.;@h+Y.v.v.v.v.v.S+                ",
". . ' '         #@v.v.v.v.v.v.v.q+Y.m+>@,@n.'@)@!@[.[.[.5.5.5.5.5.5.5.5.5.5.5.6.5.[.[.~@n+n+;@Y.2+#+Y.v.v.v.v.S+                ",
"    ' ' . .     {@U.U.U.v.v.v.U.]@]@^@/@(@_@:@P E <@<@<@[@}@}@}@_._._.|@1@2@2@2@3@4@4@5@v.6@Y.:+_+7@8@Y.#+U.9@0@' ' ' '         ",
"    ' ' . .         . . v.v.v.a@b@b@c@d@e@j f@P g@g@g@g@h@i@i@i@j@!.!.=.k@l@l@m@n@o@o@p@v.v.#+b+.@q@r@:+. . . . ' ' ' '         ",
"' '     . . + + + + . . v.v.v.6@& & & & ( m.3 s@t@2 & & ).!.!.!.!.!.!.u@v@: : : w@v.v.v.v.v.x@y@z@0+A@B@. . . . ' ' ' '     . . ",
"' '     . . + + + + . . v.v.v.6@& & & & & 2 C@D@E@m.( 2 ).!.!.!.!.!.!.F@9 : : : G@v.v.v.v.v.Y.Y.X.m+H@I@. . . . ' ' ' '     . . ",
"' '         . . ' ' ' ' v.v.v.J@* * * & * & } a m.K@5 x.L@!.!.!.!.*.*.M@<@: : <@N@v.v.U.v.v.v.v.U.X.O@P@                    . . ",
"' '         . . ' ' ' ' v.v.v.v.Q@Q@Q@Y.R@& [ ( S@T@U@V@L@!.!.!.W@W@W@X@Y@Y@Y@2 Q Z@Z@m v.v.v.v.v.v.Y.`@                    . . ",
". .     . .     . . ' ' v.v.v.v.v.v.v. #.#& & ! +#y I @###~.$#!.q+v.v.v.& 2 2 V %#: : &#v.v.v.v.v.v.Y.*#    . .     . .     . . ",
". .     . .     . . ' ' v.v.v.v.v.v.v.q+.#& & [ =#-#;#>#,#'#)#~.]@v.v.Y.% & & & !#: : ~#v.v.v.v.v.v.v.{#    . .     . .     . . ",
"        . .         . . v.v.v.v.v.v.v.q+.#& & [ : n ]#^#/#(#_#:#<#v.v.q+% & & & [#: : ~#v.v.v.v.v.v.v.]@    . .                 ",
"        . .         . . ' '     q+v.v.q+.#& & & o@}#|#1#2#3#/@4#5#v.v.6#7#8#8#9#0#}#}#a#v.v.v.v.v.v.v.<#    . .                 ",
"        . .             . .     q+v.v.q+.#& & & q+q+b#O@x@{#c#_+1#Y.v.d#e#Z Z f#g#q+q+Q@v.v.v.v.v.v.v.<#    . .         . . . . ",
"        . .             . .     q+v.v.q+.#& & [ v.v.v.v.Y.Y.m+h#i#q+v.j#k#: : : G@v.v.v.v.v.v.v.v.v.v.<#    . .         . . l#m#"};
