/* XPM */
static char * exit_close_xpm[] = {
"64 64 90 1",
" 	c #7B9200",
".	c #8CB229",
"+	c #CEFB42",
"@	c #7A8E01",
"#	c #BDBA00",
"$	c #6A7C08",
"%	c #7B824F",
"&	c #818D5D",
"*	c #93904F",
"=	c #99A866",
"-	c #7B797B",
";	c #9C9A9C",
">	c #7A9001",
",	c #798F01",
"'	c #828E5E",
")	c #7B9106",
"!	c #BDBABD",
"~	c #8A8B79",
"{	c #7B8639",
"]	c #929091",
"^	c #939093",
"/	c #83816B",
"(	c #7B0039",
"_	c #FF5D8C",
":	c #FF0000",
"<	c #FF79B5",
"[	c #FF79CE",
"}	c #DEDBDE",
"|	c #8AAA35",
"1	c #FF8ABD",
"2	c #FF59AD",
"3	c #7D920A",
"4	c #9C9A9B",
"5	c #7C9205",
"6	c #9C9D90",
"7	c #AAA8AA",
"8	c #7C033B",
"9	c #FF72B3",
"0	c #FF5C94",
"a	c #FF7FB9",
"b	c #B4A2AC",
"c	c #D53D88",
"d	c #FF73AC",
"e	c #FF88BC",
"f	c #94466B",
"g	c #7E083F",
"h	c #FF86C1",
"i	c #FF79C8",
"j	c #FB56A9",
"k	c #7D033C",
"l	c #939193",
"m	c #BBB8BB",
"n	c #9E9B9E",
"o	c #FF84C3",
"p	c #FF5DAE",
"q	c #9A989A",
"r	c #B6B3B6",
"s	c #A3A1A3",
"t	c #B1AEB1",
"u	c #9D9B9D",
"v	c #D9D6D9",
"w	c #A9A7A9",
"x	c #BEBBBE",
"y	c #DBD8DB",
"z	c #C2BFC2",
"A	c #D4D1D4",
"B	c #7D7B7D",
"C	c #CFCCCF",
"D	c #7A787A",
"E	c #C9C6C9",
"F	c #999799",
"G	c #B1AFB1",
"H	c #989598",
"I	c #979597",
"J	c #A2A0A2",
"K	c #ABA8AB",
"L	c #C5C2C5",
"M	c #AEACAE",
"N	c #AFADAF",
"O	c #A5A3A5",
"P	c #A4A2A4",
"Q	c #8B898B",
"R	c #878487",
"S	c #858385",
"T	c #7E7C7E",
"U	c #7C7A7C",
"V	c #8CB129",
"W	c #83A42C",
"X	c #8DAF2A",
"Y	c #979731",
"              ....  ..++      ..              ....  ..++      ..",
" @            ....  ..++      ..              ....  ..++      ..",
"  ..    ....##..    ++##..  ..    ..    ....##..    ++##..  ..  ",
"  ..    ....##..    ++##..  ..    ..    ....##..    ++##..  ..  ",
"    ....  ..##    ..##      ..      ....  ..##    ..##      ..  ",
"    ....  ..##    ..##      ..      ....  ..##    ..##      ..  ",
"      ..  ..##  ..++..  ..            ..  ..##  ..++..  ..      ",
"      ..  ..##  ..++..  ..            ..  ..##  ..++..  ..      ",
"..    ..    ####++++    ##..    ..    ..    ####++++    ##..    ",
"..    ..    ####++++    ##..    ..    ..    ####++++    ##..    ",
"++..          ####  ..  ##..  ..++..          ####  ..  ##..  ..",
"++..         $####  ..  ##..  ..++..          ####  ..  ##..  ..",
"##++..  ..    ##..  ..  .... %&&**==&&%%&&    ##..  ..  ....  ..",
"##++..  ..    ##..  .. %&&&&%-----------;-%%%%**..  ..  ....  ..",
"..####  ++++  ....  .&;--;;--;-;-;--;----;------&&  ..  ..    ..",
"..####  ++++  .... %&-;;;;;;;;;;;-;;--;;;;;-------%%&.  ..    ..",
"  ....  ..++      %--;;;;;;;;;;;;;;;;;;;---;---------%..      ..",
"  ....  ..++>    %;;;;;;;;;;;;;;;;;;;;;;;;;-----------&.  ,   ..",
"          #### ;;--;;;;;;;;;;;;;;;;;;;;;;;-;;;;;--;----')       ",
"          ####%---;;;;;;;;;;;;;!;;;;;;;;;;;;--------;---~{      ",
"    ..    ....%---;;;;;;;;;;;;;!;;;;;;;;;;;;--------;---]!*#    ",
"    ..    ...;---;;;;;;;!;;;;!!;;!;;!;;;;;;;;;--;;;------^/#    ",
"    ..++++.&%;-;;;;;;!(((((!!!!!!!!!;!;;!;;;;;;;;;;-;----;;*% ..",
"    ..++++.&--;;;;;(((_____(((!!!!!!!!!!;!!;!!;;;;;;;-;-;--;; ..",
"  ..  ..##*;;-;;;;;::_________(!!!!!!!!!!;;;;;;;;;;;-;-;-;;;; ..",
"  ..  ..##*--;;;;(:_____<____<_<(!!!!!!!!!!;!!!!;;;;;;;;-;;;; ..",
"  ....  ..*;;;;!!(____<<_[[[[<<<(}!!}!!!!!!!;;;;;;;;;;;;;;;;; ..",
"  ....  |&;;;;!((____<_[111111[<2(}}!}!!!!!!!!!!;;;;;;;;;;;;;!..",
"    ..  34;;;;!((_____[1111111[22(!!}!}}!}!!!!!!!!;!;;;;;;;;;!  ",
"    ..  56;;;;!((_<[[[21111111[<2(}}}}!!}!!!!!;;!!;;;!;;;;;;;!  ",
"    ..   7;;;!;8(90a1111111111[22(}}}!}}!}!!!!!!!!;!;;;;;;;!!!..",
"    .. ;;;;;;!b(cde11111111111[<2(}}}}}}!}!!!!!!;;!;;;!;;!!;;!..",
"       ;;;;!!!f(_<111111111111[<2(}}}}}}}!!!!!!!!!!!;;;;;;;;;!..",
"       ;;;;!!!g(_<11111111111hi9jk}}}}}}}}!}!!!!!!;!!;!;!;;!!!..",
"  ..   ;;l!m!n((<_111111111oh[p2(}}}}}}}}}}!!!!!!!;!;;!;!;;!!!  ",
"  ..   ;;qrrs!((_<[[[21111111[<2(}}}}}}}}}}!!!!!!!;!;;!;!;;!!!  ",
"    ...;;;;tu!((_____[1111111[22(!!}v}}}}}!}!!!!!!!!!;!;!;;!!.  ",
"    ...&%;;wu!((____<_[111111[<2(}}x}y}}}}!!!!!!!!!!!;!!;!!!!.  ",
"      .. %;;;;!!(____<<_[[[[<<<(}!!}zA}}}!!}!!!!!!!!;!;;!!!!!   ",
"      .. %-B;;;;(:_____<____<_<(!!!!!C}}}}}!!!!!!!!;!!!!;!!!!   ",
"..    .. %;;D;;;;;::_________(!!!!!!!E}}!}}!!!!!!!!!;!;!;!!;    ",
"..    ..  %--;;;;;(((_____(((!!!!!!!!E}}}!!!!!!!!!!!!!FGH-I;    ",
"++..      %%;-;;;;;;!(((((!!!!!!!!!;!JKLMNNOPOOOOOQ;RSTU;;&&  ..",
"++..        ;---;;;;;;;!;;;;!!;;!;;!;;;;;;;;;--;;;------**..  ..",
"##++..  ..   %---;;;;;;;;;;;;;!;;;;;;;;;;;;--------;---%....  ..",
"##++..  ..   %---;;;;;;;;;;;;;!;;;;;;;;;;;;--------;---%....  ..",
"..####  ++++  ;;--;;;;;;;;;;;;;;;;;;;;;;;-;;;;;--;----% ..    ..",
"..####  ++++  ..&;;;;;;;;;;;;;;;;;;;;;;;;;-----------&  ..    ..",
"####..  VW++     %--;;;;;;;;;;;;;;;;;;;---;---------% ..      ..",
"####..  ..++      %%-;;;;;;;;;;;-;;--;;;;;-------%%%  ..      ..",
"..##      ####      &;--;;--;-;-;--;----;------%%   ....        ",
"..##      ####      ..&&%%%%-----------;-%****%     ....        ",
"  ##..    ....  ........####%%%%%%%%&&%%% ....  ........####    ",
"  ##..    ....  ........####        ..    ....  ........####    ",
"##  ..++++..    ........####  ..    ..++++..    ........####  ..",
"##  ..++++..    ........####  ..    ..++++..    ........####  ..",
"##    ..####..  ....          ..  ..  ..####..  ....          ..",
"##    ..####..  ....          ..  ..  ..####..  ....          ..",
"..  ..  ..##..        ..  ..  ..  ....  ..##..        ..  ..  ..",
"..  ..  ..##..        ..  ..  ..  ....  ..##..        ..  ..  ..",
"    ..    ..##        ..            ..    ..##        ..        ",
"    ..    ..##        ..            ..    ..##        ..        ",
"    ..      ..        ..    ....    ..      ..        ..    ....",
"    ..      ..        ..    ....    ..      ..        ..    ..XY"};
