/* XPM */
static char * exit_open_xpm[] = {
"64 64 44 1",
" 	c #7B9200",
".	c #8CB229",
"+	c #CEFB42",
"@	c #BDBA00",
"#	c #9C9A9C",
"$	c #8B964B",
"%	c #94A660",
"&	c #BDBABD",
"*	c #DEDBDE",
"=	c #7B824F",
"-	c #818D5D",
";	c #5A595A",
">	c #7B797B",
",	c #606B20",
"'	c #93904F",
")	c #633821",
"!	c #424142",
"~	c #CE8252",
"{	c #8C5129",
"]	c #00CBCE",
"^	c #FFFBFF",
"/	c #00797B",
"(	c #009A9C",
"_	c #7A8F02",
":	c #768907",
"<	c #BD005A",
"[	c #00387B",
"}	c #00EBEF",
"|	c #B8B518",
"1	c #7B0039",
"2	c #8EAE3B",
"3	c #FF59AD",
"4	c #FF79B5",
"5	c #638200",
"6	c #FF8ABD",
"7	c #39007B",
"8	c #FF5D8C",
"9	c #878465",
"0	c #FF0000",
"a	c #7E836D",
"b	c #7C9C29",
"c	c #888663",
"d	c #A6A306",
"e	c #778405",
"              ....  ..++      ..              ....  ..++      ..",
"              ....  ..++      ..              ....  ..++      ..",
"  ..    ....@@..    ++@@..  ..    ..    ....@@..    ++@@..  ..  ",
"  ..    ....@@..    ++@@..  ..    ..    ....@@..    ++@@..  ..  ",
"    ....  ..@@    ..@@      ..      ....  ..@@    ..@@      ..  ",
"    ....  ..@@    ..@@      ..      ....  ..@@    ..@@      ..  ",
"      ..  ..@@  ..++..  ..            ..  ..@@  ..++..  ..      ",
"      ..  ..@@  ..++..  ..            ..  ..@@  ..++..  ..      ",
"..    ..    @@@@++++    @@..    ..  #$%%$$$$@@@@++++    @@..    ",
"..    ..    @@@@++++    @@..    ..##&&&&&&&&###@++++    @@..    ",
"++..          @@@@  ..  @@..  .###&&&*&&&&&&&&&##@  ..  @@..  ..",
"++..          @@@@  ..  @@..  #&&*&**&*&&&&&&&&&&#  ..  @@..  ..",
"@@++..  ..    @@..  ..  .... #&**&*&*&*&&*&&&&&&&&#=..  ....  ..",
"@@++..  ..    @@..  ..  ....#&*&**&******&*&&&&&&&#&-.  ....  ..",
"..@@@@  ++++  ....  ..  .. #*******&**&*&*&*&&&&&&&#&-  ..    ..",
"..@@@@  ++++  ....  ..  ..#&*&;;;;;******&*&&&&&&&#&&#  ..    ..",
"  ....  ..++          .. #**;;#####;;;****&*&&&&&&&&#&-.      ..",
"  ....  ..++          ..#;##**>####&&>#;****&*&&&&&#&&#&=     ..",
"          @@@@      ....##***##&&&&#>&&>*****&&&&&&&&&&&>,      ",
"          @@@@      ...#;**##**&&&&&&#*#***&&*&&&&&&#&&#&=      ",
"    ..    ....  ......#;>*#****&&&&#>#*******&*&&&&&&##&&&'@    ",
"    ..    ....  .......#*#******&&#&&&#*****&*&&&&&#&&&#&&'@    ",
"    ..++++..    .......#********&#&&&&#******&*&&&&&#&#&&&'@  ..",
"    ..++++..    ......#****######&&##&#******&&&&&&&&#&#&&&@  ..",
"  ..  ..@@@@..  ....  #*#******#*&&&&#>#******&&&&&#&&&#&&&   ..",
"  ..  ..@@@@..  ....  #*#*****#**&&&&&#******&*&&&&&&##&#&&   ..",
"  ....  ..@@..      = **#*****#***&&&#******&*&&&&#&###&#&&-  ..",
"  ....  ..@@..       #*#********))!!!#*#***&&&&&&&&&#&##&&&-  ..",
"    ..    ..@@       #*#*******)~){)>**#*****&*&&&#&&##&#&&=    ",
"    ..    ..@@       #*#******)]~~)!>*#******&&&&&&&######&=    ",
"    ..      ..       #*#***###~~]))>**#****&&&&&&#&#####&#&=....",
"    ..      ..       ######***)~){{**#***&*&&&&&&&#&#####&#=....",
"              ....  .#^#****#**){{{##*****&*&&&&&&###&####&=  ..",
"              ....  .-^^#****##)!!>*#****&*&&&&&&&#&#######=  ..",
"  ..    ....@@..    +#^^^####*&))!>#****&*&&&&&&###########=..  ",
"  ..    ....@@..    +#^/^#***#&){>*#*&*&&&&&&&&&&#&#######&=..  ",
"    ....  ..@@    ..@'#(/#****)~{>^***&**&&&&&&#&########## ..  ",
"_   ....  ..@@    ..@'((/#***#)~~>^&&*&&&&&&&&#&#######>### ..  ",
":     ..  ..@@  ..#+.&&/&#***#~~~>^&*&&&&&&&&#&######>>####     ",
":   ######..@@  .#^#(&/&&#****;;>^^&&&&&&&&&&#######>##>##=     ",
"..##^***#&###@@@#^/^//########>#>^>&&&&&&&&##&#&#####>>#>#-.    ",
".####^***#^*####^/</#/***///[/^>>^>&&&&&#&#&#######>#>>>#>-.    ",
"+#^**######^**#^/<(}^#**##//([^^>^>&#&&##&#######>>#>>>#>'..  ..",
"+#^***&&&#&#*#*#^/<(/^#*#//(/(^^^^>&&##&&##########>>>>>'@..  ..",
"@|^**##&&#&&#^**#^/<</^#*/(/([](^^>##&#########>#>>>#>>=....  ..",
"@|^**#&111##&#^**#^/<</^##/(/*//^^>##########>##>>#>>>= ....  ..",
".2^^^#13441#&&#***#^<(5/^*#/]&(&^^>###########>>>>>>>-  ..    ..",
".2####111641&&####*#/.55/#*(]/#&^^>########>>>#>#>>>>-  ..    ..",
"@|>***#711481#*^****^/./^&##/###^#>####>>>##>#>>>>>>= ..      ..",
"@9&#^**#771081*^^^***#^#&&&&&&##>#>#>#>##>>>>>>>>===  ..      ..",
".a;&#^*###1<0#####^***#&&&&&&####;==>>>>>>>#>>>==   ....        ",
".b>;&###^*#####***##*##&&&###    =  =#>>>>>>''=     ....        ",
"  c&>&#^^****#^*****>&####;;;#==    .-====--..  ........@@@@    ",
"  d'&>>##^****#*######>;>;#'==      ..    ....  ........@@@@    ",
"@de -#>&&#####>#&&&&>;###''@  ..    ..++++..    ........@@@@  ..",
"@@ e.>#>;&&&&&#&>>>>####'@@@  ..    ..++++..    ........@@@@  ..",
"@@    --#;;;>>>>#####===      ..  ..  ..@@@@..  ....          ..",
"@@    ..'''#######--=         ..  ..  ..@@@@..  ....          ..",
"..  ..  ..@'--====    ..  ..  ..  ....  ..@@..        ..  ..  ..",
"..  ..  ..@@..        ..  ..  ..  ....  ..@@..        ..  ..  ..",
"    ..    ..@@        ..            ..    ..@@        ..        ",
"    ..    ..@@        ..            ..    ..@@        ..        ",
"    ..      ..        ..    ....    ..      ..        ..    ....",
"    ..      ..        ..    ....    ..      ..        ..    ...."};
