/* XPM */
static char * floor2_xpm[] = {
"64 64 4 1",
" 	c #7B9200",
".	c #8CB229",
"+	c #CEFB42",
"@	c #BDBA00",
"              ....  ..++      ..              ....  ..++      ..",
"              ....  ..++      ..              ....  ..++      ..",
"  ..    ....@@..    ++@@..  ..    ..    ....@@..    ++@@..  ..  ",
"  ..    ....@@..    ++@@..  ..    ..    ....@@..    ++@@..  ..  ",
"    ....  ..@@    ..@@      ..      ....  ..@@    ..@@      ..  ",
"    ....  ..@@    ..@@      ..      ....  ..@@    ..@@      ..  ",
"      ..  ..@@  ..++..  ..            ..  ..@@  ..++..  ..      ",
"      ..  ..@@  ..++..  ..            ..  ..@@  ..++..  ..      ",
"..    ..    @@@@++++    @@..    ..    ..    @@@@++++    @@..    ",
"..    ..    @@@@++++    @@..    ..    ..    @@@@++++    @@..    ",
"++..          @@@@  ..  @@..  ..++..          @@@@  ..  @@..  ..",
"++..          @@@@  ..  @@..  ..++..          @@@@  ..  @@..  ..",
"@@++..  ..    @@..  ..  ....  ..@@++..  ..    @@..  ..  ....  ..",
"@@++..  ..    @@..  ..  ....  ..@@++..  ..    @@..  ..  ....  ..",
"..@@@@  ++++  ....  ..  ..    ....@@@@  ++++  ....  ..  ..    ..",
"..@@@@  ++++  ....  ..  ..    ....@@@@  ++++  ....  ..  ..    ..",
"  ....  ..++          ..      ..  ....  ..++          ..      ..",
"  ....  ..++          ..      ..  ....  ..++          ..      ..",
"          @@@@      ....                  @@@@      ....        ",
"          @@@@      ....                  @@@@      ....        ",
"    ..    ....  ........@@@@        ..    ....  ........@@@@    ",
"    ..    ....  ........@@@@        ..    ....  ........@@@@    ",
"    ..++++..    ........@@@@  ..    ..++++..    ........@@@@  ..",
"    ..++++..    ........@@@@  ..    ..++++..    ........@@@@  ..",
"  ..  ..@@@@..  ....          ..  ..  ..@@@@..  ....          ..",
"  ..  ..@@@@..  ....          ..  ..  ..@@@@..  ....          ..",
"  ....  ..@@..        ..  ..  ..  ....  ..@@..        ..  ..  ..",
"  ....  ..@@..        ..  ..  ..  ....  ..@@..        ..  ..  ..",
"    ..    ..@@        ..            ..    ..@@        ..        ",
"    ..    ..@@        ..            ..    ..@@        ..        ",
"    ..      ..        ..    ....    ..      ..        ..    ....",
"    ..      ..        ..    ....    ..      ..        ..    ....",
"              ....  ..++      ..              ....  ..++      ..",
"              ....  ..++      ..              ....  ..++      ..",
"  ..    ....@@..    ++@@..  ..    ..    ....@@..    ++@@..  ..  ",
"  ..    ....@@..    ++@@..  ..    ..    ....@@..    ++@@..  ..  ",
"    ....  ..@@    ..@@      ..      ....  ..@@    ..@@      ..  ",
"    ....  ..@@    ..@@      ..      ....  ..@@    ..@@      ..  ",
"      ..  ..@@  ..++..  ..            ..  ..@@  ..++..  ..      ",
"      ..  ..@@  ..++..  ..            ..  ..@@  ..++..  ..      ",
"..    ..    @@@@++++    @@..    ..    ..    @@@@++++    @@..    ",
"..    ..    @@@@++++    @@..    ..    ..    @@@@++++    @@..    ",
"++..          @@@@  ..  @@..  ..++..          @@@@  ..  @@..  ..",
"++..          @@@@  ..  @@..  ..++..          @@@@  ..  @@..  ..",
"@@++..  ..    @@..  ..  ....  ..@@++..  ..    @@..  ..  ....  ..",
"@@++..  ..    @@..  ..  ....  ..@@++..  ..    @@..  ..  ....  ..",
"..@@@@  ++++  ....  ..  ..    ....@@@@  ++++  ....  ..  ..    ..",
"..@@@@  ++++  ....  ..  ..    ....@@@@  ++++  ....  ..  ..    ..",
"@@@@..  ..++          ..      ..  ....  ..++          ..      ..",
"@@@@..  ..++          ..      ..  ....  ..++          ..      ..",
"..@@      @@@@      ....                  @@@@      ....        ",
"..@@      @@@@      ....                  @@@@      ....        ",
"  @@..    ....  ........@@@@        ..    ....  ........@@@@    ",
"  @@..    ....  ........@@@@        ..    ....  ........@@@@    ",
"@@  ..++++..    ........@@@@  ..    ..++++..    ........@@@@  ..",
"@@  ..++++..    ........@@@@  ..    ..++++..    ........@@@@  ..",
"@@    ..@@@@..  ....          ..  ..  ..@@@@..  ....          ..",
"@@    ..@@@@..  ....          ..  ..  ..@@@@..  ....          ..",
"..  ..  ..@@..        ..  ..  ..  ....  ..@@..        ..  ..  ..",
"..  ..  ..@@..        ..  ..  ..  ....  ..@@..        ..  ..  ..",
"    ..    ..@@        ..            ..    ..@@        ..        ",
"    ..    ..@@        ..            ..    ..@@        ..        ",
"    ..      ..        ..    ....    ..      ..        ..    ....",
"    ..      ..        ..    ....    ..      ..        ..    ...."};
