/* XPM */
static char * landing_spaceship_xpm[] = {
"64 64 110 2",
"  	c #7B9200",
". 	c #7C9101",
"+ 	c #7D8C04",
"@ 	c #8CB229",
"# 	c #CEFB42",
"$ 	c #7E8F04",
"% 	c #7A8E01",
"& 	c #8E8F13",
"* 	c #92AE2D",
"= 	c #DED3C6",
"- 	c #E7D7CE",
"; 	c #C6B6AD",
"> 	c #BDBA00",
", 	c #EFDFCE",
"' 	c #D3D78B",
") 	c #BD9F58",
"! 	c #90B02B",
"~ 	c #D6C3B5",
"{ 	c #D6CBC6",
"] 	c #BBB106",
"^ 	c #CEBAB5",
"/ 	c #AD9E94",
"( 	c #D6C7BD",
"_ 	c #A59A8C",
": 	c #B5AA9C",
"< 	c #DECBBD",
"[ 	c #E7D3C6",
"} 	c #9C968C",
"| 	c #BDB2AD",
"1 	c #C6BEB5",
"2 	c #C5E43F",
"3 	c #7B824F",
"4 	c #818D5D",
"5 	c #93904F",
"6 	c #99A866",
"7 	c #7B797B",
"8 	c #9C9A9C",
"9 	c #94867B",
"0 	c #847973",
"a 	c #8C8273",
"b 	c #BDBABD",
"c 	c #7B0039",
"d 	c #FF5D8C",
"e 	c #FF0000",
"f 	c #FF79B5",
"g 	c #FF79CE",
"h 	c #DEDBDE",
"i 	c #9F9897",
"j 	c #8AAA35",
"k 	c #FF8ABD",
"l 	c #FF59AD",
"m 	c #7D920A",
"n 	c #9C9A9B",
"o 	c #7C9205",
"p 	c #9C9D90",
"q 	c #AAA8AA",
"r 	c #7C033B",
"s 	c #FF72B3",
"t 	c #FF5C94",
"u 	c #FF7FB9",
"v 	c #B4A2AC",
"w 	c #D53D88",
"x 	c #FF73AC",
"y 	c #FF88BC",
"z 	c #808D06",
"A 	c #FF86C1",
"B 	c #FF79C8",
"C 	c #FB56A9",
"D 	c #7D033C",
"E 	c #B5A69C",
"F 	c #FF84C3",
"G 	c #FF5DAE",
"H 	c #D9D6D9",
"I 	c #BEB6B6",
"J 	c #809105",
"K 	c #BEBBBE",
"L 	c #DBD8DB",
"M 	c #DCD6D7",
"N 	c #646264",
"O 	c #C2BFC2",
"P 	c #D4D1D4",
"Q 	c #CFCCCF",
"R 	c #C9C6C9",
"S 	c #BBB6B8",
"T 	c #947D70",
"U 	c #A89890",
"V 	c #989598",
"W 	c #979597",
"X 	c #A2A0A2",
"Y 	c #ABA8AB",
"Z 	c #C5C2C5",
"` 	c #AEACAE",
" .	c #AFADAF",
"..	c #A5A3A5",
"+.	c #A4A2A4",
"@.	c #7E7C7E",
"#.	c #7C7A7C",
"$.	c #9F9D9F",
"%.	c #A8A506",
"&.	c #2B2A28",
"*.	c #2C2C29",
"=.	c #817F81",
"-.	c #63730C",
";.	c #4C5518",
">.	c #444B2D",
",.	c #7B9001",
"'.	c #8AAC29",
").	c #83A42C",
"!.	c #8DAF2A",
"~.	c #979731",
"            . .       +     @ @ @ @     @ @ # #             @ @   $                         @ @ @ @ + + @ @ # #             @ @ ",
"  %                         @ @ @ @     @ @ # #             @ @                             @ @ @ @     @ @ # #           & * * ",
"    @ @         = = - ; ; ; @ @         # # > > @ @     @ @         @ @         @ @ @ @ > > @ @ , - - - ' ' > > @ @ )   @ !     ",
"    @ @         = = - ; ; ; @ @         # # > > @ @     @ @         @ @         @ @ @ @ > > @ @ , - - - ~ ~ > > @ @ )   @ !     ",
"        @ @ ; ; = = { = = { = ; { = = = ] ] +           @ @             @ @ @ @     @ @ > >   ^ - - - - , , - - ~ , , / @ !     ",
"        ( = = = = = = = = = = { = = = = ; ; _           @ @             @ @ @ @     @ @ > : = = = = - - - - - - , , - < ~ /     ",
"        = = - - = = = = = { = = = = = { ^ ^ ;   @ @                         @ @     @ @ > ^ = = = = - - - - - - , , , [ ~ ~     ",
"      } { = = = = = = = = = { = { = = = ; ; ^   @ @                         @ @     @ @ > < = = = = - - - - - - , , , ^ ~ ^     ",
"@ @   | { = = = = = = = = = = = = = = = ^ ^ /   > > @ @         @ @         @ @         > < = = = = - - - - - - , , , ~ ^ :     ",
"@ @   } 1 1 = = = = ; _ { = = { = ; ; ; ^ ^ /   > > @ @         @ @         @ @         > ; ( = = = ^ ^ - - - - , , ^ < ^ :     ",
"2 # @ } | 1 = = ; ; ; ; { = = = ; ; ; ( ( ( ^   > > @ @     @ @ # # @ @                   ; ( = = ^ ^ ^ - - , , , ^ < - < ^ / / ",
"# # @ @ | | ( ( = = = = = = | = = = = = = = <   > > @ @     @ @ # # @ @                   _ | ( | - - - , , ~ ~ , , - = - < ^ ^ ",
"> > # # } } ; ; = = = = = = = = = = = = - - (   @ @ @ @   3 4 4 5 5 6 6 4 4 3 3 4 4         _ | { - - - , , , , , - - = - < ; ; ",
"> > # # | | 1 1 ; ; ; ( = ( 1 ; | ; ; ( ; ; ; 3 4 4 4 4 3 7 7 7 7 7 7 7 7 7 7 7 8 7 3 3 3 ; ; ( ( ^ ^ ^ < < < < ^ ^ ( ( | | 9 9 ",
"@ @ > } | | 1 1 ; ; ; ; ( ; ; ; | ; ; ; ; ; _ 7 7 8 8 7 7 8 7 8 7 8 7 7 8 7 7 7 7 8 7 7 7 ; ; ( < ^ ^ ^ ^ ^ ^ ^ ^ ^ ; ; | _ @ @ ",
"@ @ > } | | 1 1 ; ; ; ; ( ; ; ; | ; ; ; ; ; _ 8 8 8 8 8 8 8 8 8 8 7 8 8 7 7 8 8 8 8 8 7 7 ; ; ( < ^ ^ ^ ^ ^ ^ ^ ^ ^ ; ; | _ @ @ ",
"    @ 0 | | | | = = = = ; ; ; = { ; ; | a a 8 8 8 8 8 8 8 8 8 8 8 8 8 8 8 8 8 8 7 7 7 8 7 _ ; ; ^ - - - ^ ^ ^ ^ - - ; _ 0   @ @ ",
"    @ 0 } | | | = = = = ; ; ; = | | | } _ _ a 8 8 8 8 8 8 8 8 8 8 8 8 8 8 8 8 8 8 8 8 7 7 } ; ; ^ - - - ^ ^ ^ ^ - ^ _ | } 9 @ @ ",
"        } } ; ; ; ; ; ; _ ; ; | ; | | | ; ; _ 8 8 8 8 8 8 8 8 8 8 8 8 8 8 8 8 8 8 8 7 8 8 a _ ; ; ; ^ ^ ^ ^ ^ ^ ^ ; ; | ; _     ",
"            0 0 = = = = _ ; ; | } | | | _ _ 8 8 8 8 8 8 8 8 8 b 8 8 8 8 8 8 8 8 8 8 8 8 7 7 7 9 ^ - - - ^ ^ ^ ^ ; _ | _ /       ",
"        @ @     ; ; ; ; a ; ; _ } } } | 8 8 8 8 8 8 8 8 8 8 8 b 8 8 8 8 8 8 8 8 8 8 8 8 7 7 7 7 _ ^ ^ ^ ^ ^ ^ ^ _ _ ; /         ",
"        @ @     a a a a @ 8 a } } } } } 8 8 8 8 b 8 8 8 8 b b 8 8 b 8 8 b 8 8 8 8 8 8 8 8 8 7 7 8 9 9 9 7 7 a a _ _ / >         ",
"        @ @ # # # # @ 4 3 8 7 8 8 8 8 8 8 b c c c c c b b b b b b b b b 8 b 8 8 b 8 8 8 8 8 8 8 8 8 8 7 8 7 7 7 a 9 8 5 3   @ @ ",
"        @ @ # # # # @ 4 7 7 8 8 8 8 8 c c c d d d d d c c c b b b b b b b b b b 8 b b 8 b b 8 8 8 8 8 8 8 7 8 7 8 7 7 8 8   @ @ ",
"    @ @     @ @ > > 5 8 8 7 8 8 8 8 8 e e d d d d d d d d d c b b b b b b b b b b 8 8 8 8 8 8 8 8 8 8 8 7 8 7 8 7 8 8 8 8   @ @ ",
"    @ @     @ @ > > 5 7 7 8 8 8 8 c e d d d d d f d d d d f d f c b b b b b b b b b b 8 b b b b 8 8 8 8 8 8 8 8 7 8 8 8 8   @ @ ",
"    @ @ @ @     @ @ 5 8 8 8 8 b b c d d d d f f d g g g g f f f c h b b h b b b b b b b 8 8 8 8 8 8 8 8 8 8 8 8 8 i 8 8 8   @ @ ",
"    @ @ @ @     j 4 8 8 8 8 b c c d d d d f d g k k k k k k g f l c h h b h b b b b b b b b b b 8 8 8 8 8 8 8 8 8 i 8 8 8 b @ @ ",
"        @ @     m n 8 8 8 8 b c c d d d d d g k k k k k k k g l l c b b h b h h b h b b b b b b b b 8 b 8 8 8 8 8 8 8 8 8 b     ",
"        @ @     o p 8 8 8 8 b c c d f g g g l k k k k k k k g f l c h h h h b b h b b b b b 8 8 b b 8 8 8 b 8 8 8 8 8 8 8 b     ",
"        @ @       q 8 8 8 b 8 r c s t u k k k k k k k k k k g l l c h h h b h h b h b b b b b b b b 8 b 8 8 8 8 8 8 8 b b b @ @ ",
"        @ @   8 8 8 8 8 ; _ v c w x y k k k k k k k k k k k g f l c h h h h h h b h b b b b b b 8 8 b 8 8 8 b 8 8 b b 8 8 b @ @ ",
"              8 { { { = = = = c d f k k k k k k k k k k k k g f l c h h h h h h h b b b b b b b ; - - - - - ^ ^ 8 8 8 8 8 b @ @ ",
"          z   8 { { { = = = = = ; f k k k k k k k k k k k A B s C D h h h h h h h h b h b b b E - = - - , , - - ; 8 8 b b b @ @ ",
"    @ @       8 { { { { ; = = { ; } } k k k k k k k k F A g G l c h h h h h h h h h h b b b b / = - - - , , - - ^ _ 8 b b b     ",
"    @ @       8 { { { { ; = = = | _ _ g g l k k k k k k k g f l c h h h h h h h h h h b b b b / - - = = - - - - ; _ 8 b b b     ",
"        @ @ @ 8 { { { { _ = = ; _ 0 0 d d g k k k k k k k g l l c b b h H h h h h h b h b b b 9 ^ = - - , , - - _ a 8 I b @ J J ",
"        @ @ @ 4 | | | { _ _ ; } a a a d f d g k k k k k k g f l c h h K h L h h h M b b b b b b _ ; - - ^ ^ ^ ^ a a N b b @     ",
"            @ @ = = { { { { { = ; a a d d f f d g g g g f f f c h b b h O P h h h b b h b b b b = - = = - - = = ; 0 b b b       ",
"            @ @ = = { { { { { = ; a a d d d d f d d d d f d f c b b b b b Q h h h h h b b b b b = - = = - - = = ; 0 b b b       ",
"@ @         @ @ - - = = { { | a 8 8 e e d d d d d d d d d c b b b b b b b R h h b h h b b b b b - - - - ; ; _ _ 8 b b 8         ",
"@ @         @ @ = = - = { | | 8 8 8 c c c d d d d d c c c b b b b b b b b R h h h b b b b b b S ~ , , , ; ; T U V 7 W 8         ",
"# # @ @         ; ; - - { | } 8 8 8 8 8 b c c c c c b b b b b b b b b 8 b X Y Z `  . ...+.......^ , - - _ _ @.#.8 8 4 4     @ @ ",
"# # @ @                 8 7 7 7 8 8 8 8 8 8 8 b 8 8 8 8 b b 8 8 b 8 8 b 8 8 8 8 8 8 8 8 8 7 7 8 8 8 7 7 7 7 7 7 5 5 @ @     @ @ ",
"> > # # @ @     @ @       3 7 7 7 8 8 8 8 8 8 8 8 8 8 8 8 8 b 8 8 8 8 8 8 8 8 8 8 8 8 7 7 7 7 7 7 7 7 8 7 7 7 3 @ @ @ @     @ @ ",
"> > # # @ @     @ @       3 7 7 7 8 8 8 8 8 8 8 8 8 8 8 8 8 b 8 8 8 8 X 8 8 8 8 8 $.8 7 7 7 7 7 7 7 7 8 7 7 7 3 @ @ @ @     @ @ ",
"@ @ > > > %.&.&.*.# # #     8 8 7 7 8 8 8 8 8 8 8 8 8 8 8 8 8 8 8 8 8 X 8 8 8 8 8 =.8 8 8 8 8 7 7 8 7 7 7 7 3   @ @         @ @ ",
"@ @ > > > > -.;.>.# *.*.    @ @ 4 8 8 8 8 8 8 8 8 8 8 8 8 8 8 8 8 8 8 8 8 8 8 8 8 8 7 7 7 7 7 7 7 7 7 7 7 4     @ @         @ @ ",
"> > > > @ @   ,.'.).# #           3 7 7 8 8 8 8 8 8 8 8 8 8 8 8 8 8 8 8 8 8 8 7 7 7 8 7 7 7 7 7 7 7 7 7 3   @ @             @ @ ",
"> > > > @ @     @ @ # #             3 3 7 8 8 8 8 8 8 8 8 8 8 8 7 8 8 7 7 8 8 8 8 8 7 7 7 7 7 7 7 3 3 3     @ @             @ @ ",
"@ @ > >             > > > >             4 8 7 7 8 8 7 7 8 7 8 7 8 7 7 8 7 7 7 7 8 7 7 7 7 7 7 3 3       @ @ @ @                 ",
"@ @ > >             > > > >             @ @ 4 4 3 3 3 3 7 7 7 7 7 7 7 7 7 7 7 8 7 3 5 5 5 5 3           @ @ @ @                 ",
"    > > @ @         @ @ @ @     @ @ @ @ @ @ @ @ > > > > 3 3 3 3 3 3 3 3 4 4 3 3 3   @ @ @ @     @ @ @ @ @ @ @ @ > > > >         ",
"    > > @ @         @ @ @ @     @ @ @ @ @ @ @ @ > > > >                 @ @         @ @ @ @     @ @ @ @ @ @ @ @ > > > >         ",
"> >     @ @ # # # # @ @         @ @ @ @ @ @ @ @ > > > >     @ @         @ @ # # # # @ @         @ @ @ @ @ @ @ @ > > > >     @ @ ",
"> >     @ @ # # # # @ @         @ @ @ @ @ @ @ @ > > > >     @ @         @ @ # # # # @ @         @ @ @ @ @ @ @ @ > > > >     @ @ ",
"> >         @ @ > > > > @ @     @ @ @ @                     @ @     @ @     @ @ > > > > @ @     @ @ @ @                     @ @ ",
"> >         @ @ > > > > @ @     @ @ @ @                     @ @     @ @     @ @ > > > > @ @     @ @ @ @                     @ @ ",
"@ @     @ @     @ @ > > @ @                 @ @     @ @     @ @     @ @ @ @     @ @ > > @ @                 @ @     @ @     @ @ ",
"@ @     @ @     @ @ > > @ @                 @ @     @ @     @ @     @ @ @ @     @ @ > > @ @                 @ @     @ @     @ @ ",
"        @ @         @ @ > >                 @ @                         @ @         @ @ > >                 @ @                 ",
"        @ @         @ @ > >                 @ @                         @ @         @ @ > >                 @ @                 ",
"        @ @             @ @                 @ @         @ @ @ @         @ @             @ @                 @ @         @ @ @ @ ",
"        @ @             @ @                 @ @         @ @ @ @         @ @             @ @                 @ @         @ @ !.~."};
