/* XPM */
static char * laser_start_t_xpm[] = {
"64 64 14 1",
" 	c #7B9200",
".	c #9CBBE0",
"+	c #A0C0F8",
"@	c #5088F8",
"#	c #EBF2FE",
"$	c #9EBFE4",
"%	c #8CB229",
"&	c #CEFB42",
"*	c #A3BFE0",
"=	c #A4C6E6",
"-	c #BDBA00",
";	c #99B7C9",
">	c #9CBDD1",
",	c #A5BFC9",
"            .++@@++@@++++@###############@++++@@++@@$%&&      %%",
"            .++@@++@@++++@###############@++++@@++@@$%&&      %%",
"  %%    %%%%*++@@++@@++++@###############@++++@@++@@=&--%%  %%  ",
"  %%    %%%$+++@@+++@++++@###############@++++@+#+@++=--%@  %%  ",
"    %%%%  %$##+@+#++@++++@###############@++++@+##@+#*   @  %%  ",
"    %%%%@ $+##+@+#+++++++@###############@++++++##@+#+. @@  %%  ",
"      %%@ $+##+@+#+++++++@###############+++++++##@+#+. @@      ",
"      %%@ $+##+@+#+++++++@###############+++++++##@+#+. @@      ",
"%%    %%@ .+###+###++++++@###############+++++++##++#+. @@%%    ",
"%%    %%@@++###+###+++++++###############+++++++##++#++@@@%%    ",
"&&%%    @@++###+###++#++++###############++++#++##+##++@@@%%  %%",
"&&%%    @@++###+###++#++++###############++++#++##+##++@@@%%  %%",
"--&&%%. @+++###+###++#++++###############++++#++##+##+++@@%%  %%",
"--&&%%. @+++###+###++#+++################++++#++##+##+++@@%%  %%",
"%%----. @+++###+###++#+++################++++#++##+##+++@@    %%",
"%%----..@++####+###++#+++################++++#++##+###++@@.   %%",
"  %%%%.+@++####+###++#+++################++++#++##+###++@@.   %%",
"  %%%%.+@++####+###++#++#################+#++#++##+###++@@.  @%%",
"      .++++####+###++#++###################++#++##+###+++@.  @  ",
"      .++++########++#+#####################+#++######+++@.  @  ",
"    @%.++++########++#########################++######+++@*-@@  ",
"    @%.++++########++#########################++######+++@*-@@  ",
"    @%&=++##########+#########################+########++@*-@@%%",
"    @%&=++##########+#########################+########++@*-@@%%",
"  $%@ %$++#############################################++++@@ %%",
"  $%@@%$+###############################################+++@@ %%",
"  $%@@ .+###############################################+++@@ %%",
"  $%@@ .+###############################################+++@@ %%",
"    @@ .+###############################################+++@@   ",
"   .@@@++###############################################+++@@ . ",
"   .@@@++###############################################+++@@%$%",
"   .@@@++###############################################+++@@%$%",
" @ ; @@++###############################################+++@ ;$@",
" @@  @@+#################################################++@ ;%@",
" @@%.@@+#################################################++@$$ @",
" @@%.@@+#################################################++@+$ @",
" @@ $@@+#################################################++@+$ @",
"  @@+@@@#################################################+@++@@ ",
"  @@++@@#################################################+@++@@ ",
"  @@++@@#################################################+@++@@ ",
"%% .@++@##################################################@+@@. ",
"%% @@++@##################################################@+@+@ ",
"&&$@@++@##################################################@@@+@%",
"&&%@++++##################################################+++@@%",
"--&=@+++##################################################++@@$%",
"--&&$+++##################################################+@+.%%",
"%%--*+++##################################################+@+.%%",
"%%--*+++##################################################+@+.%%",
"----$+++##################################################++. %%",
"---->+++##################################################++. %%",
"%%-@ .++##################################################+.  @ ",
"%%-@ .++##################################################+.  @ ",
"  -@%$++##################################################+,  @ ",
"  --@+++##################################################*-@@  ",
"--  @+++##################################################+@@ %%",
"--  %@++#################################################++@  %%",
"--   @++#################################################++@  %%",
"--    @@#################################################+@   %%",
"%%  %% @+###############################################++@%  %%",
"%%  %% @+###############################################++@%  %%",
"    %%  .###############################################+.      ",
"    %%  .###############################################+@      ",
"    %%  @+#############################################+@   %%%%",
"    %%   @+###########################################+@    %%%%"};
