/* XPM */
static char * laser_fight_x_xpm[] = {
"64 64 12 1",
" 	c #5088F8",
".	c #A0C0F8",
"+	c #EBF2FE",
"@	c #8CB229",
"#	c #7B9200",
"$	c #CEFB42",
"%	c #BDBA00",
"&	c #FFFFFF",
"*	c #F2EAF7",
"=	c #E1E7F3",
"-	c #E6EDF9",
";	c #EAF1FD",
"#..##### #####@@@@##@@$$######@@##############@@@@##@@$$ ###... ",
".   ..###  ###@@@@##@@$$######@@##############@@@@##@@$$ ##...  ",
" ..  ...@@@ %%@@####$$%%@@##@@####@@####@@@@%%@@####$$  @.... ..",
"  ..  ...@@ %%@@####$$%%@@##@@####@@####@@@@%%@@####$ ..........",
"....... ....  ####@@%%######@@######@@@@##@@%%####@@  ..........",
".............. ###@@%%######@@######@@@@##@@%%####@  ...........",
"  ............  @@$$@@##@@############.@##@@%%##  ...+++++++++++",
"+++++++++++++....  $@@##@@############.@##@@%%#  .++++++++++++++",
"+++++++++++++++...  ####%%@@#.##@@###.@@#.##% ..++++++++++++++++",
"++++++++++++++++++.  ###%%@@#.##@@###.@@###  .++++++++++++++++++",
"++++++++++++++++++++.. #%%.@##.@$$@@#.##.##  +++++++++++++++++++",
"++++++++++++++++++++++.  %@@##.@$$@@#.#.&  +++++++++++++++++++++",
"++++++++++++++++++++++++. @.##.@%%$$....& .+++++++++++++++++++++",
"+++++++++++++++++++++++++  &.#.@%%$$.... .++++++++++++++++++++++",
"+++++++++++++++++++++++++. &....@@%%.....+++++++++++++++++++++++",
"+++++++++++++++++++++++++++ ....@@%%.&. ++++++++++++++++++++++++",
"+++++++++++++++++++++++++++.....##@..&..++++++++++++++++++++++++",
"++++++++++++++++++++++++++++ .&.##@....+++++++++++++++++++++++++",
"+++++++++++++++++++++++++++++.&..##.. .+++++++++++++++++++++++++",
"+++++++++++++++++++++++++++++....##.&...++++++++++++++++++++++++",
"+++++++++++++++++++++++++++++. ..##..+..++++++++++++++++++++++++",
"+++++++++++++++++++++++++++++..&.##. ++.++++++++++++++++++++++++",
"++++++++++++++++++++++++++++..+..##. +++...+++++++++++++++++++++",
"++++++++++++++++++++++++++++.++ .## .+.*.+++++++++++++++++++++++",
"++++++++++++++++++++++++++...++. #@ +++..+++++++++++++++++++++++",
"+++++++++++++++++++++++++++.*.+. #@.++.+++++++++++++++++++++++++",
"+++++++++++++++++++++++++++..+++ #@+++.+++++++++++++++++++++++++",
"++++++++++++++++++++++++++++.*++=#.++++.++++++++++++++++++++++++",
"+++++++++++++++++++++++++++++.+++#.+++.+++++++++++++++++++++++++",
"++++++++++++++++++++++++++++.++++..++++.++++++++++++++++++++++++",
"++++++++++++++++++++++++++++++++-..+++++++++++++++++++++++++++++",
"++++++++++++++++++++++++++++.+++;..+++++++++++++++++++++++++++++",
"+++++++++++++++++++++++++++++++++..++++.++++++++++++++++++++++++",
"+++++++++++++++++++++++++++++++++..+++++++++++++++++++++++++++++",
"++++++++++++++++++++++++++++.++++..++++.++++++++++++++++++++++++",
"+++++++++++++++++++++++++++++.+++.@+++.+++++++++++++++++++++++++",
"++++++++++++++++++++++++++++.++++.#+++*.++++++++++++++++++++++++",
"+++++++++++++++++++++++++++++.+++## +++..+++++++++++++++++++++++",
"+++++++++++++++++++++++++++++.++.## .+.*.+++++++++++++++++++++++",
"+++++++++++++++++++++++++++..+++ ## .++...++++++++++++++++++++++",
"+++++++++++++++++++++++++++.*.+. @#. ++.++++++++++++++++++++++++",
"+++++++++++++++++++++++++...+++ .@#..+..++++++++++++++++++++++++",
"++++++++++++++++++++++++++++.++ .$@.&..+++++++++++++++++++++++++",
"++++++++++++++++++++++++++++..+..$@.. .+++++++++++++++++++++++++",
"++++++++++++++++++++++++++++...&.%$....+++++++++++++++++++++++++",
"+++++++++++++++++++++++++++++. ..%$..&.+++++++++++++++++++++++++",
"+++++++++++++++++++++++++++++....@%%.&. ++++++++++++++++++++++++",
"++++++++++++++++++++++++++++..&..@%%.....+++++++++++++++++++++++",
"++++++++++++++++++++++++++++ .&.##@@.... +++++++++++++++++++++++",
"+++++++++++++++++++++++++++.....##@@....& .+++++++++++++++++++++",
"++++++++++++++++++++++++++. ....#####.#.&  +++++++++++++++++++++",
"+++++++++++++++++++++++++. &....#####.##.# .++++++++++++++++++++",
"+++++++++++++++++++++++++  &.#.#####@.####@  .++++++++++++++++++",
"+++++++++++++++++++++++  %%.##.#####@.###.@@@ ..++++++++++++++++",
"++++++++++++++++++++++.  %%%##.@####@@.$$$@@###  .++++++++++++++",
"++++++++++++++++++++.. @%%.%##.@####@@.$$$@@####  ...+++++++++++",
"++++++++++++++++++.  ########.@@##@@##@@%%%%@@##@  ....+++++++++",
"+++++++++++++++...  #########.@@##@@##@@%%%%@@##@@@@  ..........",
"...............  #####@@##@@##@@##@@@@##@@%%@@####### ..........",
"  ............  ######@@##@@##@@##@@@@##@@%%@@########  .... ...",
".............. #######@@############@@####@@%%########@@ ##...  ",
".  ... ....@  ########@@############@@####@@%%########@@ ###... ",
"  ..  ...## @@########@@####@@@@####@@######@@########@@#  #@@..",
" ..  ...### @@########@@####@@@@####@@######@@########@@### @@@@"};
