/* XPM */
static char * laser_row_xpm[] = {
"64 64 6 1",
" 	c #7B9200",
".	c #8CB229",
"+	c #5088F8",
"@	c #EBF2FE",
"#	c #CEFB42",
"$	c #BDBA00",
"              ....  ++@@@@@@@@@@@@@@@@@@@@@++ ....  ..##      ..",
"              ....  ++@@@@@@@@@@@@@@@@@@@@@++ ....  ..##      ..",
"  ..    ....$$..    ++@@@@@@@@@@@@@@@@@@@@@++$..    ##$$..  ..  ",
"  ..    ....$$..    ++@@@@@@@@@@@@@@@@@@@@@++$..    ##$$..  ..  ",
"    ....  ..$$    ..++@@@@@@@@@@@@@@@@@@@@@++$    ..$$      ..  ",
"    ....  ..$$    ..++@@@@@@@@@@@@@@@@@@@@@++$    ..$$      ..  ",
"      ..  ..$$  ..##++@@@@@@@@@@@@@@@@@@@@@++$  ..##..  ..      ",
"      ..  ..$$  ..##++@@@@@@@@@@@@@@@@@@@@@++$  ..##..  ..      ",
"..    ..    $$$$####++@@@@@@@@@@@@@@@@@@@@@++$$$####    $$..    ",
"..    ..    $$$$####++@@@@@@@@@@@@@@@@@@@@@++$$$####    $$..    ",
"##..          $$$$  ++@@@@@@@@@@@@@@@@@@@@@++ $$$$  ..  $$..  ..",
"##..          $$$$  ++@@@@@@@@@@@@@@@@@@@@@++ $$$$  ..  $$..  ..",
"$$##..  ..    $$..  ++@@@@@@@@@@@@@@@@@@@@@++ $$..  ..  ....  ..",
"$$##..  ..    $$..  ++@@@@@@@@@@@@@@@@@@@@@++ $$..  ..  ....  ..",
"..$$$$  ####  ....  ++@@@@@@@@@@@@@@@@@@@@@++ ....  ..  ..    ..",
"..$$$$  ####  ....  ++@@@@@@@@@@@@@@@@@@@@@++ ....  ..  ..    ..",
"  ....  ..##        ++@@@@@@@@@@@@@@@@@@@@@++         ..      ..",
"  ....  ..##        ++@@@@@@@@@@@@@@@@@@@@@++         ..      ..",
"          $$$$      ++@@@@@@@@@@@@@@@@@@@@@++$      ....        ",
"          $$$$      ++@@@@@@@@@@@@@@@@@@@@@++$      ....        ",
"    ..    ....  ....++@@@@@@@@@@@@@@@@@@@@@++.  ........$$$$    ",
"    ..    ....  ....++@@@@@@@@@@@@@@@@@@@@@++.  ........$$$$    ",
"    ..####..    ....++@@@@@@@@@@@@@@@@@@@@@++   ........$$$$  ..",
"    ..####..    ....++@@@@@@@@@@@@@@@@@@@@@++   ........$$$$  ..",
"  ..  ..$$$$..  ....++@@@@@@@@@@@@@@@@@@@@@++.  ....          ..",
"  ..  ..$$$$..  ....++@@@@@@@@@@@@@@@@@@@@@++.  ....          ..",
"  ....  ..$$..      ++@@@@@@@@@@@@@@@@@@@@@++.        ..  ..  ..",
"  ....  ..$$..      ++@@@@@@@@@@@@@@@@@@@@@++.        ..  ..  ..",
"    ..    ..$$      ++@@@@@@@@@@@@@@@@@@@@@++$        ..        ",
"    ..    ..$$      ++@@@@@@@@@@@@@@@@@@@@@++$        ..        ",
"    ..      ..      ++@@@@@@@@@@@@@@@@@@@@@++.        ..    ....",
"    ..      ..      ++@@@@@@@@@@@@@@@@@@@@@++.        ..    ....",
"              ....  ++@@@@@@@@@@@@@@@@@@@@@++ ....  ..##      ..",
"              ....  ++@@@@@@@@@@@@@@@@@@@@@++ ....  ..##      ..",
"  ..    ....$$..    ++@@@@@@@@@@@@@@@@@@@@@++$..    ##$$..  ..  ",
"  ..    ....$$..    ++@@@@@@@@@@@@@@@@@@@@@++$..    ##$$..  ..  ",
"    ....  ..$$    ..++@@@@@@@@@@@@@@@@@@@@@++$    ..$$      ..  ",
"    ....  ..$$    ..++@@@@@@@@@@@@@@@@@@@@@++$    ..$$      ..  ",
"      ..  ..$$  ..##++@@@@@@@@@@@@@@@@@@@@@++$  ..##..  ..      ",
"      ..  ..$$  ..##++@@@@@@@@@@@@@@@@@@@@@++$  ..##..  ..      ",
"..    ..    $$$$####++@@@@@@@@@@@@@@@@@@@@@++$$$####    $$..    ",
"..    ..    $$$$####++@@@@@@@@@@@@@@@@@@@@@++$$$####    $$..    ",
"##..          $$$$  ++@@@@@@@@@@@@@@@@@@@@@++ $$$$  ..  $$..  ..",
"##..          $$$$  ++@@@@@@@@@@@@@@@@@@@@@++ $$$$  ..  $$..  ..",
"$$##..  ..    $$..  ++@@@@@@@@@@@@@@@@@@@@@++ $$..  ..  ....  ..",
"$$##..  ..    $$..  ++@@@@@@@@@@@@@@@@@@@@@++ $$..  ..  ....  ..",
"..$$$$  ####  ....  ++@@@@@@@@@@@@@@@@@@@@@++ ....  ..  ..    ..",
"..$$$$  ####  ....  ++@@@@@@@@@@@@@@@@@@@@@++ ....  ..  ..    ..",
"$$$$..  ..##        ++@@@@@@@@@@@@@@@@@@@@@++         ..      ..",
"$$$$..  ..##        ++@@@@@@@@@@@@@@@@@@@@@++         ..      ..",
"..$$      $$$$      ++@@@@@@@@@@@@@@@@@@@@@++$      ....        ",
"..$$      $$$$      ++@@@@@@@@@@@@@@@@@@@@@++$      ....        ",
"  $$..    ....  ....++@@@@@@@@@@@@@@@@@@@@@++.  ........$$$$    ",
"  $$..    ....  ....++@@@@@@@@@@@@@@@@@@@@@++.  ........$$$$    ",
"$$  ..####..    ....++@@@@@@@@@@@@@@@@@@@@@++   ........$$$$  ..",
"$$  ..####..    ....++@@@@@@@@@@@@@@@@@@@@@++   ........$$$$  ..",
"$$    ..$$$$..  ....++@@@@@@@@@@@@@@@@@@@@@++.  ....          ..",
"$$    ..$$$$..  ....++@@@@@@@@@@@@@@@@@@@@@++.  ....          ..",
"..  ..  ..$$..      ++@@@@@@@@@@@@@@@@@@@@@++.        ..  ..  ..",
"..  ..  ..$$..      ++@@@@@@@@@@@@@@@@@@@@@++.        ..  ..  ..",
"    ..    ..$$      ++@@@@@@@@@@@@@@@@@@@@@++$        ..        ",
"    ..    ..$$      ++@@@@@@@@@@@@@@@@@@@@@++$        ..        ",
"    ..      ..      ++@@@@@@@@@@@@@@@@@@@@@++.        ..    ....",
"    ..      ..      ++@@@@@@@@@@@@@@@@@@@@@++.        ..    ...."};
