/* XPM */
static char * life_green_xpm[] = {
"64 64 6 1",
" 	c #7B9200",
".	c #8CB229",
"+	c #CEFB42",
"@	c #BDBA00",
"#	c #000000",
"$	c #00FF00",
"              ....  ..++      ..              ....  ..++      ..",
"              ....  ..++      ..              ....  ..++      ..",
"  ..    ....@@..    ++@@..  ..    ..    ....@@..    ++@@..  ..  ",
"  ..    ....@@..    ++@@..  ..    ..    ....@@..    ++@@..  ..  ",
"    ....  ..@@    ..@@      ..      ....  ..@@    ..@@      ..  ",
"    ....  ..@@    ..@@      ..      ....  ..@@    ..@@      ..  ",
"      ..  ..@@  ..++..  ..            ..  ..@@  ..++..  ..      ",
"      ..  ..@@  ..++..  ..            ..  ..@@  ..++..  ..      ",
"..    ..    @@@@++++    @@..    ..    ..    @@@@++++    @@..    ",
"..    ..    @@@@++++    @@..    ..    ..    @@@@++++    @@..    ",
"++..          @@@@  ..  @@..  ..++..          @@@@  ..  @@..  ..",
"++..          @@@@  ..  @@..  ..++..          @@@@  ..  @@..  ..",
"@@++..  ..    @@..  ..  ....  ..@@++..  ..    @@..  ..  ....  ..",
"@@++..  ..    @@..  ..  ....  ..@@++..  ..    @@..  ..  ....  ..",
"################################################################",
"################################################################",
"################################################################",
"################################################################",
"$$$$$$$$$$$$$$$$$$$$$$$$$$$$$$$$$$$$$$$$$$$$$$$$$$$$$$$$$$$$$$$$",
"$$$$$$$$$$$$$$$$$$$$$$$$$$$$$$$$$$$$$$$$$$$$$$$$$$$$$$$$$$$$$$$$",
"$$$$$$$$$$$$$$$$$$$$$$$$$$$$$$$$$$$$$$$$$$$$$$$$$$$$$$$$$$$$$$$$",
"$$$$$$$$$$$$$$$$$$$$$$$$$$$$$$$$$$$$$$$$$$$$$$$$$$$$$$$$$$$$$$$$",
"$$$$$$$$$$$$$$$$$$$$$$$$$$$$$$$$$$$$$$$$$$$$$$$$$$$$$$$$$$$$$$$$",
"$$$$$$$$$$$$$$$$$$$$$$$$$$$$$$$$$$$$$$$$$$$$$$$$$$$$$$$$$$$$$$$$",
"$$$$$$$$$$$$$$$$$$$$$$$$$$$$$$$$$$$$$$$$$$$$$$$$$$$$$$$$$$$$$$$$",
"$$$$$$$$$$$$$$$$$$$$$$$$$$$$$$$$$$$$$$$$$$$$$$$$$$$$$$$$$$$$$$$$",
"$$$$$$$$$$$$$$$$$$$$$$$$$$$$$$$$$$$$$$$$$$$$$$$$$$$$$$$$$$$$$$$$",
"$$$$$$$$$$$$$$$$$$$$$$$$$$$$$$$$$$$$$$$$$$$$$$$$$$$$$$$$$$$$$$$$",
"$$$$$$$$$$$$$$$$$$$$$$$$$$$$$$$$$$$$$$$$$$$$$$$$$$$$$$$$$$$$$$$$",
"$$$$$$$$$$$$$$$$$$$$$$$$$$$$$$$$$$$$$$$$$$$$$$$$$$$$$$$$$$$$$$$$",
"$$$$$$$$$$$$$$$$$$$$$$$$$$$$$$$$$$$$$$$$$$$$$$$$$$$$$$$$$$$$$$$$",
"$$$$$$$$$$$$$$$$$$$$$$$$$$$$$$$$$$$$$$$$$$$$$$$$$$$$$$$$$$$$$$$$",
"$$$$$$$$$$$$$$$$$$$$$$$$$$$$$$$$$$$$$$$$$$$$$$$$$$$$$$$$$$$$$$$$",
"$$$$$$$$$$$$$$$$$$$$$$$$$$$$$$$$$$$$$$$$$$$$$$$$$$$$$$$$$$$$$$$$",
"$$$$$$$$$$$$$$$$$$$$$$$$$$$$$$$$$$$$$$$$$$$$$$$$$$$$$$$$$$$$$$$$",
"$$$$$$$$$$$$$$$$$$$$$$$$$$$$$$$$$$$$$$$$$$$$$$$$$$$$$$$$$$$$$$$$",
"$$$$$$$$$$$$$$$$$$$$$$$$$$$$$$$$$$$$$$$$$$$$$$$$$$$$$$$$$$$$$$$$",
"$$$$$$$$$$$$$$$$$$$$$$$$$$$$$$$$$$$$$$$$$$$$$$$$$$$$$$$$$$$$$$$$",
"$$$$$$$$$$$$$$$$$$$$$$$$$$$$$$$$$$$$$$$$$$$$$$$$$$$$$$$$$$$$$$$$",
"$$$$$$$$$$$$$$$$$$$$$$$$$$$$$$$$$$$$$$$$$$$$$$$$$$$$$$$$$$$$$$$$",
"$$$$$$$$$$$$$$$$$$$$$$$$$$$$$$$$$$$$$$$$$$$$$$$$$$$$$$$$$$$$$$$$",
"$$$$$$$$$$$$$$$$$$$$$$$$$$$$$$$$$$$$$$$$$$$$$$$$$$$$$$$$$$$$$$$$",
"################################################################",
"################################################################",
"################################################################",
"################################################################",
"..@@@@  ++++  ....  ..  ..    ....@@@@  ++++  ....  ..  ..    ..",
"..@@@@  ++++  ....  ..  ..    ....@@@@  ++++  ....  ..  ..    ..",
"@@@@..  ..++          ..      ..  ....  ..++          ..      ..",
"@@@@..  ..++          ..      ..  ....  ..++          ..      ..",
"..@@      @@@@      ....                  @@@@      ....        ",
"..@@      @@@@      ....                  @@@@      ....        ",
"  @@..    ....  ........@@@@        ..    ....  ........@@@@    ",
"  @@..    ....  ........@@@@        ..    ....  ........@@@@    ",
"@@  ..++++..    ........@@@@  ..    ..++++..    ........@@@@  ..",
"@@  ..++++..    ........@@@@  ..    ..++++..    ........@@@@  ..",
"@@    ..@@@@..  ....          ..  ..  ..@@@@..  ....          ..",
"@@    ..@@@@..  ....          ..  ..  ..@@@@..  ....          ..",
"..  ..  ..@@..        ..  ..  ..  ....  ..@@..        ..  ..  ..",
"..  ..  ..@@..        ..  ..  ..  ....  ..@@..        ..  ..  ..",
"    ..    ..@@        ..            ..    ..@@        ..        ",
"    ..    ..@@        ..            ..    ..@@        ..        ",
"    ..      ..        ..    ....    ..      ..        ..    ....",
"    ..      ..        ..    ....    ..      ..        ..    ...."};
