/* XPM */
static char * nb_nine_xpm[] = {
"64 64 16 1",
" 	c #7B9200",
".	c #8CB229",
"+	c #CEFB42",
"@	c #BDBA00",
"#	c #000000",
"$	c #484848",
"%	c #010101",
"&	c #1A1A1A",
"*	c #DDDDDD",
"=	c #020202",
"-	c #636363",
";	c #CDCDCD",
">	c #4C4C4C",
",	c #191919",
"'	c #030303",
")	c #D7D7D7",
"              ....  ..++      ..              ....  ..++      ..",
"              ....  ..++      ..              ....  ..++      ..",
"  ..    ....@@..    ++@@..  ..    ..    ....@@..    ++@@..  ..  ",
"  ..    ....@@..    ++@@..  ..    ..    ....@@..    ++@@..  ..  ",
"    ....  ..@@    ..@@      ..      ....  ..@@    ..@@      ..  ",
"    ....  ..@@    ..@@      ..      ....  ..@@    ..@@      ..  ",
"      ..  ..@@  ..++..  ..            ..  ..@@  ..++..  ..      ",
"      ..  ..@@  ..++..  ..            ..  ..@@  ..++..  ..      ",
"..    ..    @@@@++++    @@..    ..    ..    @@@@++++    @@..    ",
"..    ..    @@@@++++    @@..    ..    ..    @@@@++++    @@..    ",
"++..          @@@@  ..  @@..  ..++..          @@@@  ..  @@..  ..",
"++..          @@@@  ..  @@..#######.          @@@@  ..  @@..  ..",
"@@++..  ..    @@..  ..  ..##########%.  ..    @@..  ..  ....  ..",
"@@++..  ..    @@..  ..  .#############  ..    @@..  ..  ....  ..",
"..@@@@  ++++  ....  ..  ############### ++++  ....  ..  ..    ..",
"..@@@@  ++++  ....  .. #################++++  ....  ..  ..    ..",
"  ....  ..++          .#################..++          ..      ..",
"  ....  ..++          ###################.++          ..      ..",
"          @@@@      ..################### @@@@      ....        ",
"          @@@@      .#################### @@@@      ....        ",
"    ..    ....  .....#########   #########....  ........@@@@    ",
"    ..    ....  .....########,   %########....  ........@@@@    ",
"    ..++++..    .....######## ..  ########..    ........@@@@  ..",
"    ..++++..    .....######## ..  ########..    ........@@@@  ..",
"  ..  ..@@@@..  ....*######## ..  ########'@..  ....          ..",
"  ..  ..@@@@..  ....,######## ..  #########@..  ....          ..",
"  ....  ..@@..      &######## ..  #########@..        ..  ..  ..",
"  ....  ..@@..       ######## ..  #########@..        ..  ..  ..",
"    ..    ..@@       ########;   '#########.@@        ..        ",
"    ..    ..@@       #########   ##########.@@        ..        ",
"    ..      ..       ###################### ..        ..    ....",
"    ..      ..       ###################### ..        ..    ....",
"              ....  ..#####################   ....  ..++      ..",
"              ....  ..#####################   ....  ..++      ..",
"  ..    ....@@..    ++#####################.@@..    ++@@..  ..  ",
"  ..    ....@@..    ++@####################.@@..    ++@@..  ..  ",
"    ....  ..@@    ..@@  ######### #########.@@    ..@@      ..  ",
"    ....  ..@@    ..@@   #######  ########..@@    ..@@      ..  ",
"      ..  ..@@  ..++..  ..  #&    ########..@@  ..++..  ..      ",
"      ..  ..@@  ..++..  ..        ########..@@  ..++..  ..      ",
"..    ..    @@@@++++    @@..    ..########  @@@@++++    @@..    ",
"..    ..    @@@@++++    @@..    .########%  @@@@++++    @@..    ",
"++..          @@@@  ..  @@..  ..=########     @@@@  ..  @@..  ..",
"++..          @@@@  ..##@@..  .##########     @@@@  ..  @@..  ..",
"@@++..  ..    @@..  ..#####->############.    @@..  ..  ....  ..",
"@@++..  ..    @@..  ..##################..    @@..  ..  ....  ..",
"..@@@@  ++++  ....  ..#################%++++  ....  ..  ..    ..",
"..@@@@  ++++  ....  ..################# ++++  ....  ..  ..    ..",
"@@@@..  ..++          ################; ..++          ..      ..",
"@@@@..  ..++          ################  ..++          ..      ..",
"..@@      @@@@      ..###############     @@@@      ....        ",
"..@@      @@@@      ..##############      @@@@      ....        ",
"  @@..    ....  .......;##########  ..    ....  ........@@@@    ",
"  @@..    ....  ........@@@@$&      ..    ....  ........@@@@    ",
"@@  ..++++..    ........@@@@  ..    ..++++..    ........@@@@  ..",
"@@  ..++++..    ........@@@@  ..    ..++++..    ........@@@@  ..",
"@@    ..@@@@..  ....          ..  ..  ..@@@@..  ....          ..",
"@@    ..@@@@..  ....          ..  ..  ..@@@@..  ....          ..",
"..  ..  ..@@..        ..  ..  ..  ....  ..@@..        ..  ..  ..",
"..  ..  ..@@..        ..  ..  ..  ....  ..@@..        ..  ..  ..",
"    ..    ..@@        ..            ..    ..@@        ..        ",
"    ..    ..@@        ..            ..    ..@@        ..        ",
"    ..      ..        ..    ....    ..      ..        ..    ....",
"    ..      ..        ..    ....    ..      ..        ..    ...."};
