/* XPM */
static char * collectible_xpm[] = {
"64 64 159 2",
"  	c #7B9200",
". 	c #8CB229",
"+ 	c #CEFB42",
"@ 	c #BDBA00",
"# 	c #000000",
"$ 	c #000001",
"% 	c #000100",
"& 	c #FEBD36",
"* 	c #FFC13C",
"= 	c #FFC13E",
"- 	c #000002",
"; 	c #698036",
"> 	c #150E15",
", 	c #010101",
"' 	c #000101",
") 	c #FFBF3A",
"! 	c #FDC13C",
"~ 	c #FFBF3E",
"{ 	c #FFBE5F",
"] 	c #C02D35",
"^ 	c #FFC043",
"/ 	c #FFC241",
"( 	c #FEC23E",
"_ 	c #FFC243",
": 	c #020202",
"< 	c #000500",
"[ 	c #FDC13A",
"} 	c #FFBB55",
"| 	c #BE2E33",
"1 	c #C02B3B",
"2 	c #FFC23D",
"3 	c #0F0E14",
"4 	c #7FA12C",
"5 	c #FFC852",
"6 	c #FFC13A",
"7 	c #FFC143",
"8 	c #FFC23F",
"9 	c #FFFBFF",
"0 	c #FDFFFF",
"a 	c #FFF8DA",
"b 	c #FDC33A",
"c 	c #FFC140",
"d 	c #FFC042",
"e 	c #FFC341",
"f 	c #FFC542",
"g 	c #FF7E3C",
"h 	c #FF7C3C",
"i 	c #F68854",
"j 	c #FBC14A",
"k 	c #FFFFFF",
"l 	c #FFFBDF",
"m 	c #FF7C3E",
"n 	c #F28147",
"o 	c #101010",
"p 	c #10110C",
"q 	c #FEC854",
"r 	c #FFC546",
"s 	c #FFC93C",
"t 	c #FFF8D9",
"u 	c #FFF9D7",
"v 	c #F9CF62",
"w 	c #FFCD68",
"x 	c #FFCF76",
"y 	c #CF5747",
"z 	c #CF5843",
"A 	c #FFC44A",
"B 	c #CA5934",
"C 	c #CB5244",
"D 	c #CF5044",
"E 	c #FFC749",
"F 	c #FFC646",
"G 	c #FF8549",
"H 	c #F5864E",
"I 	c #111111",
"J 	c #F7C247",
"K 	c #FFC23A",
"L 	c #FFC230",
"M 	c #FFFEFF",
"N 	c #FFC232",
"O 	c #FFBC59",
"P 	c #BE2D37",
"Q 	c #FFC03E",
"R 	c #BF3232",
"S 	c #BE2E31",
"T 	c #BE2C3F",
"U 	c #FEC23C",
"V 	c #FF7D3E",
"W 	c #F6844D",
"X 	c #F9C253",
"Y 	c #FEC144",
"Z 	c #FFC33A",
"` 	c #FDFFFD",
" .	c #FFCB3C",
"..	c #FFC246",
"+.	c #FFC64D",
"@.	c #F7AC46",
"#.	c #F7AB4A",
"$.	c #FFC64F",
"%.	c #FFC84D",
"&.	c #DE724D",
"*.	c #DC6E51",
"=.	c #FFCB53",
"-.	c #FFCA50",
";.	c #FF8F55",
">.	c #FF9761",
",.	c #222222",
"'.	c #232323",
").	c #F8C348",
"!.	c #F6844B",
"~.	c #262626",
"{.	c #262722",
"].	c #FFCC5F",
"^.	c #FFC94D",
"/.	c #FFCC45",
"(.	c #FFF0D4",
"_.	c #FFF1D0",
":.	c #F6A654",
"<.	c #F3A850",
"[.	c #ECA643",
"}.	c #FFCA52",
"|.	c #FFCB50",
"1.	c #FFCB52",
"2.	c #FF8F56",
"3.	c #FF9056",
"4.	c #FF965E",
"5.	c #212121",
"6.	c #2A2A2A",
"7.	c #BF2937",
"8.	c #BE2D35",
"9.	c #B03D00",
"0.	c #F7854C",
"a.	c #F8C056",
"b.	c #F9BE3E",
"c.	c #FDC240",
"d.	c #FFC14A",
"e.	c #FFC348",
"f.	c #BB3444",
"g.	c #B6333B",
"h.	c #A44007",
"i.	c #FEC048",
"j.	c #FFC24A",
"k.	c #FFC248",
"l.	c #FFC147",
"m.	c #FB8144",
"n.	c #EF8D56",
"o.	c #000400",
"p.	c #FF7D3C",
"q.	c #FF7E3E",
"r.	c #000402",
"s.	c #FD7E40",
"t.	c #FD7E42",
"u.	c #FF7D40",
"v.	c #030003",
"w.	c #462A1F",
"x.	c #203610",
"y.	c #030100",
"z.	c #7EA12C",
"A.	c #160D12",
"B.	c #0A1300",
"                            . . . .     . . + +             . .                             . . . .     . . + +             . . ",
"                            . . . .     . . + +             . .                             . . . .     . . + +             . . ",
"    . .         . . . . @ @ . .         + + @ @ . .     . .         . .         . . . . @ @ . .         + + @ @ . .     . .     ",
"    . .         . . . . @ @ . .         + + @ @ . .     . .         . .         . . . . @ @ . .         + + @ @ . .     . .     ",
"        . . . .     . . @ @         . . @ @             . .             . . . .     . . @ @         . . @ @             . .     ",
"        . . . .     . . @ @         . . @ @             . .             . . . .     . . @ @         . . @ @             . .     ",
"            . .     . . @ @     . . + + . .     . .                         . .     . . @ @     . . + + . .     . .             ",
"            . .     . . @ @     . . + + . .     . .                         . .     . . @ @     . . + + . .     . .             ",
". .         . .         @ @ @ @ + + + +         @ @ . .         . .         . .         @ @ @ @ + + + +         @ @ . .         ",
". .         . .         @ @ @ @ + + + +         @ @ . .         . .         . .         @ @ @ @ + + + +         @ @ . .         ",
"+ + . .                     @ @ @ @     . .     @ @ . .     . . + + . .                     @ @ @ @     . .     @ @ . .     . . ",
"+ + . .                     @ @ @ @     . .     @ @ . .     . . + + . .                     @ @ @ @     . .     @ @ . .     . . ",
"@ @ + + . .     . .         @ @ . .     . .     . . . .     . . @ @ + + . .     . .         @ @ . .     . .     . . . .     . . ",
"@ @ + + . .     . .         @ @ . .     . .     . . . .     . . @ @ + + . .     . .         @ @ . .     . .     . . . .     . . ",
". . @ @ @ @     + + + +     . . . .     . .     . .         . . . . @ @ @ @     + + + +     . . . .     . .     . .         . . ",
". . @ @ @ @     + + + +     . . . .     . .     . .         . . . . @ @ @ @     + + + +     . . . .     . .     . .         . . ",
"    . . . .     . . + +                     . .             . .     . . . .     . . + +                     . .             . . ",
"    . . . .     . . + +                     . .             . .     . . . .     . . + +                     . .             . . ",
"                    @ @ @ @             . . . .                                     @ @ @ @             . . . .                 ",
"                    @ @ @ @             . . . .                                     @ @ @ @             . . . .                 ",
"        . .         . . . .     . . . . . . . . @ @ @ @                 . .         . . . .     . . . . . . . . @ @ @ @         ",
"        . .         . . . .     . . . . . . . . @ @ @ @                 . .         . . . .     . . . . . . . . @ @ @ @         ",
"        . . + + + + . .         . . . . . . . . @ @ @ @     . .         . . + + + + . .         . . . . . . . . @ @ @ @     . . ",
"        . . + + + + . .         . . . . . . . . @ @ @ # # # # # # # # # # . + + + + . .         . . . . . . . . @ @ @ @     . . ",
"    . .     . . @ @ @ @ . .     . . . .               $ # # # # # # # # #   . . @ @ @ @ . .     . . . .                     . . ",
"    . .     . . @ @ @ @ . .     . . . .           # % & * * = * * * * * * - # ; @ @ @ @ . .     . . . .                     . . ",
"    . . . .     . . @ @ . .                 . .   # # & * * * * * * * * * # # > . . @ @ . .                 . .     . .     . . ",
"    . . . .     . . @ @ . .                 # , ' ) ) ! ~ { ] ] ^ / ( ( ( * _ % # : @ @ . .                 . .     . .     . . ",
"        . .         . . @ @                 # , < [ [ * * } | 1 ( * * * * * 2 % # : 3 4 @ @                 . .                 ",
"        . .         . . @ @             , , 5 6 ! 7 8 9 0 a b b c d e e e e f g h i # # @ @                 . .                 ",
"        . .             . .             # # j * * 2 / k k l * * * * * * * * = m g n # # . .                 . .         . . . . ",
"        . .             . .             o p q r s t u v w x y z A r B C D E F G G H I o . .                 . .         . . . . ",
"                            . . . .     # # J K L M k N * O P 1 Q K R S T ! U V g W # #     . . . .     . . + +             . . ",
"                            . . . .     o p X Y Z ` 0  ...+.@.#.$.%.&.*.*.=.-.;.;.>.,.'.    . . . .     . . + +             . . ",
"    . .         . . . . @ @ . .         # # ).* L k k L * * * * * * * * * * = m V !.# # @ @ . .         + + @ @ . .     . .     ",
"    . .         . . . . @ @ . .         ~.{.].^./.(._.:.<.[.-.}.}.}.|.}.}.}.1.2.3.4.5.6.@ @ . .         + + @ @ . .     . .     ",
"        . . . .     . . @ @         . . # # J K * K * 7.8.9.U * * * * * * * = V V 0., # @ @         . . @ @             . .     ",
"        . . . .     . . @ @         . . : : a.b.c.d.e.f.g.h.d.i.i.j.i.j.k.l.l.m.m.n., # @ @         . . @ @             . .     ",
"            . .     . . @ @     . . + + . . : # o.K * K * = * * * * * * * p.q.- % , . . @ @     . . + + . .     . .             ",
"            . .     . . @ @     . . + + . . : # r.= = Q = = = = = = = = = s.t.- # # . . @ @     . . + + . .     . .             ",
". .         . .         @ @ @ @ + + + +         @ # # u.V V V V V V V m p.v.# w.x.      @ @ @ @ + + + +         @ @ . .         ",
". .         . .         @ @ @ @ + + + +         @ # % m V V V V V V V V V y.# z.        @ @ @ @ + + + +         @ @ . .         ",
"+ + . .                     @ @ @ @     . .     @ @ . , # # # # # # # # # A.B.              @ @ @ @     . .     @ @ . .     . . ",
"+ + . .                     @ @ @ @     . .     @ @ . # # # # # # # # # #                   @ @ @ @     . .     @ @ . .     . . ",
"@ @ + + . .     . .         @ @ . .     . .     . . . .     . . @ @ + + . .     . .         @ @ . .     . .     . . . .     . . ",
"@ @ + + . .     . .         @ @ . .     . .     . . . .     . . @ @ + + . .     . .         @ @ . .     . .     . . . .     . . ",
". . @ @ @ @     + + + +     . . . .     . .     . .         . . . . @ @ @ @     + + + +     . . . .     . .     . .         . . ",
". . @ @ @ @     + + + +     . . . .     . .     . .         . . . . @ @ @ @     + + + +     . . . .     . .     . .         . . ",
"@ @ @ @ . .     . . + +                     . .             . .     . . . .     . . + +                     . .             . . ",
"@ @ @ @ . .     . . + +                     . .             . .     . . . .     . . + +                     . .             . . ",
". . @ @             @ @ @ @             . . . .                                     @ @ @ @             . . . .                 ",
". . @ @             @ @ @ @             . . . .                                     @ @ @ @             . . . .                 ",
"    @ @ . .         . . . .     . . . . . . . . @ @ @ @                 . .         . . . .     . . . . . . . . @ @ @ @         ",
"    @ @ . .         . . . .     . . . . . . . . @ @ @ @                 . .         . . . .     . . . . . . . . @ @ @ @         ",
"@ @     . . + + + + . .         . . . . . . . . @ @ @ @     . .         . . + + + + . .         . . . . . . . . @ @ @ @     . . ",
"@ @     . . + + + + . .         . . . . . . . . @ @ @ @     . .         . . + + + + . .         . . . . . . . . @ @ @ @     . . ",
"@ @         . . @ @ @ @ . .     . . . .                     . .     . .     . . @ @ @ @ . .     . . . .                     . . ",
"@ @         . . @ @ @ @ . .     . . . .                     . .     . .     . . @ @ @ @ . .     . . . .                     . . ",
". .     . .     . . @ @ . .                 . .     . .     . .     . . . .     . . @ @ . .                 . .     . .     . . ",
". .     . .     . . @ @ . .                 . .     . .     . .     . . . .     . . @ @ . .                 . .     . .     . . ",
"        . .         . . @ @                 . .                         . .         . . @ @                 . .                 ",
"        . .         . . @ @                 . .                         . .         . . @ @                 . .                 ",
"        . .             . .                 . .         . . . .         . .             . .                 . .         . . . . ",
"        . .             . .                 . .         . . . .         . .             . .                 . .         . . . . "};
