/* XPM */
static char * pl_dead_l_exit_xpm[] = {
"64 64 683 2",
"  	c #7B9200",
". 	c #8CB229",
"+ 	c #CEFB42",
"@ 	c #7A8E01",
"# 	c #BDBA00",
"$ 	c #6A7C08",
"% 	c #1C0304",
"& 	c #627314",
"* 	c #7C9301",
"= 	c #7B824F",
"- 	c #818D5D",
"; 	c #93904F",
"> 	c #99A866",
", 	c #414301",
"' 	c #404509",
") 	c #5D6E15",
"! 	c #140501",
"~ 	c #090301",
"{ 	c #1E1305",
"] 	c #463F0F",
"^ 	c #7B797B",
"/ 	c #9C9A9C",
"( 	c #280500",
"_ 	c #190000",
": 	c #140000",
"< 	c #0E0005",
"[ 	c #07000C",
"} 	c #020202",
"| 	c #040202",
"1 	c #040200",
"2 	c #0E0300",
"3 	c #150A05",
"4 	c #060405",
"5 	c #000600",
"6 	c #000506",
"7 	c #000306",
"8 	c #0B0201",
"9 	c #220F08",
"0 	c #140808",
"a 	c #080101",
"b 	c #070203",
"c 	c #060004",
"d 	c #030306",
"e 	c #020300",
"f 	c #010400",
"g 	c #030303",
"h 	c #050301",
"i 	c #0C0503",
"j 	c #050303",
"k 	c #040104",
"l 	c #030100",
"m 	c #060100",
"n 	c #110804",
"o 	c #31150A",
"p 	c #7A9001",
"q 	c #130100",
"r 	c #080305",
"s 	c #010101",
"t 	c #010200",
"u 	c #070201",
"v 	c #130000",
"w 	c #798F01",
"x 	c #361F07",
"y 	c #170706",
"z 	c #0C0306",
"A 	c #000000",
"B 	c #070506",
"C 	c #090109",
"D 	c #828E5E",
"E 	c #7B9106",
"F 	c #462720",
"G 	c #412417",
"H 	c #362323",
"I 	c #070106",
"J 	c #030001",
"K 	c #040001",
"L 	c #090000",
"M 	c #8A8B79",
"N 	c #7B8639",
"O 	c #0D0103",
"P 	c #0B0001",
"Q 	c #0A0000",
"R 	c #050000",
"S 	c #929091",
"T 	c #BDBABD",
"U 	c #4D3730",
"V 	c #0A0101",
"W 	c #020204",
"X 	c #060102",
"Y 	c #070000",
"Z 	c #939093",
"` 	c #83816B",
" .	c #170200",
"..	c #020004",
"+.	c #020206",
"@.	c #04000E",
"#.	c #08000A",
"$.	c #130C03",
"%.	c #190B02",
"&.	c #1B0800",
"*.	c #100607",
"=.	c #090002",
"-.	c #000301",
";.	c #060001",
">.	c #0E0100",
",.	c #030003",
"'.	c #070002",
").	c #170202",
"!.	c #765945",
"~.	c #7F5531",
"{.	c #7A4E29",
"].	c #68472E",
"^.	c #160000",
"/.	c #080303",
"(.	c #0B0003",
"_.	c #160500",
":.	c #2D0C00",
"<.	c #050501",
"[.	c #040106",
"}.	c #1C1611",
"|.	c #543A35",
"1.	c #C39B84",
"2.	c #CA9D71",
"3.	c #9A6A3D",
"4.	c #88633E",
"5.	c #553B24",
"6.	c #080600",
"7.	c #020403",
"8.	c #050300",
"9.	c #010103",
"0.	c #000203",
"a.	c #120A04",
"b.	c #090004",
"c.	c #282018",
"d.	c #6C5549",
"e.	c #E9C1AC",
"f.	c #EEBB94",
"g.	c #9F6E3C",
"h.	c #996C3E",
"i.	c #725327",
"j.	c #160600",
"k.	c #0F0305",
"l.	c #0F0200",
"m.	c #1D0D09",
"n.	c #8AAA35",
"o.	c #2B0A02",
"p.	c #000404",
"q.	c #7C6D67",
"r.	c #867667",
"s.	c #150204",
"t.	c #030000",
"u.	c #260C05",
"v.	c #784F41",
"w.	c #8D5B33",
"x.	c #EAB988",
"y.	c #D9A77B",
"z.	c #7A522B",
"A.	c #1D0100",
"B.	c #260B09",
"C.	c #DEDBDE",
"D.	c #7D920A",
"E.	c #9C9A9B",
"F.	c #100000",
"G.	c #000504",
"H.	c #847263",
"I.	c #8F7B5F",
"J.	c #1D0500",
"K.	c #170802",
"L.	c #1F0000",
"M.	c #7C4F41",
"N.	c #895630",
"O.	c #F5C494",
"P.	c #D8A97E",
"Q.	c #774D29",
"R.	c #2C0500",
"S.	c #2F0400",
"T.	c #7C9205",
"U.	c #9C9D90",
"V.	c #0B0000",
"W.	c #604931",
"X.	c #6D512D",
"Y.	c #8F735D",
"Z.	c #A58B78",
"`.	c #E0B8A1",
" +	c #D19C80",
".+	c #D5A37D",
"++	c #FF79CE",
"@+	c #FF79B5",
"#+	c #7B4C1D",
"$+	c #683414",
"%+	c #682E0B",
"&+	c #733307",
"*+	c #723000",
"=+	c #743401",
"-+	c #AAA8AA",
";+	c #0A0003",
">+	c #050208",
",+	c #100801",
"'+	c #140904",
")+	c #130500",
"!+	c #634836",
"~+	c #6C4E34",
"{+	c #927556",
"]+	c #B19483",
"^+	c #EDC1AB",
"/+	c #DAA38B",
"(+	c #FF59AD",
"_+	c #6F2E0B",
":+	c #7F3415",
"<+	c #7A2C04",
"[+	c #7D3301",
"}+	c #793101",
"|+	c #080200",
"1+	c #050206",
"2+	c #070006",
"3+	c #010208",
"4+	c #0C0600",
"5+	c #83725A",
"6+	c #887459",
"7+	c #6A4E38",
"8+	c #240E06",
"9+	c #100100",
"0+	c #FDEED8",
"a+	c #F4DBCB",
"b+	c #E9BEAF",
"c+	c #E6B199",
"d+	c #E7B48F",
"e+	c #775604",
"f+	c #7A2800",
"g+	c #A24F1B",
"h+	c #9F4E13",
"i+	c #A5531B",
"j+	c #7B2800",
"k+	c #823003",
"l+	c #0D0200",
"m+	c #94466B",
"n+	c #7B0039",
"o+	c #FF5D8C",
"p+	c #06030B",
"q+	c #0F0A02",
"r+	c #8D7765",
"s+	c #8A6D57",
"t+	c #7E5C3F",
"u+	c #261300",
"v+	c #211404",
"w+	c #DFD1C6",
"x+	c #E7D2C7",
"y+	c #EEC9BD",
"z+	c #E7B6A2",
"A+	c #E2AF8A",
"B+	c #7E451A",
"C+	c #8C3100",
"D+	c #AE4F11",
"E+	c #AF520B",
"F+	c #A34E09",
"G+	c #893200",
"H+	c #842E02",
"I+	c #D2D3BE",
"J+	c #B6B7A2",
"K+	c #170300",
"L+	c #7E083F",
"M+	c #0A0004",
"N+	c #030400",
"O+	c #1D0404",
"P+	c #3C1B12",
"Q+	c #DFBB9E",
"R+	c #987A55",
"S+	c #947A63",
"T+	c #56473E",
"U+	c #FFECE2",
"V+	c #D3A492",
"W+	c #C99B6D",
"X+	c #FF79C8",
"Y+	c #FF72B3",
"Z+	c #FB56A9",
"`+	c #7D033C",
" @	c #E27D46",
".@	c #CC6926",
"+@	c #B0631B",
"@@	c #9D4D14",
"#@	c #944517",
"$@	c #722D0B",
"%@	c #939193",
"&@	c #BBB8BB",
"*@	c #9E9B9E",
"=@	c #0D0006",
"-@	c #140600",
";@	c #FF8ABD",
">@	c #BE984C",
",@	c #CD916C",
"'@	c #BE8A6C",
")@	c #9A7464",
"!@	c #AD907E",
"~@	c #DBB19D",
"{@	c #FF86C1",
"]@	c #FF5DAE",
"^@	c #6B4327",
"/@	c #631F3D",
"(@	c #6E264C",
"_@	c #6B2636",
":@	c #632A2B",
"<@	c #742F1B",
"[@	c #762E1B",
"}@	c #4C1E20",
"|@	c #6F372F",
"1@	c #9A989A",
"2@	c #B6B3B6",
"3@	c #A3A1A3",
"4@	c #0F0001",
"5@	c #140200",
"6@	c #2C0B00",
"7@	c #D1A555",
"8@	c #D69E74",
"9@	c #DAA686",
"0@	c #D4A381",
"a@	c #DAA37C",
"b@	c #6F5422",
"c@	c #471B57",
"d@	c #3C1171",
"e@	c #3F0F7D",
"f@	c #41156D",
"g@	c #422251",
"h@	c #603040",
"i@	c #67313C",
"j@	c #3D1C40",
"k@	c #6A3B44",
"l@	c #B1AEB1",
"m@	c #9D9B9D",
"n@	c #DB6F6E",
"o@	c #4D283E",
"p@	c #472384",
"q@	c #3E1CA2",
"r@	c #411EB0",
"s@	c #381897",
"t@	c #351874",
"u@	c #432461",
"v@	c #43285F",
"w@	c #301D5C",
"x@	c #4F2740",
"y@	c #A9A7A9",
"z@	c #44124A",
"A@	c #482281",
"B@	c #4A28A3",
"C@	c #4320A2",
"D@	c #401B99",
"E@	c #2F0F73",
"F@	c #36185D",
"G@	c #361A51",
"H@	c #2E1E46",
"I@	c #4B1B29",
"J@	c #1D0000",
"K@	c #8C6C14",
"L@	c #7D6713",
"M@	c #5C2040",
"N@	c #734582",
"O@	c #71488C",
"P@	c #855FA3",
"Q@	c #81589D",
"R@	c #6D437C",
"S@	c #553051",
"T@	c #573243",
"U@	c #5B3438",
"V@	c #693426",
"W@	c #7D7B7D",
"X@	c #FF0000",
"Y@	c #7F5D0E",
"Z@	c #E76371",
"`@	c #BE7E15",
" #	c #AC7F0E",
".#	c #A84205",
"+#	c #A1440F",
"@#	c #7F300B",
"##	c #AC6E57",
"$#	c #A6765B",
"%#	c #DBAE92",
"&#	c #CA9A7F",
"*#	c #B58668",
"=#	c #7C4C24",
"-#	c #80521F",
";#	c #974918",
">#	c #885711",
",#	c #7A787A",
"'#	c #D4702B",
")#	c #CE641B",
"!#	c #C15D08",
"~#	c #A64400",
"{#	c #A44700",
"]#	c #9C4C07",
"^#	c #AF6D36",
"/#	c #A7713F",
"(#	c #AB7A4D",
"_#	c #936031",
":#	c #814C18",
"<#	c #835215",
"[#	c #86540E",
"}#	c #9C4A08",
"|#	c #91530E",
"1#	c #C76E55",
"2#	c #BA5E46",
"3#	c #B0622F",
"4#	c #A34F15",
"5#	c #A04C06",
"6#	c #945005",
"7#	c #AF713B",
"8#	c #A7723D",
"9#	c #A67449",
"0#	c #956433",
"a#	c #864E1F",
"b#	c #7D5316",
"c#	c #85520F",
"d#	c #964B05",
"e#	c #915D09",
"f#	c #999799",
"g#	c #B1AFB1",
"h#	c #989598",
"i#	c #979597",
"j#	c #61210F",
"k#	c #53181C",
"l#	c #50101F",
"m#	c #501021",
"n#	c #59190F",
"o#	c #753212",
"p#	c #833F04",
"q#	c #914F13",
"r#	c #AC7241",
"s#	c #A77952",
"t#	c #E6BAA2",
"u#	c #CEA480",
"v#	c #C1916A",
"w#	c #7D521C",
"x#	c #895116",
"y#	c #B05F1F",
"z#	c #A34D0F",
"A#	c #872E03",
"B#	c #944609",
"C#	c #95480E",
"D#	c #763207",
"E#	c #6F300C",
"F#	c #6B311C",
"G#	c #A5A3A5",
"H#	c #8B898B",
"I#	c #878487",
"J#	c #858385",
"K#	c #7E7C7E",
"L#	c #7C7A7C",
"M#	c #A49C6C",
"N#	c #581616",
"O#	c #581A2D",
"P#	c #4F142D",
"Q#	c #4A132E",
"R#	c #52191A",
"S#	c #6A2E17",
"T#	c #7D410E",
"U#	c #8B4D24",
"V#	c #A56C5F",
"W#	c #9E757E",
"X#	c #D8B2CC",
"Y#	c #C39FAD",
"Z#	c #A88784",
"`#	c #744F40",
" $	c #7E4836",
".$	c #B85F29",
"+$	c #AA4D11",
"@$	c #8B2A00",
"#$	c #A74705",
"$$	c #A44C0F",
"%$	c #763006",
"&$	c #6A2D1F",
"*$	c #602C2B",
"=$	c #AA6161",
"-$	c #AB5F67",
";$	c #AD636C",
">$	c #66232C",
",$	c #623225",
"'$	c #BB8B6E",
")$	c #AB7A58",
"!$	c #612F20",
"~$	c #572843",
"{$	c #522E70",
"]$	c #381A81",
"^$	c #2F187B",
"/$	c #2C1F5C",
"($	c #351E55",
"_$	c #482044",
":$	c #B36232",
"<$	c #BE5A1E",
"[$	c #B14707",
"}$	c #D36B1E",
"|$	c #D4752F",
"1$	c #7A3300",
"2$	c #5F2230",
"3$	c #451742",
"4$	c #754B43",
"5$	c #7F4A3C",
"6$	c #411D3B",
"7$	c #6D4152",
"8$	c #73541D",
"9$	c #622250",
"0$	c #7A3D71",
"a$	c #6D3568",
"b$	c #66315E",
"c$	c #501F46",
"d$	c #4B222E",
"e$	c #4F2C23",
"f$	c #502A20",
"g$	c #3B1413",
"h$	c #805E6E",
"i$	c #7D5B8F",
"j$	c #381482",
"k$	c #30148B",
"l$	c #281D6F",
"m$	c #2E1D6A",
"n$	c #3E2154",
"o$	c #A35935",
"p$	c #B8541A",
"q$	c #BD540C",
"r$	c #BF540D",
"s$	c #B85514",
"t$	c #7B310F",
"u$	c #5F1E40",
"v$	c #4A134E",
"w$	c #904D52",
"x$	c #985948",
"y$	c #3D1C4B",
"z$	c #461F59",
"A$	c #6E4045",
"B$	c #4C1744",
"C$	c #3A0B6D",
"D$	c #4A2490",
"E$	c #402385",
"F$	c #31156E",
"G$	c #311860",
"H$	c #351F44",
"I$	c #0E0008",
"J$	c #1B0609",
"K$	c #987772",
"L$	c #9B7389",
"M$	c #41146A",
"N$	c #361071",
"O$	c #2F1A65",
"P$	c #28195A",
"Q$	c #3F264C",
"R$	c #894225",
"S$	c #AE4E17",
"T$	c #C5631D",
"U$	c #AC490D",
"V$	c #9B400A",
"W$	c #712A10",
"X$	c #5E1939",
"Y$	c #4F0D35",
"Z$	c #AB5754",
"`$	c #AD614B",
" %	c #401644",
".%	c #3E185B",
"+%	c #4D1C31",
"@%	c #72404A",
"#%	c #4B1E6D",
"$%	c #36148F",
"%%	c #302296",
"&%	c #2A1B94",
"*%	c #26187E",
"=%	c #261B6E",
"-%	c #261F4F",
";%	c #050213",
">%	c #120908",
",%	c #482E10",
"'%	c #AD836D",
")%	c #B17F80",
"!%	c #7A497B",
"~%	c #64396C",
"{%	c #5F3A67",
"]%	c #412A47",
"^%	c #503434",
"/%	c #AA4E1E",
"(%	c #BC9A2C",
"_%	c #9B5814",
":%	c #6D3006",
"<%	c #9A7B34",
"[%	c #9A842C",
"}%	c #5E243A",
"|%	c #635824",
"1%	c #59232E",
"2%	c #8CB129",
"3%	c #83A42C",
"4%	c #3B1846",
"5%	c #2A176D",
"6%	c #2C1D79",
"7%	c #291A75",
"8%	c #2A1C73",
"9%	c #291F5B",
"0%	c #281E58",
"a%	c #221943",
"b%	c #0B0114",
"c%	c #24130B",
"d%	c #EFBA96",
"e%	c #F3C1A5",
"f%	c #E9B69C",
"g%	c #CB9B80",
"h%	c #BC9378",
"i%	c #765241",
"j%	c #7C844C",
"k%	c #280A00",
"l%	c #270700",
"m%	c #1E0100",
"n%	c #210903",
"o%	c #140317",
"p%	c #0D0030",
"q%	c #100538",
"r%	c #0A0033",
"s%	c #0B0132",
"t%	c #0A0320",
"u%	c #070123",
"v%	c #0E0A24",
"w%	c #0B020E",
"x%	c #221507",
"y%	c #200100",
"z%	c #1E0900",
"A%	c #240500",
"B%	c #220500",
"C%	c #200400",
"D%	c #1F0300",
"E%	c #200600",
"F%	c #1C0300",
"G%	c #240600",
"H%	c #290400",
"I%	c #230000",
"J%	c #280400",
"K%	c #260201",
"L%	c #230500",
"M%	c #240700",
"N%	c #270900",
"O%	c #1F0500",
"P%	c #1A0500",
"Q%	c #0B0107",
"R%	c #050010",
"S%	c #030014",
"T%	c #020012",
"U%	c #02000C",
"V%	c #000310",
"W%	c #01050D",
"X%	c #1E1506",
"Y%	c #110000",
"Z%	c #090400",
"`%	c #090100",
" &	c #0F0000",
".&	c #170000",
"+&	c #200000",
"@&	c #220100",
"#&	c #250200",
"$&	c #110003",
"%&	c #0A0008",
"&&	c #030308",
"*&	c #050505",
"=&	c #020000",
"-&	c #0E0400",
";&	c #270D06",
">&	c #190200",
",&	c #240C09",
"'&	c #230808",
")&	c #1E0202",
"!&	c #230303",
"~&	c #0D0000",
"{&	c #050500",
"]&	c #0A0100",
"^&	c #120500",
"/&	c #2C0807",
"(&	c #250A05",
"_&	c #210C03",
":&	c #210901",
"<&	c #200800",
"[&	c #220801",
"}&	c #250A03",
"|&	c #220900",
"1&	c #210700",
"2&	c #260C00",
"3&	c #250B00",
"4&	c #260C02",
"5&	c #230B03",
"6&	c #251007",
"7&	c #281006",
"8&	c #341600",
"9&	c #8DAF2A",
"0&	c #979731",
"                            . . . .     . . + +             . .                             . . . .     . . + +             . . ",
"  @                         . . . .     . . + +             . .                             . . . .     . . + +             . . ",
"    . .         . . . . # # . .         + + # # . .     . .         . .         . . . . # # . .         + + # # . .     . .     ",
"    . .         . . . . # # . .         + + # # . .     . .         . .         . . . . # # . .         + + # # . .     . .     ",
"        . . . .     . . # #         . . # #             . .             . . . .     . . # #         . . # #             . .     ",
"        . . . .     . . # #         . . # #             . .             . . . .     . . # #         . . # #             . .     ",
"            . .     . . # #     . . + + . .     . .                         . .     . . # #     . . + + . .     . .             ",
"            . .     . . # #     . . + + . .     . .                         . .     . . # #     . . + + . .     . .             ",
". .         . .         # # # # + + + +         # # . .         . .         . .         # # # # + + + +         # # . .         ",
". .         . .         # # # # + + + +         # # . .         . .         . .         # # # # + + + +         # # . .         ",
"+ + . .                     # # # #     . .     # # . .     . . + + . .                     # # # #     . .     # # . .     . . ",
"+ + . .                   $ # # # #     . .     # % . .     . . + + . .                     # # # #     . .     # # . .     . . ",
"# # + + . .     . .         # # . .     . .     . & . . * = - - ; ; > > - - = = - -         # # . .     . .     . . . .     . . ",
"# # + + . .     . .         # # . .   , ' )   = - ! ~ { ] ^ ^ ^ ^ ^ ^ ^ ^ ^ ^ ^ / ^ = = = = ; ; . .     . .     . . . .     . . ",
". . # # # #     + + + +     . ( _ : < [ } | 1 2 3 4 5 6 7 8 9 / ^ / ^ ^ / ^ ^ ^ ^ / ^ ^ ^ ^ ^ ^ - -     . .     . .         . . ",
". . # # # #     + + + +     . 0 a b c d } } e 1 1 e f } g h i / / ^ / / ^ ^ / / / / / ^ ^ ^ ^ ^ ^ ^ = = - .     . .         . . ",
"    . . . .     . . + +       b j j k g } } e e e e e l 1 h m n o / / / / / / / ^ ^ ^ / ^ ^ ^ ^ ^ ^ ^ ^ ^ = . .             . . ",
"    . . . .     . . + + p   q r j j k } s s t s } } } | | 1 u u v / / / / / / / / / / ^ ^ ^ ^ ^ ^ ^ ^ ^ ^ ^ - .     w       . . ",
"                    # # x y z r j j k } s s A s } } } | | 1 m B C / / / / / / / / / ^ / / / / / ^ ^ / ^ ^ ^ ^ D E               ",
"                    # # # # F G H I s A A A s } } } } } } | | J K / / L / / / / / / / / ^ ^ ^ ^ ^ ^ ^ ^ / ^ ^ ^ M N             ",
"        . .         . . . . = ^ ^ O s A A A s } } } } } } | J J | P Q R / / / / / / / / ^ ^ ^ ^ ^ ^ ^ ^ / ^ ^ ^ S T ; #         ",
"        . .         . . . / ^ ^ U V s A A A A W W W W W W | | | | X 1 Y T / / / / / / / / / ^ ^ / / / ^ ^ ^ ^ ^ ^ Z ` #         ",
"        . . + + + + . - = / ^  .L ..s A A A A W W W +.+.| m m | | } f Y / T / / T / / / / / / / / / / ^ / ^ ^ ^ ^ / / ; =   . . ",
"        . . + + + + . - ^ ^ / r J J J A A A A W W W @.#.$.%.&.*.=.| -.;.T T T T / T T / T T / / / / / / / ^ / ^ / ^ ^ / /   . . ",
"    . .     . . # # ; / / ^ >.J J J ,.s s s J W W W '.).!.~.{.].^./.} X (.'._.:.T / / / / / / / / / / / ^ / ^ / ^ / / / /   . . ",
"    . .     . . # # ; ^ ^ / <.| J J ,.s s s J k k [.}.|.1.2.3.4.5.6.1 X j 7.T T T T T / T T T T / / / / / / / / ^ / / / /   . . ",
"    . . . .     . . ; / / / 8.| s s 9.9.0.9.K V a.b.c.d.e.f.g.h.i.j.k.l.v m.T T T T T T / / / / / / / / / / / / / / / / /   . . ",
"    . . . .     n.- / / o.>.p.| s s 9.9.0.,.K q.r.s.t.u.v.w.x.y.z.A.B.C.T C.T T T T T T T T T T / / / / / / / / / / / / / T . . ",
"        . .     D.E./ / F.j G.W 9.9.9.9.0.,.'.H.I.J.K.L.M.N.O.P.Q.R.S.T C.T C.C.T C.T T T T T T T T / T / / / / / / / / / T     ",
"        . .     T.U./ / V.h e e s s s J 9.,.L W.X.Y.Z.`. +.+++@+#+$+%+&+*+=+T T C.T T T T T / / T T / / / T / / / / / / / T     ",
"        . .       -+/ / ;+>+| 1 1 e 1 R ,+'+)+!+~+{+]+^+/+.+++(+(+_+:+<+[+}+C.C.T C.T T T T T T T T / T / / / / / / / T T T . . ",
"        . .   / / / / / |+1+2+Y k 3+[.4+5+6+7+8+9+0+a+b+c+d+++@+(+e+f+g+h+i+j+k+T C.T T T T T T / / T / / / T / / T T / / T . . ",
"              / / / / T l+T m+n+o+p+1+q+r+s+t+u+v+w+x+y+z+A+++@+(+B+C+D+E+F+G+H+I+J+T T T T T T T T T T / / / / / / / / / T . . ",
"              / / / / T K+T L+n+o+M+N+|+O+P+Q+R+S+^.T+U+V+W+X+Y+Z+`+C. @.@+@@@#@$@C.T C.T T T T T T / T T / T / T / / T T T . . ",
"    . .       / / %@T &@T *@n+n+@+=@'.-@;@;@>@,@'@)@!@~@{@++]@(+n+^@/@(@_@:@<@[@}@|@C.T T T T T T T / T / / T / T / / T T T     ",
"    . .       / / 1@2@2@3@T n+n+o+4@5@6@++(+;@7@8@9@0@a@;@++@+(+b@c@d@e@f@g@h@i@j@k@C.T T T T T T T / T / / T / T / / T T T     ",
"        . . . / / / / l@m@T n+n+o+q n@o+o+++;@;@;@;@;@;@;@++(+(+o@p@q@r@s@t@u@v@w@x@T C.T T T T T T T T T / T / T / / T T .     ",
"        . . . - = / / y@m@T n+n+o+v o+o+@+o+++;@;@;@;@;@;@++@+(+z@A@B@C@D@E@F@G@H@I@T T T T T T T T T T T / T T / T T T T .     ",
"            . .   = / / / / T T n+J@o+o+o+@+@+o+++++++++@+@+K@L@M@N@O@P@Q@R@S@T@U@V@T C.T T T T T T T T / T / / T T T T T       ",
"            . .   = ^ W@/ / / / n+X@o+o+o+o+o+@+o+Y@Z@o+`@ #.#+#@###$#%#&#*#=#-#;#>#C.T T T T T T T T / T T T T / T T T T       ",
". .         . .   = / / ,#/ / / / / X@X@o+o+o+o+o+o+o+'#)#!#~#{#]#^#/#(#_#:#<#[#}#|#C.T T T T T T T T T / T / T / T T /         ",
". .         . .     = ^ ^ / / / / / n+n+n+o+o+o+o+o+n+1#2#3#4#5#6#7#8#9#0#a#b#c#d#e#T T T T T T T T T T T T f#g#h#^ i#/         ",
"+ + . .             = = / ^ / / / / / / T n+n+n+n+j#k#l#m#n#o#p#q#r#s#t#u#v#w#x#y#z#A#B#C#D#E#F#G#G#H#/ I#J#K#L#/ / - -     . . ",
"+ + . .                 / ^ ^ ^ / / / / / / / T M#N#O#P#Q#R#S#T#U#V#W#X#Y#Z#`# $.$+$@$#$$$%$&$*$/ / ^ ^ ^ ^ ^ ^ ; ; . .     . . ",
"# # + + . .     . .       = ^ ^ ^ / / / / / / / / =$-$;$>$,$'$)$!$~${$]$^$/$($_$:$<$[$}$|$1$2$3$4$5$6$7$^ ^ ^ = . . . .     . . ",
"# # + + . .     . .       = ^ ^ ^ / / / / / / 8$9$0$a$b$c$d$e$f$g$h$i$j$k$l$m$n$o$p$q$r$s$t$u$v$w$x$y$z$A$^ ^ = . . . .     . . ",
". . # # # #     + + + +     / / ^ ^ / / / / / B$C$D$E$F$G$H$I$J$_ K$L$M$N$O$P$Q$R$S$T$U$V$W$X$Y$Z$`$ %.%+%^ =   . .         . . ",
". . # # # #     + + + +     . . - / / / / / @%#%$%%%&%*%=%-%;%>%,%'%)%!%~%{%]%^%/ /%(%_%^ :%^ ^ <%[%}%|%1%-     . .         . . ",
"# # # # . .     2%3%+ +           = ^ ^ / / 4%5%6%7%8%9%0%a%b%c%/ d%e%f%g%h%i%^ ^ ^ / ^ ^ ^ ^ ^ ^ ^ ^ ^ j%  . .             . . ",
"# # # # . .     . . + +             k%l%m%n%o%p%q%r%s%t%u%v%w%x%^ / / ^ ^ / y%z%A%B%C%D%E%F%G%H%I%J%K%L%M%  . .             . . ",
". . # #             # # # #         A.N%O%P%Q%R%S%T%U%} V%W%1 X%/ ^ ^ / ^ ^ Y%Z%V.V.P V.`% &.&J@+&@&L.L.#&. . .                 ",
". . # #             # # # #             . . $&%&c c X m &&*&=&-&;&>&,&'&)&!&~&{&]&]&V.~&^&; =           . . . .                 ",
"    # # . .         . . . .     . . . . . . /&(&_&_&_&:&<&<&[&}&}&|&1&2&3&4&u.}&:&5&6&7&8&.     . . . . . . . . # # # #         ",
"    # # . .         . . . .     . . . . . . . . # # # #                 . .         . . . .     . . . . . . . . # # # #         ",
"# #     . . + + + + . .         . . . . . . . . # # # #     . .         . . + + + + . .         . . . . . . . . # # # #     . . ",
"# #     . . + + + + . .         . . . . . . . . # # # #     . .         . . + + + + . .         . . . . . . . . # # # #     . . ",
"# #         . . # # # # . .     . . . .                     . .     . .     . . # # # # . .     . . . .                     . . ",
"# #         . . # # # # . .     . . . .                     . .     . .     . . # # # # . .     . . . .                     . . ",
". .     . .     . . # # . .                 . .     . .     . .     . . . .     . . # # . .                 . .     . .     . . ",
". .     . .     . . # # . .                 . .     . .     . .     . . . .     . . # # . .                 . .     . .     . . ",
"        . .         . . # #                 . .                         . .         . . # #                 . .                 ",
"        . .         . . # #                 . .                         . .         . . # #                 . .                 ",
"        . .             . .                 . .         . . . .         . .             . .                 . .         . . . . ",
"        . .             . .                 . .         . . . .         . .             . .                 . .         . . 9&0&"};
