/* XPM */
static char * player_evo_d_xpm[] = {
"64 64 652 2",
"  	c #7B9200",
". 	c #8CB229",
"+ 	c #CEFB42",
"@ 	c #878914",
"# 	c #999830",
"$ 	c #D7A14B",
"% 	c #D39C42",
"& 	c #B37E30",
"* 	c #8D8916",
"= 	c #888914",
"- 	c #8D8817",
"; 	c #8D8816",
"> 	c #B38317",
", 	c #AD8A16",
"' 	c #DBB36B",
") 	c #D5AD68",
"! 	c #A67D3B",
"~ 	c #987E1F",
"{ 	c #A4861F",
"] 	c #B37A2B",
"^ 	c #98801D",
"/ 	c #BDBA00",
"( 	c #959F31",
"_ 	c #8E841C",
": 	c #9E8420",
"< 	c #A27E1E",
"[ 	c #F1CE36",
"} 	c #F4D846",
"| 	c #FFF5C0",
"1 	c #FFF8DF",
"2 	c #9E7933",
"3 	c #A87325",
"4 	c #9A9D31",
"5 	c #8F8918",
"6 	c #919214",
"7 	c #DAA73E",
"8 	c #C79137",
"9 	c #9C9330",
"0 	c #96A630",
"a 	c #AA7C2E",
"b 	c #9E7314",
"c 	c #E5C12F",
"d 	c #E2BE34",
"e 	c #FBF391",
"f 	c #FAE894",
"g 	c #AE9C52",
"h 	c #AE9754",
"i 	c #D9B844",
"j 	c #DFBE3D",
"k 	c #A3760F",
"l 	c #B6821D",
"m 	c #E2B234",
"n 	c #F5C932",
"o 	c #D6A830",
"p 	c #9B9A31",
"q 	c #8A8B14",
"r 	c #A87728",
"s 	c #AA7728",
"t 	c #A97913",
"u 	c #F7D52B",
"v 	c #F0CF2A",
"w 	c #FFFFBE",
"x 	c #FFF2CB",
"y 	c #A07934",
"z 	c #AA792A",
"A 	c #FAD34A",
"B 	c #F2D229",
"C 	c #A87903",
"D 	c #B07B11",
"E 	c #E1B226",
"F 	c #FED627",
"G 	c #DFB42A",
"H 	c #9C7F20",
"I 	c #B4A017",
"J 	c #888D11",
"K 	c #C89343",
"L 	c #C58D40",
"M 	c #B27A30",
"N 	c #A97510",
"O 	c #F9D525",
"P 	c #F4D525",
"Q 	c #D8BF65",
"R 	c #D9BB7F",
"S 	c #AB7837",
"T 	c #B57633",
"U 	c #E6B439",
"V 	c #ECB429",
"W 	c #AE7710",
"X 	c #B07A1A",
"Y 	c #DFB026",
"Z 	c #FCD41C",
"` 	c #E1B423",
" .	c #A27E20",
"..	c #97A030",
"+.	c #B69D1A",
"@.	c #949A31",
"#.	c #AB7626",
"$.	c #D8A637",
"%.	c #D59F3B",
"&.	c #B17B1B",
"*.	c #AD7B08",
"=.	c #FCD72E",
"-.	c #F4D32C",
";.	c #C99C37",
">.	c #D2A154",
",.	c #B58135",
"'.	c #A97627",
").	c #D4A033",
"!.	c #DCA23F",
"~.	c #AF791F",
"{.	c #DDAC29",
"].	c #F9D01C",
"^.	c #E2B42B",
"/.	c #AD782C",
"(.	c #94831D",
"_.	c #9F882D",
":.	c #A9752C",
"<.	c #B3961D",
"[.	c #A2932E",
"}.	c #AA770C",
"|.	c #F8CF39",
"1.	c #F5CD3A",
"2.	c #DCA435",
"3.	c #D5A02E",
"4.	c #A87F09",
"5.	c #AE7F13",
"6.	c #B47B22",
"7.	c #B27A27",
"8.	c #D6A046",
"9.	c #D3A142",
"0.	c #B57C23",
"a.	c #AF772D",
"b.	c #AD7828",
"c.	c #C5942B",
"d.	c #D2A524",
"e.	c #C79427",
"f.	c #B0742B",
"g.	c #DA9F4F",
"h.	c #BD8538",
"i.	c #B08C20",
"j.	c #A37B20",
"k.	c #A87814",
"l.	c #F1D140",
"m.	c #EFD041",
"n.	c #DAA32C",
"o.	c #DAA535",
"p.	c #AB7C20",
"q.	c #AC7523",
"r.	c #B3792F",
"s.	c #DBA334",
"t.	c #B2791F",
"u.	c #B67B2D",
"v.	c #BB7C35",
"w.	c #AF7523",
"x.	c #C48D32",
"y.	c #CF9A3C",
"z.	c #CB9437",
"A.	c #B47C29",
"B.	c #DDA047",
"C.	c #DD9F48",
"D.	c #BF8533",
"E.	c #B18820",
"F.	c #C3D842",
"G.	c #A38B1F",
"H.	c #D4A740",
"I.	c #CBA35E",
"J.	c #FFF1C5",
"K.	c #FFF6A7",
"L.	c #F0CD3B",
"M.	c #F9CF45",
"N.	c #AA7A18",
"O.	c #B27C26",
"P.	c #D3A23C",
"Q.	c #D6A234",
"R.	c #FCCE32",
"S.	c #FBCE2D",
"T.	c #D79F2E",
"U.	c #D8A04D",
"V.	c #AB7223",
"W.	c #B17926",
"X.	c #B37B26",
"Y.	c #B67C2A",
"Z.	c #BB842A",
"`.	c #D49E44",
" +	c #DDA13F",
".+	c #DFA043",
"++	c #C1852F",
"@+	c #B18220",
"#+	c #96811D",
"$+	c #C6931D",
"%+	c #F1C63B",
"&+	c #E7CC65",
"*+	c #F8FFCD",
"=+	c #F8F4CE",
"-+	c #F8EC96",
";+	c #FFE89B",
">+	c #A57A2C",
",+	c #AA7D20",
"'+	c #F0C430",
")+	c #F6CD3D",
"!+	c #FFED7E",
"~+	c #FFF194",
"{+	c #D1A544",
"]+	c #DEA54E",
"^+	c #AE7A27",
"/+	c #AB7825",
"(+	c #D5A536",
"_+	c #DEB82F",
":+	c #EFCC68",
"<+	c #FFE1AC",
"[+	c #B08036",
"}+	c #B88033",
"|+	c #C38B36",
"1+	c #CC953B",
"2+	c #7E9203",
"3+	c #98811E",
"4+	c #C9991B",
"5+	c #F5CC32",
"6+	c #E7CD54",
"7+	c #FDFFCF",
"8+	c #FCF6E6",
"9+	c #FDF7DD",
"0+	c #FFF2CE",
"a+	c #A67E29",
"b+	c #AC830F",
"c+	c #F7CD2B",
"d+	c #F6D33B",
"e+	c #FFFAB7",
"f+	c #FEF6CF",
"g+	c #CCA655",
"h+	c #D9A047",
"i+	c #A6721E",
"j+	c #AC7825",
"k+	c #E0B42F",
"l+	c #F1D826",
"m+	c #F6E073",
"n+	c #FFF0D1",
"o+	c #A0793E",
"p+	c #A77530",
"q+	c #C79236",
"r+	c #DCA73D",
"s+	c #C8913F",
"t+	c #B9A514",
"u+	c #98841F",
"v+	c #C09320",
"w+	c #E1B629",
"x+	c #DBB634",
"y+	c #F1E06E",
"z+	c #EDE293",
"A+	c #FCF9F0",
"B+	c #FFF8E1",
"C+	c #C0913F",
"D+	c #CA9432",
"E+	c #DCB327",
"F+	c #D7AE2E",
"G+	c #FFF3C1",
"H+	c #FFFBE1",
"I+	c #D1A662",
"J+	c #D59E4B",
"K+	c #F4D497",
"L+	c #EBC989",
"M+	c #F3D153",
"N+	c #F3D61A",
"O+	c #E9C843",
"P+	c #DEC082",
"Q+	c #AC7F3C",
"R+	c #A97529",
"S+	c #D3A02A",
"T+	c #ECBB2E",
"U+	c #D4A12E",
"V+	c #AE7929",
"W+	c #BAB00B",
"X+	c #7F9106",
"Y+	c #AB7F28",
"Z+	c #B98A20",
"`+	c #CE9F29",
" @	c #D2A725",
".@	c #F5D930",
"+@	c #F1DE65",
"@@	c #FFFCEC",
"#@	c #FFF1D7",
"$@	c #D09F43",
"%@	c #DA9F37",
"&@	c #DAAB41",
"*@	c #D4A241",
"=@	c #FFF8D1",
"-@	c #D4A466",
";@	c #D6A056",
">@	c #FFF1BF",
",@	c #FFF1B1",
"'@	c #FBE26B",
")@	c #F7D323",
"!@	c #EFC032",
"~@	c #DCA94D",
"{@	c #AC772B",
"]@	c #AD7624",
"^@	c #E4B131",
"/@	c #FDCC31",
"(@	c #E2B130",
"_@	c #AE7C23",
":@	c #B5A514",
"<@	c #BAB21C",
"[@	c #DFAE2E",
"}@	c #B47E24",
"|@	c #AF7A1C",
"1@	c #DDA834",
"2@	c #D6B858",
"3@	c #FFF9E6",
"4@	c #FFFED0",
"5@	c #EDD13F",
"6@	c #FAD53C",
"7@	c #A97B1D",
"8@	c #B6832A",
"9@	c #E9D04F",
"0@	c #E7D44A",
"a@	c #A77917",
"b@	c #AF8123",
"c@	c #EDD156",
"d@	c #EED44B",
"e@	c #DAB92C",
"f@	c #D4A726",
"g@	c #C89426",
"h@	c #AE7526",
"i@	c #B27C32",
"j@	c #AA7529",
"k@	c #C69026",
"l@	c #DBA624",
"m@	c #C89225",
"n@	c #B17C2C",
"o@	c #90AA2E",
"p@	c #BBB41F",
"q@	c #DBAB2D",
"r@	c #AF7923",
"s@	c #AE792B",
"t@	c #D89E4C",
"u@	c #C9A34E",
"v@	c #FFF5C4",
"w@	c #FDF2A3",
"x@	c #F4D940",
"y@	c #F4D032",
"z@	c #B48418",
"A@	c #B5801A",
"B@	c #F9D63C",
"C@	c #F8D933",
"D@	c #B07E0D",
"E@	c #B08014",
"F@	c #F0CB35",
"G@	c #FDD33F",
"H@	c #E7B633",
"I@	c #DAA13A",
"J@	c #C99039",
"K@	c #AE762C",
"L@	c #A67229",
"M@	c #A8732D",
"N@	c #C8903B",
"O@	c #D29B37",
"P@	c #C38C32",
"Q@	c #AE7832",
"R@	c #90A72E",
"S@	c #818E0B",
"T@	c #A87C25",
"U@	c #9E691B",
"V@	c #824C0C",
"W@	c #824E03",
"X@	c #B47D2B",
"Y@	c #AA8012",
"Z@	c #F2D539",
"`@	c #F1D23A",
" #	c #D9A43A",
".#	c #DDA141",
"+#	c #CF9446",
"@#	c #D2A049",
"##	c #AA7821",
"$#	c #AE7C25",
"%#	c #CFA048",
"&#	c #D99E50",
"*#	c #A77A1D",
"=#	c #A57717",
"-#	c #C58F2F",
";#	c #DBA046",
">#	c #CA913A",
",#	c #AD7926",
"'#	c #82500B",
")#	c #834D0D",
"!#	c #A26C24",
"~#	c #B27D2D",
"{#	c #A46E24",
"]#	c #864F16",
"^#	c #795520",
"/#	c #96801F",
"(#	c #9F6A28",
"_#	c #834F16",
":#	c #835112",
"<#	c #AC762E",
"[#	c #AD801B",
"}#	c #F5CF3E",
"|#	c #F8D34E",
"1#	c #CAA356",
"2#	c #CDA164",
"3#	c #BDA273",
"4#	c #B8A56A",
"5#	c #A07739",
"6#	c #A8783A",
"7#	c #B39B5B",
"8#	c #BBA071",
"9#	c #98814F",
"0#	c #A28245",
"a#	c #BC914C",
"b#	c #D8A151",
"c#	c #CA9140",
"d#	c #AF7A2C",
"e#	c #845004",
"f#	c #875307",
"g#	c #A26E25",
"h#	c #B37E3A",
"i#	c #986523",
"j#	c #835116",
"k#	c #7C6320",
"l#	c #858D0F",
"m#	c #A06E31",
"n#	c #815113",
"o#	c #7F500A",
"p#	c #B48037",
"q#	c #A17325",
"r#	c #7D4D0D",
"s#	c #6D4C19",
"t#	c #B1AF98",
"u#	c #AFB0AA",
"v#	c #244459",
"w#	c #244056",
"x#	c #70523A",
"y#	c #7D5532",
"z#	c #3D4955",
"A#	c #29485D",
"B#	c #AEB7BC",
"C#	c #B9AC9B",
"D#	c #8E724D",
"E#	c #855412",
"F#	c #956012",
"G#	c #AA7320",
"H#	c #DAA348",
"I#	c #D59E41",
"J#	c #9A651F",
"K#	c #7E4B16",
"L#	c #80531A",
"M#	c #815C1F",
"N#	c #7B6A1F",
"O#	c #949831",
"P#	c #7F5219",
"Q#	c #7A4E0D",
"R#	c #A87C35",
"S#	c #B6863C",
"T#	c #CF9A4C",
"U#	c #C19A61",
"V#	c #E0D9D3",
"W#	c #DEE1E8",
"X#	c #335997",
"Y#	c #345A87",
"Z#	c #A28D60",
"`#	c #A58344",
" $	c #485E73",
".$	c #355898",
"+$	c #D2DEF8",
"@$	c #DED7CD",
"#$	c #B7A077",
"$$	c #AF7F37",
"%$	c #AC742A",
"&$	c #975D1D",
"*$	c #C4863B",
"=$	c #C48A38",
"-$	c #966016",
";$	c #804F14",
">$	c #A78F1D",
",$	c #7A5A23",
"'$	c #78510E",
")$	c #A57932",
"!$	c #AD752B",
"~$	c #F5BD70",
"{$	c #E4BA7E",
"]$	c #FFF7E4",
"^$	c #ECF8EE",
"/$	c #3B68A1",
"($	c #3A6790",
"_$	c #BC9F73",
":$	c #C99B5F",
"<$	c #4F6479",
"[$	c #3F65A4",
"}$	c #E8F3FF",
"|$	c #F8F6EA",
"1$	c #D5BD97",
"2$	c #D79F55",
"3$	c #B7813B",
"4$	c #854E15",
"5$	c #BB823D",
"6$	c #B07A32",
"7$	c #885617",
"8$	c #7A4D16",
"9$	c #8DA52E",
"0$	c #7B9102",
"a$	c #845017",
"b$	c #8C530C",
"c$	c #D1A34D",
"d$	c #C9AB65",
"e$	c #F9FAE8",
"f$	c #EAFAF7",
"g$	c #18436D",
"h$	c #244A6F",
"i$	c #DBC68F",
"j$	c #EAC97C",
"k$	c #384E5B",
"l$	c #1C416B",
"m$	c #ECFAFF",
"n$	c #F8F6E7",
"o$	c #BDA67C",
"p$	c #B37F36",
"q$	c #A27029",
"r$	c #7F4F11",
"s$	c #804F17",
"t$	c #80511D",
"u$	c #7B8F03",
"v$	c #7B8E05",
"w$	c #94A42F",
"x$	c #854B0C",
"y$	c #8D5206",
"z$	c #D5A445",
"A$	c #CBA655",
"B$	c #FFFCD6",
"C$	c #FAFCE4",
"D$	c #284058",
"E$	c #304059",
"F$	c #E2C090",
"G$	c #EDC180",
"H$	c #3A3B3F",
"I$	c #2A4055",
"J$	c #F0F5F1",
"K$	c #FFF3DC",
"L$	c #BE9F73",
"M$	c #A77230",
"N$	c #9A6726",
"O$	c #7C4D15",
"P$	c #794A1C",
"Q$	c #7D5C26",
"R$	c #AC8E2C",
"S$	c #C5820F",
"T$	c #D0850E",
"U$	c #D1850D",
"V$	c #D18702",
"W$	c #CB8509",
"X$	c #C38321",
"Y$	c #BB8324",
"Z$	c #E5C07A",
"`$	c #DDBD80",
" %	c #7A5111",
".%	c #845817",
"+%	c #C1A365",
"@%	c #C6A15B",
"#%	c #9A7A41",
"$%	c #A07940",
"%%	c #865C22",
"&%	c #7A5119",
"*%	c #7A511B",
"=%	c #7F6628",
"-%	c #BB8820",
";%	c #C78800",
">%	c #C88C00",
",%	c #CB8900",
"'%	c #CC8A00",
")%	c #CE8A01",
"!%	c #C37D0D",
"~%	c #C27E0F",
"{%	c #F5BE6C",
"]%	c #EFB868",
"^%	c #854900",
"/%	c #8A4C03",
"(%	c #CC964C",
"_%	c #D6A256",
":%	c #A67634",
"<%	c #A3753A",
"[%	c #846235",
"}%	c #665543",
"|%	c #655546",
"1%	c #908A25",
"2%	c #C6BC2A",
"3%	c #C7BC2E",
"4%	c #C08625",
"5%	c #B0A22F",
"6%	c #8FB12B",
"7%	c #919511",
"8%	c #D39D1F",
"9%	c #F2CC29",
"0%	c #F2CD27",
"a%	c #F2CE22",
"b%	c #FBD238",
"c%	c #D9A140",
"d%	c #D19E45",
"e%	c #D6963E",
"f%	c #C18211",
"g%	c #BD7E0C",
"h%	c #8F4E00",
"i%	c #805006",
"j%	c #7E4F09",
"k%	c #6F4B17",
"l%	c #4F4432",
"m%	c #274462",
"n%	c #24446A",
"o%	c #22456F",
"p%	c #124177",
"q%	c #193F70",
"r%	c #90B235",
"s%	c #BEBA04",
"t%	c #809205",
"u%	c #A2931A",
"v%	c #D59E10",
"w%	c #D8B349",
"x%	c #DCBE7E",
"y%	c #7F9406",
"z%	c #D8BF87",
"A%	c #D9C177",
"B%	c #F1DF71",
"C%	c #F1DE75",
"D%	c #F1DE78",
"E%	c #F3DC7F",
"F%	c #E2C87D",
"G%	c #D8BD78",
"H%	c #A0C0F8",
"I%	c #877449",
"J%	c #68686A",
"K%	c #50647C",
"L%	c #1E4A7B",
"M%	c #194B86",
"N%	c #164480",
"O%	c #62767C",
"P%	c #94B233",
"Q%	c #C5870E",
"R%	c #C08C00",
"S%	c #ECD525",
"T%	c #5088F8",
"U%	c #EBF2FE",
"V%	c #C29C1D",
"W%	c #FFFFFF",
"X%	c #8EB12A",
"Y%	c #D08213",
"Z%	c #F2EAF7",
"`%	c #CF954B",
" &	c #9A8E19",
".&	c #A0B64A",
"+&	c #98B43E",
"@&	c #96B43B",
"#&	c #D0F54E",
"$&	c #9AB540",
"%&	c #879817",
"&&	c #7F9408",
"                            . . . .     . . + +           @ # $ % & *       = - ;           . . . .     . . + +             . . ",
"                            . . . .     . . + +           > , ' ) ! ~       { ] ^           . . . .     . . + +             . . ",
"    . .         . . . . / / . .         + + / / . ( _ : < [ } | 1 2 3 4 5 6 7 8 9 . . . / / . .         + + / / . .     . .     ",
"    . .         . . . . / / . .         + + / / 0 a b c d e f g h i j k l m n o p . . . / / . .         + + / / . .     . .     ",
"        . . . .     . . / /         . . / /   q r s t u v w x y z A B C D E F G H   . . I /         . . / /             . .     ",
"        . . . .     . . / /         . . / / J K L M N O P Q R S T U V W X Y Z `  .  . ..+./         . . / /             . .     ",
"            . .     . . / /     . . + + . @.#.$.%.&.*.=.-.;.>.,.'.).!.~.~.{.].^./.(._.:.<./     . . + + . .     . .             ",
"            . .     . . / /     . . + + . [.}.|.1.2.3.4.5.6.7.8.9.~.0.a.b.c.d.e.f.g.g.h.i./     . . + + . .     . .             ",
". .         . .         / / / / + + + +   j.k.l.m.n.o.p.q.r.] s.n.t.u.v.w.x.y.z.A.B.C.D.E./ / / + + + +         / / . .         ",
". .         . .         / / / / + + + F.G.H.I.J.K.L.M.N.O.P.Q.R.S.T.U.V.W.X.Y.Z.`. +.+++@+/ / / + + + +         / / . .         ",
"+ + . .                     / / / /   #+$+%+&+*+=+-+;+>+,+'+)+!+~+{+]+^+/+(+_+:+<+[+}+|+1+2+/ / / /     . .     / / . .     . . ",
"+ + . .                     / / / /   3+4+5+6+7+8+9+0+a+b+c+d+e+f+g+h+i+j+k+l+m+n+o+p+q+r+s+t+/ / /     . .     / / . .     . . ",
"/ / + + . .     . .         / / . .   u+v+w+x+y+z+A+B+C+D+E+F+G+H+I+J+K+L+M+N+O+P+Q+R+S+T+U+V+W+. .     . .     . . . .     . . ",
"/ / + + . .     . .         / / . . X+Y+Z+`+ @.@+@@@#@$@%@&@*@| =@-@;@>@,@'@)@!@~@{@]@^@/@(@_@:@. .     . .     . . . .     . . ",
". . / / / /     + + + +     . . . .   <@[@}@|@1@2@3@4@5@6@7@8@9@0@a@b@c@d@e@f@g@h@i@j@k@l@m@n@o@. .     . .     . .         . . ",
". . / / / /     + + + +     . . . .   p@q@r@s@t@u@v@w@x@y@z@A@B@C@D@E@F@G@H@I@J@K@L@M@N@O@P@Q@R@. .     . .     . .         . . ",
"    . . . .     . . + +             S@T@U@V@W@X@Y@Z@`@ #.#+#@###$#%#&#*#=#-#;#>#,#'#)#!#~#{#]#^#            . .             . . ",
"    . . . .     . . + +               /#(#_#:#<#[#}#|#1#2#3#4#5#6#7#8#9#0#a#b#c#d#e#f#g#h#i#j#k#            . .             . . ",
"                    / / / /           l#m#n#o#p#q#r#s#t#u#v#w#x#y#z#A#B#C#D#E#F#G#H#I#J#K#L#M#N#        . . . .                 ",
"                    / / / /             O#P#Q#R#S#T#U#V#W#X#Y#Z#`# $.$+$@$#$$$%$&$*$=$-$;$>$            . . . .                 ",
"        . .         . . . .     . . . . . ,$'$)$!$~${$]$^$/$($_$:$<$[$}$|$1$2$3$4$5$6$7$8$9$    . . . . . . . . / / / /         ",
"0$      . .         . . . .     . . . . . . . a$b$c$d$e$f$g$h$i$j$k$l$m$n$o$p$q$r$s$t$. . .     . . . . . . . . / / / /         ",
"u$v$    . . + + + + . .         . . . . . . w$x$y$z$A$B$C$D$E$F$G$H$I$J$K$L$M$N$O$P$Q$.         . . . . . . . . / / / /     . . ",
"        . . + + + + . .         . . . . . R$S$T$U$V$W$X$Y$Z$`$ %.%+%@%#%$%%%&%*%=%+ . .         . . . . . . . . / / / /     . . ",
"    . .     . . / / / / . .     . . . .   -%;%>%,%'%)%!%~%{%]%^%/%(%_%:%<%[%}%|%1%/ / / . .     . . . .                     . . ",
"    . .     . . / / 2%3%. .     . 4%5%6%  7%8%9%0%a%b%).c%d%e%f%g%h%i%j%k%l%m%n%o%p%q%/ r%.     . . . .                     . . ",
"    . . . .     . . s%/ . .   t%u%v%w%x%y%z%A%B%C%D%E%F%G%H%H%H%H%H%H%H%H%I%J%K%L%M%N%O%. .                 . .     . .     . . ",
"    . . . .     . . / / . P%  Q%R%S%H%H%H%H%H%H%T%T%T%U%U%U%U%U%U%U%U%U%U%U%H%T%T%H%H%H%H%H%H%H%            . .     . .     . . ",
"        . .         . . / V%H%H%H%H%H%H%H%W%H%T%H%H%U%U%U%U%U%U%U%U%U%U%U%U%U%U%H%T%T%H%W%H%H%H%H%H%H%H%    . .                 ",
"        . .         H%H%H%H%H%H%H%W%W%H%T%H%U%U%U%U%U%U%U%U%U%U%U%U%U%U%U%U%U%U%U%U%U%U%H%T%H%W%W%H%H%H%H%H%H%H%                ",
"        . .     H%H%    X%Y%H%H%H%H%H%H%H%H%H%U%U%H%U%Z%H%U%U%U%U%U%U%H%U%H%H%U%H%U%U%H%H%H%H%H%H%H%H%H%    . . H%H%    . . . . ",
"        . .             `%H%H%H%H%T%U%U%U%U%H%H%H%Z%H%H%U%H%U%H%U%U%H%U%H%U%U%H%Z%U%H%H%H%U%U%H%T%H%H%H%H%  . .         . . . . ",
"                        H%W%W%T%H%U%U%U%U%U%U%U%H%H%H%U%U%U%U%U%U%U%U%U%U%U%U%H%H%H%U%U%U%U%U%U%U%H%T%W%W%H%+ +             . . ",
"                    H%   &T%T%U%U%U%U%U%U%U%U%U%H%U%U%U%U%U%U%U%U%U%U%U%U%U%U%U%U%H%U%U%U%U%U%U%U%U%H%T%T%. + H%            . . ",
"    . .         . . . . T%T%H%U%U%U%U%U%U%U%U%U%U%U%U%U%U%U%U%U%U%U%U%U%U%U%U%U%U%H%U%U%U%U%U%U%U%U%U%H%T%+ / / . .     . .     ",
"    . .         . . . T%H%U%U%U%U%U%U%U%U%U%U%U%U%U%U%U%U%U%U%U%U%U%U%U%U%U%U%U%U%U%U%U%U%U%U%U%U%U%U%U%U%T%T%/ . .     . .     ",
"        . . . .     . T%U%U%U%U%U%U%U%U%U%U%U%U%U%U%U%U%U%U%U%U%U%U%U%U%U%U%U%U%U%U%U%U%U%U%U%U%U%U%U%U%U%T%T%          . .     ",
"        . . . .     T%H%U%U%U%U%U%U%U%U%U%U%U%U%U%U%U%U%U%U%U%U%U%U%U%U%U%U%U%U%U%U%U%U%U%U%U%U%U%U%U%U%U%U%H%T%        . .     ",
"            . .     H%U%U%U%U%U%U%U%U%U%U%U%U%U%U%U%U%U%U%U%U%U%U%U%U%U%U%U%U%U%U%U%U%U%U%U%U%U%U%U%U%U%U%U%U%H%. .             ",
"            . .   T%H%U%U%U%U%U%U%U%U%U%U%U%U%U%U%U%U%U%U%U%U%U%U%U%U%U%U%U%U%U%U%U%U%U%U%U%U%U%U%U%U%U%U%U%U%H%T%.             ",
". .         . . T%T%U%U%U%U%U%U%U%U%U%U%U%U%U%U%U%U%U%U%U%U%U%U%U%U%U%U%U%U%U%U%U%U%U%U%U%U%U%U%U%U%U%U%U%U%U%U%T%T%. .         ",
".&+&        @&T%T%H%U%U%U%U%U%U%U%U%U%U%U%U%U%U%U%U%U%U%U%U%U%U%U%U%U%U%U%U%U%U%U%U%U%U%U%U%U%U%U%U%U%U%U%U%U%U%H%T%. .         ",
"#&+ . .       T%H%U%U%U%U%U%U%U%U%U%U%U%U%U%U%U%U%U%U%U%U%U%U%U%U%U%U%U%U%U%U%U%U%U%U%U%U%U%U%U%U%U%U%U%U%U%U%U%U%H%. .     . . ",
"+ + . .       H%H%U%U%U%U%U%U%U%U%U%U%U%U%U%U%U%U%U%U%U%U%U%U%U%U%U%U%U%U%U%U%U%U%U%U%U%U%U%U%U%U%U%U%U%U%U%U%U%U%H%T%.     . . ",
"/ / + + . . T%H%H%U%U%U%U%U%U%U%U%U%U%U%U%U%U%U%U%U%U%U%U%U%U%U%U%U%U%U%U%U%U%U%U%U%U%U%U%U%U%U%U%U%U%U%U%U%U%U%U%H%T%T%    . . ",
"/ / + + . T%T%H%U%U%U%U%U%U%U%U%U%U%U%U%U%U%U%U%U%U%U%U%U%U%U%U%U%U%U%U%U%U%U%U%U%U%U%U%U%U%U%U%U%U%U%U%U%U%U%U%U%U%H%T%T%  . . ",
". . / / T%H%H%H%U%U%U%U%U%U%U%U%U%U%U%U%U%U%U%U%U%U%U%U%U%U%U%U%U%U%U%U%U%U%U%U%U%U%U%U%U%U%U%U%U%U%U%U%U%U%U%U%U%U%H%H%H%T%. . ",
". . / / T%H%H%U%U%U%U%U%U%U%U%U%U%U%U%U%U%U%U%U%U%U%U%U%U%U%U%U%U%U%U%U%U%U%U%U%U%U%U%U%U%U%U%U%U%U%U%U%U%U%U%U%U%U%H%H%H%T%. . ",
"/ / T%T%H%H%H%U%U%U%U%U%U%U%U%U%U%U%U%U%U%U%U%U%U%U%U%U%U%U%U%U%U%U%U%U%U%U%U%U%U%U%U%U%U%U%U%U%U%U%U%U%U%U%U%U%U%U%H%H%H%  T%T%",
"/ T%/ / H%H%H%U%U%U%U%U%U%U%U%U%U%U%U%U%U%U%U%U%U%U%U%U%U%U%U%U%U%U%U%U%U%U%U%U%U%U%U%U%U%U%U%U%U%U%U%U%U%U%U%U%U%U%H%H%H%H%. . ",
". T%/ / H%H%H%U%U%U%U%U%U%U%U%U%U%U%U%U%U%U%U%U%U%U%U%U%U%U%U%U%U%U%U%U%U%U%U%U%U%U%U%U%U%U%U%U%U%U%U%U%U%U%U%U%U%U%H%H%H%H%    ",
"T%$&/ H%H%H%H%U%U%U%U%U%U%U%U%U%U%U%U%U%U%U%U%U%U%U%U%U%U%U%U%U%U%U%U%U%U%U%U%U%U%U%U%U%U%U%U%U%U%U%U%U%U%U%U%U%U%U%H%H%H%H%H%  ",
"%&&&H%H%T%H%H%U%U%U%U%U%U%U%U%U%U%U%U%U%U%U%U%U%U%U%U%U%U%U%U%U%U%U%U%U%U%U%U%U%U%U%U%U%U%U%U%U%U%U%U%U%U%U%U%U%U%U%H%H%H%H%H%H%",
"    H%H%H%H%H%U%U%U%U%U%U%U%U%U%U%U%U%U%U%U%U%U%U%U%U%U%U%U%U%U%U%U%U%U%U%U%U%U%U%U%U%U%U%U%U%U%U%U%U%U%U%U%U%U%U%U%H%H%H%T%H%H%",
"/ H%H%T%H%H%H%U%U%U%U%U%U%U%U%U%U%U%U%U%U%U%U%U%U%U%U%U%U%U%U%U%U%U%U%U%U%U%U%U%U%U%U%U%U%U%U%U%U%U%U%U%U%U%U%U%U%U%H%H%H%H%T%H%",
"/ H%T%T%H%H%H%U%U%U%U%U%U%U%U%U%U%U%U%U%U%U%U%U%U%U%U%U%U%U%U%U%U%U%U%U%U%U%U%U%U%U%U%U%U%U%U%U%U%U%U%U%U%U%U%U%U%U%H%H%H%H%T%T%",
"/ T%T%H%H%H%H%U%U%U%U%U%U%U%U%U%U%U%U%U%U%U%U%U%U%U%U%U%U%U%U%U%U%U%U%U%U%U%U%U%U%U%U%U%U%U%U%U%U%U%U%U%U%U%U%U%U%U%H%H%H%H%H%T%",
"H%T%H%H%H%H%H%U%U%U%U%U%U%U%U%U%U%U%U%U%U%U%U%U%U%U%U%U%U%U%U%U%U%U%U%U%U%U%U%U%U%U%U%U%U%U%U%U%U%U%U%U%U%U%U%U%U%U%H%H%H%T%H%H%",
"H%T%H%T%H%H%T%U%U%U%U%U%U%U%U%U%U%U%U%U%U%U%U%U%U%U%U%U%U%U%U%U%U%U%U%U%U%U%U%U%U%U%U%U%U%U%U%U%U%U%U%U%U%U%U%U%U%U%H%T%H%T%T%H%",
". H%T%T%H%H%T%U%U%U%U%U%U%U%U%U%U%U%U%U%U%U%U%U%U%U%U%U%U%U%U%U%U%U%U%U%U%U%U%U%U%U%U%U%U%U%U%U%U%U%U%U%U%U%U%U%U%U%H%T%H%H%T%T%",
"T%T%T%H%H%T%T%H%U%U%U%U%U%U%U%U%U%U%U%U%U%U%U%U%U%U%U%U%U%U%U%U%U%U%U%U%U%U%U%U%U%U%U%U%U%U%U%U%U%U%U%U%U%U%U%U%U%U%H%T%T%H%H%T%",
"T%T%T%H%H%T%T%H%U%U%U%U%U%U%U%U%U%U%U%U%U%U%U%U%U%U%U%U%U%U%U%U%U%U%U%U%U%U%U%U%U%U%U%U%U%U%U%U%U%U%U%U%U%U%U%U%U%U%H%T%T%H%H%T%",
"T%T%  H%T%T%T%H%U%U%U%U%U%U%U%U%U%U%U%U%U%U%U%U%U%U%U%U%U%U%U%U%U%U%U%U%U%U%U%U%U%U%U%U%U%U%U%U%U%U%U%U%U%U%U%U%U%U%H%T%T%H%H%. ",
"T%  H%H%T%T%H%H%U%U%U%U%U%U%U%U%U%U%U%U%U%U%U%U%U%U%U%U%U%U%U%U%U%U%U%U%U%U%U%U%U%U%U%U%U%U%U%U%U%U%U%U%U%U%U%U%U%U%H%T%T%H%H%H%"};
