/* XPM */
static char * player_evo_t_xpm[] = {
"64 64 28 1",
" 	c #7B9200",
".	c #5088F8",
"+	c #A0C0F8",
"@	c #EBF2FE",
"#	c #8CB229",
"$	c #CEFB42",
"%	c #BDBA00",
"&	c #B47832",
"*	c #E6EB5A",
"=	c #D6A969",
"-	c #FFFFFF",
";	c #8C5014",
">	c #41167D",
",	c #2E3CC3",
"'	c #2432A5",
")	c #B93C03",
"!	c #7C450F",
"~	c #F0BE7D",
"{	c #CD9B55",
"]	c #FF7808",
"^	c #D74603",
"/	c #C75302",
"(	c #CA590A",
"_	c #897F01",
":	c #969821",
"<	c #D5660E",
"[	c #A46D23",
"}	c #555555",
"  .. +++@@@@@@@@@@@@@@@@@@@@@@@@@@@@@@@@@@@@@@@@@@@@@@@@+++ ..##",
"  .. +++@@@@@@@@@@@@@@@@@@@@@@@@@@@@@@@@@@@@@@@@@@@@@@@@+++ ..##",
"  ...+++@@@@@@@@@@@@@@@@@@@@@@@@@@@@@@@@@@@@@@@@@@@@@@@@+++... +",
" +#..+++@@@@@@@@@@@@@@@@@@@@@@@@@@@@@@@@@@@@@@@@@@@@@@@@+++..#++",
" + ..++@@@@@@@@@@@@@@@@@@@@@@@@@@@@@@@@@@@@@@@@@@@@@@@@@@++..#++",
" ++..++@@@@@@@@@@@@@@@@@@@@@@@@@@@@@@@@@@@@@@@@@@@@@@@@@@++..++ ",
" +++..+@@@@@@@@@@@@@@@@@@@@@@@@@@@@@@@@@@@@@@@@@@@@@@@@@@++..++ ",
"  ++..+@@@@@@@@@@@@@@@@@@@@@@@@@@@@@@@@@@@@@@@@@@@@@@@@@@+...+ .",
"#.++..+@@@@@@@@@@@@@@@@@@@@@@@@@@@@@@@@@@@@@@@@@@@@@@@@@@+..++..",
"#.++..+@@@@@@@@@@@@@@@@@@@@@@@@@@@@@@@@@@@@@@@@@@@@@@@@@@+..++..",
"$..++.+@@@@@@@@@@@@@@@@@@@@@@@@@@@@@@@@@@@@@@@@@@@@@@@@@@@.++..+",
"$+..+.+@@@@@@@@@@@@@@@@@@@@@@@@@@@@@@@@@@@@@@@@@@@@@@@@@@@.++.+.",
"%++.+++@@@@@@@@@@@@@@@@@@@@@@@@@@@@@@@@@@@@@@@@@@@@@@@@@@@+++++.",
"%.+++++@@@@@@@@@@@@@@@@@@@@@@@@@@@@@@@@@@@@@@@@@@@@@@@@@@@++++..",
"#..++++@@@@@@@@@@@@@@@@@@@@@@@@@@@@@@@@@@@@@@@@@@@@@@@@@@@+++..+",
"#+.++++@@@@@@@@@@@@@@@@@@&&@@@@@&&&&&@@@@@@@@@@@@@@@@@@@@@+++.++",
" ++.+++@@@@@@@@@@@@@@@&&&&&@@@&&**===&&@@@@@@@@@@@@@@@@@@@+++++#",
" ++++++@@@@@@@@@@@@@@@&&&&&@@@&&**===&&@@@@@@@@@@@@@@@@@@@++.++#",
"  +++++@@@@@@@@@@@@@@@&&&&&@@@&&**===&&@@@@@@@@@@@@@@@@@@@++++  ",
"   ++++@@@@@@@@@@@@@&&===&&&&&**--===&&@@@@@@@@@@@@@@@@@@@+++  .",
"   ++++@@@@@@@@@@@&&&&***&&===----***==&&&&&@@@@@@@@@@@@@@+++  .",
" .. +++@@@@@@@@@@@&&&&---&&*****&&===**&&&==&&@@@@@@@@@@@@+++.. ",
"   .+++@@@@@@@@@@@&&&&---&&*****&&===**&&&==&&@@@@@@@@@@@@++. ##",
"   .+++@@@@@@@@@&&==&&========&&==&&&==&&&**&&@@@@@@@@@@@+++. ##",
"  ##..+@@@@@@@@@&&==&&========&&==&&&==&&&**&&@@@@@@@@@@@+..  ##",
"  ## ..+@@@@@@@@&&--==&&&==&&&**--&&&==&&&--&&@@@@@@@@@@++.   ##",
"  ####.+@@@@@@@@&&--==&&&==&&&**--&&&==&&&--&&@@@@@@@@@@++##  ##",
"  #### +@@@@@@&&==&&**===&&***----===&&***--==&&&@@@@@@@+.##  ##",
"    ## .+@@@@@&&**====&&&==-----**===&&***==&&&&&@@@@@@+..      ",
"    ## ..@@@@@&&--**&&&&&==---****===&&===&&**;;;@@@@@@..       ",
"    ##  .+@@@@&&--**&&&&&==---****===&&===&&**;;;@@@@@+.    ####",
"    ##   +@@@@&&==**==&&&&&*****==&&&&&&&&&&==;;;@@@@@+#    ####",
"         .+@@@&&==--**&&&==&&&&&&&===&&&&&**;;@@@@@@@+.$      ##",
"          ..@@&&==--**&&&==&&&&&&&===&&&&&**;;@@@@@@@.$$      ##",
"  ##    ##..@@@@&&==**&&&==---**&&===;;===&&;;;;;@@@+.%%##  ##  ",
"  ##    ####.+@@@@@@;;;;;;;;;;==**&&&;;;;;>>>>;;;;;..$%%##  ##  ",
"    #### +##..+@@@,,''>>>))!!!;;;;;;;!!!!!>>;;>>>@..%%+     ##  ",
"    ####  #+--.+@@,,''>>>))!!!;;;;;;;!!!!!>>;;>>>.--+%      ##  ",
"      ##  ##++++.+,,''>>>))!!!;;;;;;;!!!!!>>;;>>>+++##  ##      ",
"      #++ ##%+++''&&;;'''>>)))))!!!!!)))))!!>>+++++$## ++#      ",
"##    ## +++++++&&~~{{;;;>>]]]]]^^^^^]])))!!>>--+++++++ %%##    ",
"##    ##    %+++&&~~{{;;;>>]]]]]^^^^^]])))!!>>+++++$    %%##    ",
"$$##          %%&&{{&&;;;))]]]^^)))))^^!!!>>+++%%%  ##  %%##  ##",
"$$##          %%>>,,''>>>'',,,,,,,'''>>>>>    %%%%  ##  %%##  ##",
"%%$$##  ##    %%>>,,''>>>'',,,,,,,'''>>>>>    %%##  ##  ####  ##",
"%%$$##  ##    %%''''''>>>'',,,,,'''''>> ##    %%##  ##  ####  ##",
"##%%%%  $$$$  ##''''''>>>'',,,,,'''''>> $$$$  ####  ##  ##    ##",
"##%%%%  $$$$  ##&&&&~~;;;^^]]]]]^^^^^^/ $$$$  ####  ##  ##    ##",
"%%%%##  ##$$    &&==&&;;;^^!!!!!))]]]^/ ##$$          ##      ##",
"%%%%##  ##$$    &&==&&;;;^^!!!!!))]]](/ ##$$          ##      ##",
"##%%      %%%%    ;;;;!!!)))))!!!!))_     %%%%      ####        ",
"##%%      %%%%    ;;;;!!!)))))!!!!))_     %%%%      ####        ",
"  %%##    ####  ######!!!!!!!!!!^^]]]:_   ####  ########%%%%    ",
"  %%##    ####  ######>>>!!>>>!!>>>>>^/   ####  ########%%%%    ",
"%%  ##$$$$##    ######>>>!!>>>!!>>>>>^<$$$##    ########%%%%  ##",
"%%  ##$$$$##    ######>>>!!'''>>[[!!!''$$$##    ########%%%%  ##",
"%%    ##%%%%##  ####          [[,,''' ##%%%%##  ####          ##",
"%%    ##%%%%##  ####          [[,,''' ##%%%%##  ####          ##",
"##  ##  ##%%##        ##  ##  [[,,'''#  ##%%##        ##  ##  ##",
"##  ##  ##%%##        ##  ##  >>,,,,,''>>>%%##        ##  ##  ##",
"    ##    ##%%        ##      >>'''''''>>>##%%        ##        ",
"    ##    ##%%        ##      }}>>>>>>>}}}}}%%        ##        ",
"    ##      ##        ##    ##}}>>>>>>>}}}}}##        ##    ####",
"    ##      ##        ##    ####}}}}}}}}}}  ##        ##    ####"};
