/* XPM */
static char * player_death_left_xpm[] = {
"64 64 642 2",
"  	c #7B9200",
". 	c #8CB229",
"+ 	c #CEFB42",
"@ 	c #BDBA00",
"# 	c #B6B300",
"$ 	c #1C0304",
"% 	c #8FB52A",
"& 	c #9AC22E",
"* 	c #627314",
"= 	c #88AB28",
"- 	c #8DA90E",
"; 	c #7F9703",
"> 	c #657300",
", 	c #414301",
"' 	c #404509",
") 	c #3E4108",
"! 	c #566106",
"~ 	c #140501",
"{ 	c #090301",
"] 	c #1E1305",
"^ 	c #463F0F",
"/ 	c #280500",
"( 	c #190000",
"_ 	c #140000",
": 	c #0E0005",
"< 	c #07000C",
"[ 	c #020202",
"} 	c #040202",
"| 	c #040200",
"1 	c #0E0300",
"2 	c #150A05",
"3 	c #060405",
"4 	c #000600",
"5 	c #000506",
"6 	c #000306",
"7 	c #0B0201",
"8 	c #220F08",
"9 	c #140808",
"0 	c #080101",
"a 	c #070203",
"b 	c #060004",
"c 	c #030306",
"d 	c #020300",
"e 	c #010400",
"f 	c #030303",
"g 	c #050301",
"h 	c #0C0503",
"i 	c #616F20",
"j 	c #050303",
"k 	c #040104",
"l 	c #030100",
"m 	c #060100",
"n 	c #110804",
"o 	c #31150A",
"p 	c #130100",
"q 	c #080305",
"r 	c #010101",
"s 	c #010200",
"t 	c #070201",
"u 	c #130000",
"v 	c #361F07",
"w 	c #170706",
"x 	c #0C0306",
"y 	c #000000",
"z 	c #070506",
"A 	c #090109",
"B 	c #B8B501",
"C 	c #462720",
"D 	c #412417",
"E 	c #362323",
"F 	c #070106",
"G 	c #030001",
"H 	c #040001",
"I 	c #090000",
"J 	c #879E35",
"K 	c #0D0103",
"L 	c #0B0001",
"M 	c #0A0000",
"N 	c #050000",
"O 	c #4D3730",
"P 	c #0A0101",
"Q 	c #020204",
"R 	c #060102",
"S 	c #070000",
"T 	c #170200",
"U 	c #020004",
"V 	c #020206",
"W 	c #04000E",
"X 	c #08000A",
"Y 	c #130C03",
"Z 	c #190B02",
"` 	c #1B0800",
" .	c #100607",
"..	c #090002",
"+.	c #000301",
"@.	c #060001",
"#.	c #0E0100",
"$.	c #030003",
"%.	c #070002",
"&.	c #170202",
"*.	c #765945",
"=.	c #7F5531",
"-.	c #7A4E29",
";.	c #68472E",
">.	c #160000",
",.	c #080303",
"'.	c #0B0003",
").	c #160500",
"!.	c #2D0C00",
"~.	c #050501",
"{.	c #040106",
"].	c #1C1611",
"^.	c #543A35",
"/.	c #C39B84",
"(.	c #CA9D71",
"_.	c #9A6A3D",
":.	c #88633E",
"<.	c #553B24",
"[.	c #080600",
"}.	c #020403",
"|.	c #050300",
"1.	c #010103",
"2.	c #000203",
"3.	c #120A04",
"4.	c #090004",
"5.	c #282018",
"6.	c #6C5549",
"7.	c #E9C1AC",
"8.	c #EEBB94",
"9.	c #9F6E3C",
"0.	c #996C3E",
"a.	c #725327",
"b.	c #160600",
"c.	c #0F0305",
"d.	c #0F0200",
"e.	c #1D0D09",
"f.	c #2B0A02",
"g.	c #000404",
"h.	c #7C6D67",
"i.	c #867667",
"j.	c #150204",
"k.	c #030000",
"l.	c #260C05",
"m.	c #784F41",
"n.	c #8D5B33",
"o.	c #EAB988",
"p.	c #D9A77B",
"q.	c #7A522B",
"r.	c #1D0100",
"s.	c #260B09",
"t.	c #100000",
"u.	c #000504",
"v.	c #847263",
"w.	c #8F7B5F",
"x.	c #1D0500",
"y.	c #170802",
"z.	c #1F0000",
"A.	c #7C4F41",
"B.	c #895630",
"C.	c #F5C494",
"D.	c #D8A97E",
"E.	c #774D29",
"F.	c #2C0500",
"G.	c #2F0400",
"H.	c #0B0000",
"I.	c #604931",
"J.	c #6D512D",
"K.	c #8F735D",
"L.	c #A58B78",
"M.	c #E0B8A1",
"N.	c #D19C80",
"O.	c #D5A37D",
"P.	c #808E08",
"Q.	c #7D9003",
"R.	c #7B4C1D",
"S.	c #683414",
"T.	c #682E0B",
"U.	c #733307",
"V.	c #723000",
"W.	c #743401",
"X.	c #0A0003",
"Y.	c #050208",
"Z.	c #100801",
"`.	c #140904",
" +	c #130500",
".+	c #634836",
"++	c #6C4E34",
"@+	c #927556",
"#+	c #B19483",
"$+	c #EDC1AB",
"%+	c #DAA38B",
"&+	c #7C8A04",
"*+	c #6F2E0B",
"=+	c #7F3415",
"-+	c #7A2C04",
";+	c #7D3301",
">+	c #793101",
",+	c #080200",
"'+	c #050206",
")+	c #070006",
"!+	c #010208",
"~+	c #0C0600",
"{+	c #83725A",
"]+	c #887459",
"^+	c #6A4E38",
"/+	c #240E06",
"(+	c #100100",
"_+	c #FDEED8",
":+	c #F4DBCB",
"<+	c #E9BEAF",
"[+	c #E6B199",
"}+	c #E7B48F",
"|+	c #775604",
"1+	c #7A2800",
"2+	c #A24F1B",
"3+	c #9F4E13",
"4+	c #A5531B",
"5+	c #7B2800",
"6+	c #823003",
"7+	c #0D0200",
"8+	c #06030B",
"9+	c #0F0A02",
"0+	c #8D7765",
"a+	c #8A6D57",
"b+	c #7E5C3F",
"c+	c #261300",
"d+	c #211404",
"e+	c #DFD1C6",
"f+	c #E7D2C7",
"g+	c #EEC9BD",
"h+	c #E7B6A2",
"i+	c #E2AF8A",
"j+	c #807205",
"k+	c #8C3100",
"l+	c #AE4F11",
"m+	c #AF520B",
"n+	c #A34E09",
"o+	c #893200",
"p+	c #842E02",
"q+	c #170300",
"r+	c #0A0004",
"s+	c #030400",
"t+	c #1D0404",
"u+	c #3C1B12",
"v+	c #DFBB9E",
"w+	c #987A55",
"x+	c #947A63",
"y+	c #56473E",
"z+	c #FFECE2",
"A+	c #D3A492",
"B+	c #C99B6D",
"C+	c #878A08",
"D+	c #E27D46",
"E+	c #CC6926",
"F+	c #B0631B",
"G+	c #9D4D14",
"H+	c #944517",
"I+	c #722D0B",
"J+	c #0D0006",
"K+	c #140600",
"L+	c #BE984C",
"M+	c #CD916C",
"N+	c #BE8A6C",
"O+	c #9A7464",
"P+	c #AD907E",
"Q+	c #DBB19D",
"R+	c #8DA72C",
"S+	c #6B4327",
"T+	c #631F3D",
"U+	c #6E264C",
"V+	c #6B2636",
"W+	c #632A2B",
"X+	c #742F1B",
"Y+	c #762E1B",
"Z+	c #4C1E20",
"`+	c #6F372F",
" @	c #0F0001",
".@	c #140200",
"+@	c #2C0B00",
"@@	c #D1A555",
"#@	c #D69E74",
"$@	c #DAA686",
"%@	c #D4A381",
"&@	c #DAA37C",
"*@	c #6F5422",
"=@	c #471B57",
"-@	c #3C1171",
";@	c #3F0F7D",
">@	c #41156D",
",@	c #422251",
"'@	c #603040",
")@	c #67313C",
"!@	c #3D1C40",
"~@	c #6A3B44",
"{@	c #87982A",
"]@	c #4D283E",
"^@	c #472384",
"/@	c #3E1CA2",
"(@	c #411EB0",
"_@	c #381897",
":@	c #351874",
"<@	c #432461",
"[@	c #43285F",
"}@	c #301D5C",
"|@	c #4F2740",
"1@	c #44124A",
"2@	c #482281",
"3@	c #4A28A3",
"4@	c #4320A2",
"5@	c #401B99",
"6@	c #2F0F73",
"7@	c #36185D",
"8@	c #361A51",
"9@	c #2E1E46",
"0@	c #4B1B29",
"a@	c #1D0000",
"b@	c #806B03",
"c@	c #7D6713",
"d@	c #5C2040",
"e@	c #734582",
"f@	c #71488C",
"g@	c #855FA3",
"h@	c #81589D",
"i@	c #6D437C",
"j@	c #553051",
"k@	c #573243",
"l@	c #5B3438",
"m@	c #693426",
"n@	c #7F5D0E",
"o@	c #877A01",
"p@	c #8C8605",
"q@	c #BE7E15",
"r@	c #AC7F0E",
"s@	c #A84205",
"t@	c #A1440F",
"u@	c #7F300B",
"v@	c #AC6E57",
"w@	c #A6765B",
"x@	c #DBAE92",
"y@	c #CA9A7F",
"z@	c #B58668",
"A@	c #7C4C24",
"B@	c #80521F",
"C@	c #974918",
"D@	c #885711",
"E@	c #93A827",
"F@	c #D4702B",
"G@	c #CE641B",
"H@	c #C15D08",
"I@	c #A64400",
"J@	c #A44700",
"K@	c #9C4C07",
"L@	c #AF6D36",
"M@	c #A7713F",
"N@	c #AB7A4D",
"O@	c #936031",
"P@	c #814C18",
"Q@	c #835215",
"R@	c #86540E",
"S@	c #9C4A08",
"T@	c #91530E",
"U@	c #91A92C",
"V@	c #C76E55",
"W@	c #BA5E46",
"X@	c #B0622F",
"Y@	c #A34F15",
"Z@	c #A04C06",
"`@	c #945005",
" #	c #AF713B",
".#	c #A7723D",
"+#	c #A67449",
"@#	c #956433",
"##	c #864E1F",
"$#	c #7D5316",
"%#	c #85520F",
"&#	c #964B05",
"*#	c #915D09",
"=#	c #61210F",
"-#	c #53181C",
";#	c #50101F",
">#	c #501021",
",#	c #59190F",
"'#	c #753212",
")#	c #833F04",
"!#	c #914F13",
"~#	c #AC7241",
"{#	c #A77952",
"]#	c #E6BAA2",
"^#	c #CEA480",
"/#	c #C1916A",
"(#	c #7D521C",
"_#	c #895116",
":#	c #B05F1F",
"<#	c #A34D0F",
"[#	c #872E03",
"}#	c #944609",
"|#	c #95480E",
"1#	c #763207",
"2#	c #6F300C",
"3#	c #6B311C",
"4#	c #B49F09",
"5#	c #581616",
"6#	c #581A2D",
"7#	c #4F142D",
"8#	c #4A132E",
"9#	c #52191A",
"0#	c #6A2E17",
"a#	c #7D410E",
"b#	c #8B4D24",
"c#	c #A56C5F",
"d#	c #9E757E",
"e#	c #D8B2CC",
"f#	c #C39FAD",
"g#	c #A88784",
"h#	c #744F40",
"i#	c #7E4836",
"j#	c #B85F29",
"k#	c #AA4D11",
"l#	c #8B2A00",
"m#	c #A74705",
"n#	c #A44C0F",
"o#	c #763006",
"p#	c #6A2D1F",
"q#	c #602C2B",
"r#	c #B3AB04",
"s#	c #8D972F",
"t#	c #AA6161",
"u#	c #AB5F67",
"v#	c #AD636C",
"w#	c #66232C",
"x#	c #623225",
"y#	c #BB8B6E",
"z#	c #AB7A58",
"A#	c #612F20",
"B#	c #572843",
"C#	c #522E70",
"D#	c #381A81",
"E#	c #2F187B",
"F#	c #2C1F5C",
"G#	c #351E55",
"H#	c #482044",
"I#	c #B36232",
"J#	c #BE5A1E",
"K#	c #B14707",
"L#	c #D36B1E",
"M#	c #D4752F",
"N#	c #7A3300",
"O#	c #5F2230",
"P#	c #451742",
"Q#	c #754B43",
"R#	c #7F4A3C",
"S#	c #411D3B",
"T#	c #6D4152",
"U#	c #73541D",
"V#	c #622250",
"W#	c #7A3D71",
"X#	c #6D3568",
"Y#	c #66315E",
"Z#	c #501F46",
"`#	c #4B222E",
" $	c #4F2C23",
".$	c #502A20",
"+$	c #3B1413",
"@$	c #805E6E",
"#$	c #7D5B8F",
"$$	c #381482",
"%$	c #30148B",
"&$	c #281D6F",
"*$	c #2E1D6A",
"=$	c #3E2154",
"-$	c #A35935",
";$	c #B8541A",
">$	c #BD540C",
",$	c #BF540D",
"'$	c #B85514",
")$	c #7B310F",
"!$	c #5F1E40",
"~$	c #4A134E",
"{$	c #904D52",
"]$	c #985948",
"^$	c #3D1C4B",
"/$	c #461F59",
"($	c #6E4045",
"_$	c #7E9006",
":$	c #4C1744",
"<$	c #3A0B6D",
"[$	c #4A2490",
"}$	c #402385",
"|$	c #31156E",
"1$	c #311860",
"2$	c #351F44",
"3$	c #0E0008",
"4$	c #1B0609",
"5$	c #987772",
"6$	c #9B7389",
"7$	c #41146A",
"8$	c #361071",
"9$	c #2F1A65",
"0$	c #28195A",
"a$	c #3F264C",
"b$	c #894225",
"c$	c #AE4E17",
"d$	c #C5631D",
"e$	c #AC490D",
"f$	c #9B400A",
"g$	c #712A10",
"h$	c #5E1939",
"i$	c #4F0D35",
"j$	c #AB5754",
"k$	c #AD614B",
"l$	c #401644",
"m$	c #3E185B",
"n$	c #4D1C31",
"o$	c #72404A",
"p$	c #4B1E6D",
"q$	c #36148F",
"r$	c #302296",
"s$	c #2A1B94",
"t$	c #26187E",
"u$	c #261B6E",
"v$	c #261F4F",
"w$	c #050213",
"x$	c #120908",
"y$	c #482E10",
"z$	c #AD836D",
"A$	c #B17F80",
"B$	c #7A497B",
"C$	c #64396C",
"D$	c #5F3A67",
"E$	c #412A47",
"F$	c #503434",
"G$	c #AA4E1E",
"H$	c #BC9A2C",
"I$	c #9B5814",
"J$	c #6D3006",
"K$	c #8BAF29",
"L$	c #8CB029",
"M$	c #9A7B34",
"N$	c #9A842C",
"O$	c #5E243A",
"P$	c #635824",
"Q$	c #59232E",
"R$	c #3B1846",
"S$	c #2A176D",
"T$	c #2C1D79",
"U$	c #291A75",
"V$	c #2A1C73",
"W$	c #291F5B",
"X$	c #281E58",
"Y$	c #221943",
"Z$	c #0B0114",
"`$	c #24130B",
" %	c #EFBA96",
".%	c #F3C1A5",
"+%	c #E9B69C",
"@%	c #CB9B80",
"#%	c #BC9378",
"$%	c #765241",
"%%	c #777D12",
"&%	c #8FA515",
"*%	c #280A00",
"=%	c #270700",
"-%	c #1E0100",
";%	c #210903",
">%	c #140317",
",%	c #0D0030",
"'%	c #100538",
")%	c #0A0033",
"!%	c #0B0132",
"~%	c #0A0320",
"{%	c #070123",
"]%	c #0E0A24",
"^%	c #0B020E",
"/%	c #221507",
"(%	c #200100",
"_%	c #1E0900",
":%	c #240500",
"<%	c #220500",
"[%	c #200400",
"}%	c #1F0300",
"|%	c #200600",
"1%	c #1C0300",
"2%	c #240600",
"3%	c #290400",
"4%	c #230000",
"5%	c #280400",
"6%	c #260201",
"7%	c #230500",
"8%	c #240700",
"9%	c #270900",
"0%	c #1F0500",
"a%	c #1A0500",
"b%	c #0B0107",
"c%	c #050010",
"d%	c #030014",
"e%	c #020012",
"f%	c #02000C",
"g%	c #000310",
"h%	c #01050D",
"i%	c #1E1506",
"j%	c #110000",
"k%	c #090400",
"l%	c #090100",
"m%	c #0F0000",
"n%	c #170000",
"o%	c #200000",
"p%	c #220100",
"q%	c #250200",
"r%	c #819600",
"s%	c #91B325",
"t%	c #110003",
"u%	c #0A0008",
"v%	c #030308",
"w%	c #050505",
"x%	c #020000",
"y%	c #0E0400",
"z%	c #270D06",
"A%	c #190200",
"B%	c #240C09",
"C%	c #230808",
"D%	c #1E0202",
"E%	c #230303",
"F%	c #0D0000",
"G%	c #050500",
"H%	c #0A0100",
"I%	c #120500",
"J%	c #2C0807",
"K%	c #250A05",
"L%	c #210C03",
"M%	c #210901",
"N%	c #200800",
"O%	c #220801",
"P%	c #250A03",
"Q%	c #220900",
"R%	c #210700",
"S%	c #260C00",
"T%	c #250B00",
"U%	c #260C02",
"V%	c #230B03",
"W%	c #251007",
"X%	c #281006",
"Y%	c #341600",
"                            . . . .     . . + +             . .                             . . . .     . . + +             . . ",
"                            . . . .     . . + +             . .                             . . . .     . . + +             . . ",
"    . .         . . . . @ @ . .         + + @ @ . .     . .         . .         . . . . @ @ . .         + + @ @ . .     . .     ",
"    . .         . . . . @ @ . .         + + @ @ . .     . .         . .         . . . . @ @ . .         + + @ @ . .     . .     ",
"        . . . .     . . @ @         . . @ @             . .             . . . .     . . @ @         . . @ @             . .     ",
"        . . . .     . . @ @         . . @ @             . .             . . . .     . . @ @         . . @ @             . .     ",
"            . .     . . @ @     . . + + . .     . .                         . .     . . @ @     . . + + . .     . .             ",
"            . .     . . @ @     . . + + . .     . .                         . .     . . @ @     . . + + . .     . .             ",
". .         . .         @ @ @ @ + + + +         @ @ . .         . .         . .         @ @ @ @ + + + +         @ @ . .         ",
". .         . .         @ @ @ @ + + + +         @ @ . .         . .         . .         @ @ @ @ + + + +         @ @ . .         ",
"+ + . .                     @ @ @ @     . .     @ @ . .     . . + + . .                     @ @ @ @     . .     @ @ . .     . . ",
"+ + . .                     @ @ @ @     . .     # $ . .     % & + + . .                     @ @ @ @     . .     @ @ . .     . . ",
"@ @ + + . .     . .         @ @ . .     . .     . * = . - ; . . @ @ + + . .     . .         @ @ . .     . .     . . . .     . . ",
"@ @ + + . .     . .         @ @ . . > , ' ) !   . ~ { ] ^   . . @ @ + + . .     . .         @ @ . .     . .     . . . .     . . ",
". . @ @ @ @     + + + +     . / ( _ : < [ } | 1 2 3 4 5 6 7 8 . . . @ @ @ @     + + + +     . . . .     . .     . .         . . ",
". . @ @ @ @     + + + +     . 9 0 a b c [ [ d | | d e [ f g h i . . @ @ @ @     + + + +     . . . .     . .     . .         . . ",
"    . . . .     . . + +       a j j k f [ [ d d d d d l | g m n o   . . . .     . . + +                     . .             . . ",
"    . . . .     . . + +     p q j j k [ r r s r [ [ [ } } | t t u   . . . .     . . + +                     . .             . . ",
"                    @ @ v w x q j j k [ r r y r [ [ [ } } | m z A                   @ @ @ @             . . . .                 ",
"                    @ @ @ B C D E F r y y y r [ [ [ [ [ [ } } G H     I             @ @ @ @             . . . .                 ",
"        . .         . . . .     J K r y y y r [ [ [ [ [ [ } G G } L M N . .         . . . .     . . . . . . . . @ @ @ @         ",
"        . .         . . . .     O P r y y y y Q Q Q Q Q Q } } } } R | S . .         . . . .     . . . . . . . . @ @ @ @         ",
"        . . + + + + . .       T I U r y y y y Q Q Q V V } m m } } [ e S . . + + + + . .         . . . . . . . . @ @ @ @     . . ",
"        . . + + + + . .       q G G G y y y y Q Q Q W X Y Z `  ...} +.@.. . + + + + . .         . . . . . . . . @ @ @ @     . . ",
"    . .     . . @ @ @ @ . . #.G G G $.r r r G Q Q Q %.&.*.=.-.;.>.,.[ R '.%.).!.@ @ @ @ . .     . . . .                     . . ",
"    . .     . . @ @ @ @ . . ~.} G G $.r r r G k k {.].^./.(._.:.<.[.| R j }.. . @ @ @ @ . .     . . . .                     . . ",
"    . . . .     . . @ @ . . |.} r r 1.1.2.1.H P 3.4.5.6.7.8.9.0.a.b.c.d.u e.    . . @ @ . .                 . .     . .     . . ",
"    . . . .     . . @ @ f.#.g.} r r 1.1.2.$.H h.i.j.k.l.m.n.o.p.q.r.s.. . .     . . @ @ . .                 . .     . .     . . ",
"        . .         . . t.j u.Q 1.1.1.1.2.$.%.v.w.x.y.z.A.B.C.D.E.F.G.  . .         . . @ @                 . .                 ",
"        . .         . . H.g d d r r r G 1.$.I I.J.K.L.M.N.O.P.Q.R.S.T.U.V.W.        . . @ @                 . .                 ",
"        . .             X.Y.} | | d | N Z.`. +.+++@+#+$+%+O.. . &+*+=+-+;+>+            . .                 . .         . . . . ",
"        . .             ,+'+)+S k !+{.~+{+]+^+/+(+_+:+<+[+}+. .   |+1+2+3+4+5+6+        . .                 . .         . . . . ",
"                        7+  . . . 8+'+9+0+a+b+c+d+e+f+g+h+i+. .   j+k+l+m+n+o+p+- -         . . . .     . . + +             . . ",
"                        q+  . . . r+s+,+t+u+v+w+x+>.y+z+A+B+. .     C+D+E+F+G+H+I+          . . . .     . . + +             . . ",
"    . .         . . . . @ @ . .   J+%.K++ + L+M+N+O+P+Q+R+.       S+T+U+V+W+X+Y+Z+`+. . @ @ . .         + + @ @ . .     . .     ",
"    . .         . . . . @ @ . .    @.@+@+ + @ @@#@$@%@&@. .     *@=@-@;@>@,@'@)@!@~@. . @ @ . .         + + @ @ . .     . .     ",
"        . . . .     . . @ @       p {@. @ @             . .     ]@^@/@(@_@:@<@[@}@|@. . @ @         . . @ @             . .     ",
"        . . . .     . . @ @       u . . @ @             . .     1@2@3@4@5@6@7@8@9@0@. . @ @         . . @ @             . .     ",
"            . .     . . @ @     . a@+ + . .     . .         b@c@d@e@f@g@h@i@j@k@l@m@. . @ @     . . + + . .     . .             ",
"            . .     . . @ @     . . + + . .     . n@o@p@q@r@s@t@u@v@w@x@y@z@A@B@C@D@. . @ @     . . + + . .     . .             ",
". .         . .         @ @ @ @ + + + +         @ @ E@F@G@H@I@J@K@L@M@N@O@P@Q@R@S@T@    @ @ @ @ + + + +         @ @ . .         ",
". .         . .         @ @ @ @ + + + +         @ @ U@V@W@X@Y@Z@`@ #.#+#@###$#%#&#*#    @ @ @ @ + + + +         @ @ . .         ",
"+ + . .                     @ @ @ @     . .     @ =#-#;#>#,#'#)#!#~#{#]#^#/#(#_#:#<#[#}#|#1#2#3#@ @     . .     @ @ . .     . . ",
"+ + . .                     @ @ @ @     . .     4#5#6#7#8#9#0#a#b#c#d#e#f#g#h#i#j#k#l#m#n#o#p#q#@ r#    . .     @ @ . .     . . ",
"@ @ + + . .     . .         @ @ . .     . .     s#t#u#v#w#x#y#z#A#B#C#D#E#F#G#H#I#J#K#L#M#N#O#P#Q#R#S#T#. .     . . . .     . . ",
"@ @ + + . .     . .         @ @ . .     . .   U#V#W#X#Y#Z#`# $.$+$@$#$$$%$&$*$=$-$;$>$,$'$)$!$~${$]$^$/$($.     . . . .     . . ",
". . @ @ @ @     + + + +     . . . .     . . _$:$<$[$}$|$1$2$3$4$( 5$6$7$8$9$0$a$b$c$d$e$f$g$h$i$j$k$l$m$n$.     . .         . . ",
". . @ @ @ @     + + + +     . . . .     . . o$p$q$r$s$t$u$v$w$x$y$z$A$B$C$D$E$F$+ G$H$I$  J$K$L$M$N$O$P$Q$.     . .         . . ",
"@ @ @ @ . .     . . + +                     R$S$T$U$V$W$X$Y$Z$`$   %.%+%@%#%$%%%. . + +                 &%  . .             . . ",
"@ @ @ @ . .     . . + +             *%=%-%;%>%,%'%)%!%~%{%]%^%/%    . . . . (%_%:%<%[%}%|%1%2%3%4%5%6%7%8%  . .             . . ",
". . @ @             @ @ @ @         r.9%0%a%b%c%d%e%f%[ g%h%| i%            j%k%H.H.L H.l%m%n%a@o%p%z.z.q%. . .                 ",
". . @ @             @ @ @ @         r%r%s%s%t%u%b b R m v%w%x%y%z%A%B%C%D%E%F%G%H%H%H.F%I%@         r%r%s%. . .                 ",
"    @ @ . .         . . . .     . . . . . . J%K%L%L%L%M%N%N%O%P%P%Q%R%S%T%U%l.P%M%V%W%X%Y%.     . . . . . . . . @ @ @ @         ",
"    @ @ . .         . . . .     . . . . . . . . @ @ @ @                 . .         . . . .     . . . . . . . . @ @ @ @         ",
"@ @     . . + + + + . .         . . . . . . . . @ @ @ @     . .         . . + + + + . .         . . . . . . . . @ @ @ @     . . ",
"@ @     . . + + + + . .         . . . . . . . . @ @ @ @     . .         . . + + + + . .         . . . . . . . . @ @ @ @     . . ",
"@ @         . . @ @ @ @ . .     . . . .                     . .     . .     . . @ @ @ @ . .     . . . .                     . . ",
"@ @         . . @ @ @ @ . .     . . . .                     . .     . .     . . @ @ @ @ . .     . . . .                     . . ",
". .     . .     . . @ @ . .                 . .     . .     . .     . . . .     . . @ @ . .                 . .     . .     . . ",
". .     . .     . . @ @ . .                 . .     . .     . .     . . . .     . . @ @ . .                 . .     . .     . . ",
"        . .         . . @ @                 . .                         . .         . . @ @                 . .                 ",
"        . .         . . @ @                 . .                         . .         . . @ @                 . .                 ",
"        . .             . .                 . .         . . . .         . .             . .                 . .         . . . . ",
"        . .             . .                 . .         . . . .         . .             . .                 . .         . . . . "};
