/* XPM */
static char * player_death_right_xpm[] = {
"64 64 705 2",
"  	c #7B9200",
". 	c #8CB229",
"+ 	c #CEFB42",
"@ 	c #BDBA00",
"# 	c #1C0304",
"$ 	c #555200",
"% 	c #738001",
"& 	c #607022",
"* 	c #3B3700",
"= 	c #94A42A",
"- 	c #443C10",
"; 	c #1E1305",
"> 	c #090301",
", 	c #140501",
"' 	c #868C30",
") 	c #8EA43C",
"! 	c #36360C",
"~ 	c #2B2600",
"{ 	c #2B2700",
"] 	c #2E2901",
"^ 	c #413E00",
"/ 	c #BCB802",
"( 	c #8FAA2B",
"_ 	c #220F08",
": 	c #0B0201",
"< 	c #000306",
"[ 	c #000506",
"} 	c #000600",
"| 	c #060405",
"1 	c #150A05",
"2 	c #0E0300",
"3 	c #040200",
"4 	c #040202",
"5 	c #020202",
"6 	c #07000C",
"7 	c #0E0005",
"8 	c #140000",
"9 	c #190000",
"0 	c #280500",
"a 	c #4C4E1B",
"b 	c #0C0503",
"c 	c #050301",
"d 	c #030303",
"e 	c #010400",
"f 	c #020300",
"g 	c #030306",
"h 	c #060004",
"i 	c #070203",
"j 	c #080101",
"k 	c #140808",
"l 	c #8DB12B",
"m 	c #7D9002",
"n 	c #31150A",
"o 	c #110804",
"p 	c #060100",
"q 	c #030100",
"r 	c #040104",
"s 	c #050303",
"t 	c #818C0A",
"u 	c #130000",
"v 	c #070201",
"w 	c #010101",
"x 	c #010200",
"y 	c #080305",
"z 	c #130100",
"A 	c #758600",
"B 	c #090109",
"C 	c #070506",
"D 	c #000000",
"E 	c #0C0306",
"F 	c #170706",
"G 	c #361F07",
"H 	c #090000",
"I 	c #040001",
"J 	c #030001",
"K 	c #070106",
"L 	c #362323",
"M 	c #412417",
"N 	c #462720",
"O 	c #6A7208",
"P 	c #050000",
"Q 	c #0A0000",
"R 	c #0B0001",
"S 	c #0D0103",
"T 	c #7A6656",
"U 	c #070000",
"V 	c #060102",
"W 	c #020204",
"X 	c #0A0101",
"Y 	c #4D3730",
"Z 	c #7D7A34",
"` 	c #020206",
" .	c #020004",
"..	c #170200",
"+.	c #BBB509",
"@.	c #060001",
"#.	c #000301",
"$.	c #090002",
"%.	c #100607",
"&.	c #1B0800",
"*.	c #190B02",
"=.	c #130C03",
"-.	c #08000A",
";.	c #04000E",
">.	c #2D0C00",
",.	c #160500",
"'.	c #070002",
").	c #0B0003",
"!.	c #080303",
"~.	c #160000",
"{.	c #68472E",
"].	c #7A4E29",
"^.	c #7F5531",
"/.	c #765945",
"(.	c #170202",
"_.	c #030003",
":.	c #0E0100",
"<.	c #020403",
"[.	c #080600",
"}.	c #553B24",
"|.	c #88633E",
"1.	c #9A6A3D",
"2.	c #CA9D71",
"3.	c #C39B84",
"4.	c #543A35",
"5.	c #1C1611",
"6.	c #040106",
"7.	c #050501",
"8.	c #7F8F0A",
"9.	c #818D15",
"0.	c #1D0D09",
"a.	c #0F0200",
"b.	c #0F0305",
"c.	c #160600",
"d.	c #725327",
"e.	c #996C3E",
"f.	c #9F6E3C",
"g.	c #EEBB94",
"h.	c #E9C1AC",
"i.	c #6C5549",
"j.	c #282018",
"k.	c #090004",
"l.	c #120A04",
"m.	c #010103",
"n.	c #000203",
"o.	c #050300",
"p.	c #8EAE2F",
"q.	c #7F900C",
"r.	c #260B09",
"s.	c #1D0100",
"t.	c #7A522B",
"u.	c #D9A77B",
"v.	c #EAB988",
"w.	c #8D5B33",
"x.	c #784F41",
"y.	c #260C05",
"z.	c #030000",
"A.	c #150204",
"B.	c #867667",
"C.	c #7C6D67",
"D.	c #000404",
"E.	c #2B0A02",
"F.	c #2F0400",
"G.	c #2C0500",
"H.	c #774D29",
"I.	c #D8A97E",
"J.	c #F5C494",
"K.	c #895630",
"L.	c #7C4F41",
"M.	c #1F0000",
"N.	c #170802",
"O.	c #1D0500",
"P.	c #8F7B5F",
"Q.	c #847263",
"R.	c #000504",
"S.	c #100000",
"T.	c #91A32B",
"U.	c #8EAE2A",
"V.	c #743401",
"W.	c #723000",
"X.	c #733307",
"Y.	c #682E0B",
"Z.	c #683414",
"`.	c #7B4C1D",
" +	c #9E6F3F",
".+	c #A37243",
"++	c #D5A37D",
"@+	c #D19C80",
"#+	c #E0B8A1",
"$+	c #A58B78",
"%+	c #8F735D",
"&+	c #6D512D",
"*+	c #604931",
"=+	c #0B0000",
"-+	c #92A52B",
";+	c #90A72B",
">+	c #793101",
",+	c #7D3301",
"'+	c #7A2C04",
")+	c #7F3415",
"!+	c #6F2E0B",
"~+	c #824F1E",
"{+	c #997631",
"]+	c #9C713B",
"^+	c #DAA38B",
"/+	c #EDC1AB",
"(+	c #B19483",
"_+	c #927556",
":+	c #6C4E34",
"<+	c #634836",
"[+	c #130500",
"}+	c #140904",
"|+	c #100801",
"1+	c #050208",
"2+	c #0A0003",
"3+	c #823003",
"4+	c #7B2800",
"5+	c #A5531B",
"6+	c #9F4E13",
"7+	c #A24F1B",
"8+	c #7A2800",
"9+	c #753106",
"0+	c #828B1D",
"a+	c #E7B48F",
"b+	c #E6B199",
"c+	c #E9BEAF",
"d+	c #F4DBCB",
"e+	c #FDEED8",
"f+	c #100100",
"g+	c #240E06",
"h+	c #6A4E38",
"i+	c #887459",
"j+	c #83725A",
"k+	c #0C0600",
"l+	c #010208",
"m+	c #070006",
"n+	c #050206",
"o+	c #080200",
"p+	c #842E02",
"q+	c #893200",
"r+	c #A34E09",
"s+	c #AF520B",
"t+	c #AE4F11",
"u+	c #8C3100",
"v+	c #893F0D",
"w+	c #82851B",
"x+	c #E2AF8A",
"y+	c #E7B6A2",
"z+	c #EEC9BD",
"A+	c #E7D2C7",
"B+	c #DFD1C6",
"C+	c #211404",
"D+	c #261300",
"E+	c #7E5C3F",
"F+	c #8A6D57",
"G+	c #8D7765",
"H+	c #0F0A02",
"I+	c #06030B",
"J+	c #779325",
"K+	c #728501",
"L+	c #0D0200",
"M+	c #A28633",
"N+	c #722D0B",
"O+	c #944517",
"P+	c #9D4D14",
"Q+	c #B0631B",
"R+	c #CC6926",
"S+	c #E27D46",
"T+	c #C1612F",
"U+	c #AE6233",
"V+	c #807718",
"W+	c #CE9C74",
"X+	c #D3A492",
"Y+	c #FFECE2",
"Z+	c #56473E",
"`+	c #947A63",
" @	c #987A55",
".@	c #DFBB9E",
"+@	c #3C1B12",
"@@	c #1D0404",
"#@	c #030400",
"$@	c #0A0004",
"%@	c #170300",
"&@	c #8BAE2A",
"*@	c #6F372F",
"=@	c #4C1E20",
"-@	c #762E1B",
";@	c #742F1B",
">@	c #632A2B",
",@	c #6B2636",
"'@	c #6E264C",
")@	c #631F3D",
"!@	c #662934",
"~@	c #746509",
"{@	c #8DAA2A",
"]@	c #946044",
"^@	c #DBB19D",
"/@	c #AD907E",
"(@	c #9A7464",
"_@	c #BE8A6C",
":@	c #CD916C",
"<@	c #BE8B68",
"[@	c #140600",
"}@	c #0D0006",
"|@	c #6A3B44",
"1@	c #3D1C40",
"2@	c #67313C",
"3@	c #603040",
"4@	c #422251",
"5@	c #41156D",
"6@	c #3F0F7D",
"7@	c #3C1171",
"8@	c #471B57",
"9@	c #683035",
"0@	c #7C8B05",
"a@	c #DAA37C",
"b@	c #D4A381",
"c@	c #DAA686",
"d@	c #D89D76",
"e@	c #D89E70",
"f@	c #2C0B00",
"g@	c #140200",
"h@	c #0F0001",
"i@	c #848B07",
"j@	c #7C9101",
"k@	c #4F2740",
"l@	c #301D5C",
"m@	c #43285F",
"n@	c #432461",
"o@	c #351874",
"p@	c #381897",
"q@	c #411EB0",
"r@	c #3E1CA2",
"s@	c #472384",
"t@	c #491F44",
"u@	c #8EAF2B",
"v@	c #7E692D",
"w@	c #4B1B29",
"x@	c #2E1E46",
"y@	c #361A51",
"z@	c #36185D",
"A@	c #2F0F73",
"B@	c #401B99",
"C@	c #4320A2",
"D@	c #4A28A3",
"E@	c #482281",
"F@	c #44124A",
"G@	c #716513",
"H@	c #757100",
"I@	c #693426",
"J@	c #5B3438",
"K@	c #573243",
"L@	c #553051",
"M@	c #6D437C",
"N@	c #81589D",
"O@	c #855FA3",
"P@	c #71488C",
"Q@	c #734582",
"R@	c #5C2040",
"S@	c #7F3927",
"T@	c #873B07",
"U@	c #AD5D19",
"V@	c #AC5D14",
"W@	c #887806",
"X@	c #808505",
"Y@	c #1D0000",
"Z@	c #8C4716",
"`@	c #974918",
" #	c #80521F",
".#	c #7C4C24",
"+#	c #B58668",
"@#	c #CA9A7F",
"##	c #DBAE92",
"$#	c #A6765B",
"%#	c #AC6E57",
"&#	c #7F300B",
"*#	c #A1440F",
"=#	c #A84205",
"-#	c #D76E1B",
";#	c #DF7420",
">#	c #C55F17",
",#	c #A24404",
"'#	c #782F00",
")#	c #97A931",
"!#	c #8FAB28",
"~#	c #90A92B",
"{#	c #92A528",
"]#	c #964511",
"^#	c #9C4A08",
"/#	c #86540E",
"(#	c #835215",
"_#	c #814C18",
":#	c #936031",
"<#	c #AB7A4D",
"[#	c #A7713F",
"}#	c #AF6D36",
"|#	c #9C4C07",
"1#	c #A44700",
"2#	c #A64400",
"3#	c #C15D08",
"4#	c #CE641B",
"5#	c #D4702B",
"6#	c #BF641C",
"7#	c #AF6129",
"8#	c #994A0C",
"9#	c #964B05",
"0#	c #85520F",
"a#	c #7D5316",
"b#	c #864E1F",
"c#	c #956433",
"d#	c #A67449",
"e#	c #A7723D",
"f#	c #AF713B",
"g#	c #945005",
"h#	c #A04C06",
"i#	c #A34F15",
"j#	c #B0622F",
"k#	c #BA5E46",
"l#	c #C76E55",
"m#	c #B36443",
"n#	c #A35733",
"o#	c #6B311C",
"p#	c #6F300C",
"q#	c #763207",
"r#	c #95480E",
"s#	c #963F0A",
"t#	c #872E03",
"u#	c #A34D0F",
"v#	c #B05F1F",
"w#	c #895116",
"x#	c #7D521C",
"y#	c #C1916A",
"z#	c #CEA480",
"A#	c #E6BAA2",
"B#	c #A77952",
"C#	c #AC7241",
"D#	c #914F13",
"E#	c #833F04",
"F#	c #753212",
"G#	c #59190F",
"H#	c #501021",
"I#	c #50101F",
"J#	c #53181C",
"K#	c #5E1C10",
"L#	c #7F8705",
"M#	c #8B7909",
"N#	c #886B15",
"O#	c #9E8B0C",
"P#	c #602C2B",
"Q#	c #6A2D1F",
"R#	c #763006",
"S#	c #A44C0F",
"T#	c #A74705",
"U#	c #8B2A00",
"V#	c #AA4D11",
"W#	c #B85F29",
"X#	c #7E4836",
"Y#	c #744F40",
"Z#	c #A88784",
"`#	c #C39FAD",
" $	c #D8B2CC",
".$	c #9E757E",
"+$	c #A56C5F",
"@$	c #8B4D24",
"#$	c #7D410E",
"$$	c #6A2E17",
"%$	c #52191A",
"&$	c #4A132E",
"*$	c #4F142D",
"=$	c #581A2D",
"-$	c #581616",
";$	c #974828",
">$	c #996511",
",$	c #818C0C",
"'$	c #6C3D56",
")$	c #411D3B",
"!$	c #7F4A3C",
"~$	c #734046",
"{$	c #451742",
"]$	c #5F2230",
"^$	c #7A3300",
"/$	c #D4752F",
"($	c #D36B1E",
"_$	c #B14707",
":$	c #BE5A1E",
"<$	c #B36232",
"[$	c #482044",
"}$	c #351E55",
"|$	c #2C1F5C",
"1$	c #2F187B",
"2$	c #381A81",
"3$	c #522E70",
"4$	c #572843",
"5$	c #612F20",
"6$	c #AB7A58",
"7$	c #BB8B6E",
"8$	c #623225",
"9$	c #66232C",
"0$	c #AD636C",
"a$	c #AB5F67",
"b$	c #AA6161",
"c$	c #8F4742",
"d$	c #95772D",
"e$	c #828C07",
"f$	c #6D3C46",
"g$	c #461F59",
"h$	c #3D1C4B",
"i$	c #985948",
"j$	c #904D52",
"k$	c #4A134E",
"l$	c #5F1E40",
"m$	c #7B310F",
"n$	c #B85514",
"o$	c #BF540D",
"p$	c #BD540C",
"q$	c #B8541A",
"r$	c #A35935",
"s$	c #3E2154",
"t$	c #2E1D6A",
"u$	c #281D6F",
"v$	c #30148B",
"w$	c #381482",
"x$	c #7D5B8F",
"y$	c #805E6E",
"z$	c #3B1413",
"A$	c #502A20",
"B$	c #4F2C23",
"C$	c #4B222E",
"D$	c #501F46",
"E$	c #66315E",
"F$	c #6D3568",
"G$	c #7A3D71",
"H$	c #622250",
"I$	c #6F302E",
"J$	c #978E30",
"K$	c #828D06",
"L$	c #4D1C31",
"M$	c #3E185B",
"N$	c #401644",
"O$	c #AD614B",
"P$	c #AB5754",
"Q$	c #4F0D35",
"R$	c #5E1939",
"S$	c #712A10",
"T$	c #9B400A",
"U$	c #AC490D",
"V$	c #C5631D",
"W$	c #AE4E17",
"X$	c #894225",
"Y$	c #3F264C",
"Z$	c #28195A",
"`$	c #2F1A65",
" %	c #361071",
".%	c #41146A",
"+%	c #9B7389",
"@%	c #987772",
"#%	c #1B0609",
"$%	c #0E0008",
"%%	c #351F44",
"&%	c #311860",
"*%	c #31156E",
"=%	c #402385",
"-%	c #4A2490",
";%	c #3A0B6D",
">%	c #4C1744",
",%	c #9C7E42",
"'%	c #808E05",
")%	c #8DB029",
"!%	c #59232E",
"~%	c #5D4A2D",
"{%	c #5E243A",
"]%	c #A7562F",
"^%	c #A5533C",
"/%	c #85902A",
"(%	c #83882B",
"_%	c #6D3006",
":%	c #807606",
"<%	c #96460F",
"[%	c #AE531B",
"}%	c #AA4E1E",
"|%	c #7B8A03",
"1%	c #503434",
"2%	c #412A47",
"3%	c #5F3A67",
"4%	c #64396C",
"5%	c #7A497B",
"6%	c #B17F80",
"7%	c #AD836D",
"8%	c #41200D",
"9%	c #120908",
"0%	c #050213",
"a%	c #261F4F",
"b%	c #261B6E",
"c%	c #26187E",
"d%	c #2A1B94",
"e%	c #302296",
"f%	c #36148F",
"g%	c #4B1E6D",
"h%	c #72404A",
"i%	c #808F04",
"j%	c #B0C637",
"k%	c #856A1F",
"l%	c #817D0F",
"m%	c #74711C",
"n%	c #765241",
"o%	c #BC9378",
"p%	c #CB9B80",
"q%	c #E9B69C",
"r%	c #F3C1A5",
"s%	c #EFBA96",
"t%	c #24130B",
"u%	c #0B0114",
"v%	c #221943",
"w%	c #281E58",
"x%	c #291F5B",
"y%	c #2A1C73",
"z%	c #291A75",
"A%	c #2C1D79",
"B%	c #2A176D",
"C%	c #3B1846",
"D%	c #7C9102",
"E%	c #240700",
"F%	c #230500",
"G%	c #260201",
"H%	c #280400",
"I%	c #230000",
"J%	c #290400",
"K%	c #240600",
"L%	c #1C0300",
"M%	c #200600",
"N%	c #1F0300",
"O%	c #200400",
"P%	c #220500",
"Q%	c #240500",
"R%	c #1E0900",
"S%	c #200100",
"T%	c #7D8D06",
"U%	c #221507",
"V%	c #0B020E",
"W%	c #0E0A24",
"X%	c #070123",
"Y%	c #0A0320",
"Z%	c #0B0132",
"`%	c #0A0033",
" &	c #100538",
".&	c #0D0030",
"+&	c #140317",
"@&	c #210903",
"#&	c #1E0100",
"$&	c #270700",
"%&	c #280A00",
"&&	c #250200",
"*&	c #220100",
"=&	c #200000",
"-&	c #170000",
";&	c #0F0000",
">&	c #090100",
",&	c #090400",
"'&	c #110000",
")&	c #7D8A0E",
"!&	c #7E8D0C",
"~&	c #7C9005",
"{&	c #1E1506",
"]&	c #01050D",
"^&	c #000310",
"/&	c #02000C",
"(&	c #020012",
"_&	c #030014",
":&	c #050010",
"<&	c #0B0107",
"[&	c #1A0500",
"}&	c #1F0500",
"|&	c #270900",
"1&	c #120500",
"2&	c #0D0000",
"3&	c #0A0100",
"4&	c #050500",
"5&	c #230303",
"6&	c #1E0202",
"7&	c #230808",
"8&	c #240C09",
"9&	c #190200",
"0&	c #270D06",
"a&	c #0E0400",
"b&	c #020000",
"c&	c #050505",
"d&	c #030308",
"e&	c #0A0008",
"f&	c #110003",
"g&	c #341600",
"h&	c #281006",
"i&	c #251007",
"j&	c #230B03",
"k&	c #210901",
"l&	c #250A03",
"m&	c #260C02",
"n&	c #250B00",
"o&	c #260C00",
"p&	c #210700",
"q&	c #220900",
"r&	c #220801",
"s&	c #200800",
"t&	c #210C03",
"u&	c #250A05",
"v&	c #2C0807",
"                            . . . .     . . + +             . .                             . . . .     . . + +             . . ",
"                            . . . .     . . + +             . .                             . . . .     . . + +             . . ",
"    . .         . . . . @ @ . .         + + @ @ . .     . .         . .         . . . . @ @ . .         + + @ @ . .     . .     ",
"    . .         . . . . @ @ . .         + + @ @ . .     . .         . .         . . . . @ @ . .         + + @ @ . .     . .     ",
"        . . . .     . . @ @         . . @ @             . .             . . . .     . . @ @         . . @ @             . .     ",
"        . . . .     . . @ @         . . @ @             . .             . . . .     . . @ @         . . @ @             . .     ",
"            . .     . . @ @     . . + + . .     . .                         . .     . . @ @     . . + + . .     . .             ",
"            . .     . . @ @     . . + + . .     . .                         . .     . . @ @     . . + + . .     . .             ",
". .         . .         @ @ @ @ + + + +         @ @ . .         . .         . .         @ @ @ @ + + + +         @ @ . .         ",
". .         . .         @ @ @ @ + + + +         @ @ . .         . .         . .         @ @ @ @ + + + +         @ @ . .         ",
"+ + . .                     @ @ @ @     . .     @ @ . .     . . + + . .                     @ @ @ @     . .     @ @ . .     . . ",
"+ + . .                     @ @ @ @     . .     @ @ . .     . . + + . .     # $ %           @ @ @ @     . .     @ @ . .     . . ",
"@ @ + + . .     . .         @ @ . .     . .     . . . .     . . @ @ + + . & *   . .         @ @ . .     . .     . . . .     . . ",
"@ @ + + . .     . .         @ @ . .     . .     . . . .     . . @ @ = - ; > , ' ) ! ~ { ] ^ @ / ( .     . .     . . . .     . . ",
". . @ @ @ @     + + + +     . . . .     . .     . .         . . . _ : < [ } | 1 2 3 4 5 6 7 8 9 0 .     . .     . .         . . ",
". . @ @ @ @     + + + +     . . . .     . .     . .         . . a b c d 5 e f 3 3 f 5 5 g h i j k l     . .     . .         . . ",
"    . . . .     . . + +                     . .     m       . n o p c 3 q f f f f f 5 5 d r s s i           . .             . . ",
"    . . . .     . . + +                     . .     t       . u v v 3 4 4 5 5 5 w x w w 5 r s s y z         . .             . . ",
"                    @ @ @ @             . . . .     A         B C p 3 4 4 5 5 5 w D w w 5 r s s y E F G . . . .                 ",
"                    @ @ @ @             . . . .         H     I J 4 4 5 5 5 5 5 5 w D D D w K L M N O   . . . .                 ",
"        . .         . . . .     . . . . . . . . @ @ @ @ P Q R 4 J J 4 5 5 5 5 5 5 w D D D w S T . . . . . . . . @ @ @ @         ",
"        . .         . . . .     . . . . . . . . @ @ @ @ U 3 V 4 4 4 4 W W W W W W D D D D w X Y Z . . . . . . . @ @ @ @         ",
"        . . + + + + . .         . . . . . . . . @ @ @ @ U e 5 4 4 p p 4 ` ` W W W D D D D w  .H ... . . . . . . @ @ @ @     . . ",
"        . . + + + + . .         . . . . . . . . @ @ +.@ @.#.4 $.%.&.*.=.-.;.W W W D D D D J J J y . . . . . . . @ @ @ @     . . ",
"    . .     . . @ @ @ @ . .     . . . .         >.,.'.).V 5 !.~.{.].^./.(.'.W W W J w w w _.J J J :.. .                     . . ",
"    . .     . . @ @ @ @ . .     . . . .             <.s V 3 [.}.|.1.2.3.4.5.6.r r J w w w _.J J 4 7.. .                     . . ",
"    . . . .     . . @ @ . .                 . . 8.9.0.u a.b.c.d.e.f.g.h.i.j.k.l.X I m.n.m.m.w w 4 o.        . .     . .     . . ",
"    . . . .     . . @ @ . .                 . .     p.l q.r.s.t.u.v.w.x.y.z.A.B.C.I _.n.m.m.w w 4 D.:.E.    . .     . .     . . ",
"        . .         . . @ @                 . .           F.G.H.I.J.K.L.M.N.O.P.Q.'._.n.m.m.m.m.W R.s S.    . .                 ",
"        . .         . . @ @                 T.U.    V.W.X.Y.Z.`. +.+++@+#+$+%+&+*+H _.m.J w w w f f c =+    . .                 ",
"        . .             . .                 -+;+    >+,+'+)+!+~+{+]+++^+/+(+_+:+<+[+}+|+P 3 f 3 3 4 1+2+    . .         . . . . ",
"        . .             . .                 . . 3+4+5+6+7+8+9+0+    a+b+c+d+e+f+g+h+i+j+k+6.l+r U m+n+o+    . .         . . . . ",
"                            . . . .     . . + + p+q+r+s+t+u+v+w+    x+y+z+A+B+C+D+E+F+G+H+n+I+J+. . K+L+. . + +             . . ",
"                            . . . .     . . M+N+O+P+Q+R+S+T+U+V+    W+X+Y+Z+~.`+ @.@+@@@o+#@$@. . .   %@&@. + +             . . ",
"    . .         . . . . @ @ . .         + + *@=@-@;@>@,@'@)@!@~@    {@]@^@/@(@_@:@<@. . [@'.}@.         + + @ @ . .     . .     ",
"    . .         . . . . @ @ . .         + + |@1@2@3@4@5@6@7@8@9@0@  . . a@b@c@d@e@. . . f@g@h@.   i@j@  + + @ @ . .     . .     ",
"        . . . .     . . @ @         . . @ @ k@l@m@n@o@p@q@r@s@t@        . . u@.     . . @ v@z       . . @ @             . .     ",
"        . . . .     . . @ @         . . @ @ w@x@y@z@A@B@C@D@E@F@G@H@    . . . .     . . @ @ u       . . @ @             . .     ",
"            . .     . . @ @     . . + + . . I@J@K@L@M@N@O@P@Q@R@S@T@U@V@W@X@. .     . . @ @ Y@  . . + + . .     . .             ",
"            . .     . . @ @     . . + + . . Z@`@ #.#+#@###$#%#&#*#=#-#;#>#,#'#)#    . !#@ @     ~#{#+ + . .     . .             ",
". .         . .         @ @ @ @ + + + +     ]#^#/#(#_#:#<#[#}#|#1#2#3#4#5#6#7#.         @ @ @ @ + + + +         @ @ . .         ",
". .         . .         @ @ @ @ + + + +     8#9#0#a#b#c#d#e#f#g#h#i#j#k#l#m#n#.         @ @ @ @ + + + +         @ @ . .         ",
"+ + . .                     @ @ o#p#q#r#s#t#u#v#w#x#y#z#A#B#C#D#E#F#G#H#I#J#K#L#M#          @ @ @ @     . .     @ @ . .     . . ",
"+ + . .                     N#O#P#Q#R#S#T#U#V#W#X#Y#Z#`# $.$+$@$#$$$%$&$*$=$-$;$>$          @ @ @ @     . .     @ @ . .     . . ",
"@ @ + + . .     . .   ,$'$)$!$~${$]$^$/$($_$:$<$[$}$|$1$2$3$4$5$6$7$8$9$0$a$b$c$d$.         @ @ . .   e$. .     . . . .     . . ",
"@ @ + + . .     . .   f$g$h$i$j$k$l$m$n$o$p$q$r$s$t$u$v$w$x$y$z$A$B$C$D$E$F$G$H$I$J$        @ @ . .   K$. .     . . . .     . . ",
". . @ @ @ @     + + + L$M$N$O$P$Q$R$S$T$U$V$W$X$Y$Z$`$ %.%+%@%9 #%$%%%&%*%=%-%;%>%,%+ +     . . . .   '%)%.     . .         . . ",
". . @ @ @ @     + + + !%~%{%]%^%/%(%_%:%<%[%}%|%1%2%3%4%5%6%7%8%9%0%a%b%c%d%e%f%g%h%+ +     . . . .   i%. .     . .         . . ",
"@ @ @ @ . .     . . + j%  k%l%              . . m%n%o%p%q%r%s%. t%u%v%w%x%y%z%A%B%C%+ +   D%                . .             . . ",
"@ @ @ @ . .     . . + E%F%G%H%I%J%K%L%M%N%O%P%Q%R%S%  T%    . . U%V%W%X%Y%Z%`% &.&+&@&#&$&%&                . .             . . ",
". . @ @             @ &&M.M.*&=&Y@-&;&>&=+R =+=+,&'&  )&    !&~&{&3 ]&^&5 /&(&_&:&<&[&}&|&s.            . . . .                 ",
". . @ @             @ @ @ @           1&2&=+3&3&4&2&5&6&7&8&9&0&a&b&c&d&p V h h e&f&@ @ @ @             . . . .                 ",
"    @ @ . .         . . . .     . . . g&h&i&j&k&l&y.m&n&o&p&q&l&l&r&s&s&k&t&t&t&u&v&. . . .     . . . . . . . . @ @ @ @         ",
"    @ @ . .         . . . .     . . . . . . . . @ @ @ @                 . .         . . . .     . . . . . . . . @ @ @ @         ",
"@ @     . . + + + + . .         . . . . . . . . @ @ @ @     . .         . . + + + + . .         . . . . . . . . @ @ @ @     . . ",
"@ @     . . + + + + . .         . . . . . . . . @ @ @ @     . .         . . + + + + . .         . . . . . . . . @ @ @ @     . . ",
"@ @         . . @ @ @ @ . .     . . . .                     . .     . .     . . @ @ @ @ . .     . . . .                     . . ",
"@ @         . . @ @ @ @ . .     . . . .                     . .     . .     . . @ @ @ @ . .     . . . .                     . . ",
". .     . .     . . @ @ . .                 . .     . .     . .     . . . .     . . @ @ . .                 . .     . .     . . ",
". .     . .     . . @ @ . .                 . .     . .     . .     . . . .     . . @ @ . .                 . .     . .     . . ",
"        . .         . . @ @                 . .                         . .         . . @ @                 . .                 ",
"        . .         . . @ @                 . .                         . .         . . @ @                 . .                 ",
"        . .             . .                 . .         . . . .         . .             . .                 . .         . . . . ",
"        . .             . .                 . .         . . . .         . .             . .                 . .         . . . . "};
