/* XPM */
static char * player_laser_d_xpm[] = {
"64 64 37 1",
" 	c #7B9200",
".	c #8CB229",
"+	c #CEFB42",
"@	c #101410",
"#	c #BDBA00",
"$	c #313431",
"%	c #212421",
"&	c #4A494A",
"*	c #000000",
"=	c #845118",
"-	c #CE8663",
";	c #AD7939",
">	c #FFBEAD",
",	c #ADAEAD",
"'	c #E79E84",
")	c #FFFFFF",
"!	c #5A595A",
"~	c #00007B",
"{	c #AD4900",
"]	c #733800",
"^	c #000039",
"/	c #0000AD",
"(	c #FF7100",
"_	c #D66100",
":	c #845719",
"<	c #835916",
"[	c #958E1F",
"}	c #855419",
"|	c #A1A43B",
"1	c #B3903B",
"2	c #D7A174",
"3	c #A0C0F8",
"4	c #899524",
"5	c #8BB028",
"6	c #5088F8",
"7	c #EBF2FE",
"8	c #F2EAF7",
"              ....  ..++    @ ..              ....  ..++      ..",
"              ....  ..++    @ ..              ....  ..++      ..",
"  ..    ....##..    ++##..  @@@   ..    ....##..    ++##..  ..  ",
"  ..    ....##..    ++##..  @@@   ..    ....##..    ++##..  ..  ",
"    ....  ..##  @@@@@@@@    @$$@@   ....  ..##    ..##      ..  ",
"    ....  ..##  @@@@@@@@    @$$@@   ....  ..##    ..##      ..  ",
"      ..  ..##  .@@%%$$&@@@@@&&@@     ..  ..##  ..++..  ..      ",
"      ..  ..##  ..+@@%%$&&$$@$$%%@****..  ..##  ..++..  ..      ",
"..    ..    ####+++@@%%$&&$$@$$%%@****..    ####++++    ##..    ",
"..    ..    ####+++@@@@%$$&&$%%%%$%%@@*.    ####++++    ##..    ",
"++..          #### @@@@%$$&&$%%%%$%%@@*       ####  ..  ##..  ..",
"++..          ##@@@&&%%$&&$$@%%$$&%%%%@**     ####  ..  ##..  ..",
"##++..  ..    ##@@@&&%%$&&$$@%%$$&%%%%@**.    ##..  ..  ....  ..",
"##++..  ..    @@$&&&&$$%@@@@$%%**&@@**@**.    ##..  ..  ....  ..",
"..####  ++++@@@@@@@$$%%@%%@@&@@**$**==*@@**+  ....  ..  ..    ..",
"..####  ++++@@@@@@@$$%%@%%@@&@@**$**==*@@**+  ....  ..  ..    ..",
"  ....  ..++       @@%%@==@@&@@==***===****+          ..      ..",
"  ....  ..++       @@%%@==@@&@@==***===****+          ..      ..",
"          ####   @@@@%%@@@--@@@--*==--=**@@*##      ....        ",
"          ####  @%%$$%%;@@@@*@@--******==@@%**      ....        ",
"    ..    ....  @%%$$%%;@@@@*@@--******==@@%**  ........####    ",
"    ..    ....@@@@@@@;;>;;@@,**''*,,''-''==*****........####    ",
"    ..++++..  @@@@@@@;;>;;@@,**''*,,''-''==*****........####  ..",
"    ..++++..    ...**;;';;>>)!!''!))''=--==*    ........####  ..",
"  ..  ..####..  ...**;;';;>>)!!''!))''=--==*..  ....          ..",
"  ..  ..####..  .******;=='')**>>*))--===*****  ....          ..",
"  ....  ..##..        .***;;'>>>>'--==***.##..        ..  ..  ..",
"  ....  ..##..        .***;;'>>>>'--==***.##..        ..  ..  ..",
"    ..    ..##       ~~{{{{{;;;;;===]]]]]^^.##        ..        ",
"    ..    ..##       ~~{{{{{;;;;;===]]]]]^^.##        ..        ",
"    ..      ..     ~~//{((__{~~//^]]{{_]]//^..        ..    ....",
"    ..      ..     ~~//{((__{~~//^]]{{_]]//^..        ..    ....",
"              ....  :~~/{{((({{~~]**))]~~^^   ....  ..++      ..",
"              .... <=--~{{__((({{{__**]^^-[   ....  ..++      ..",
"  ..    ....##..   }=--~{{__((({{{__**]^^-|.##..    ++##..  ..  ",
"  ..    ....##..   1;''-==^^~//^^/~~^^=--'2.##..    ++##..  ..  ",
"    ....  ..##    .;;''-==^^33333333^^4--''5##    ..##      ..  ",
"    ....  ..##   333333666777777777773663333333   ..##      ..  ",
"      ..  ..#3333333)3633777777777777773663)3333333+..  ..      ",
"      .. 3333333))3637777777777777777777777363))3333333 ..      ",
"..    .33   #33333333377378377777737337377333333333+   33#..    ",
"..    ..    3333677773338337373773737738733377363333    ##..    ",
"++..       3))637777777333777777777777333777777736))3.  ##..  ..",
"++..     3  6677777777737777777777777777377777777366..3 ##..  ..",
"##++..  .. 66377777777777777777777777777377777777736..  ....  ..",
"##++..  ..63777777777777777777777777777777777777777766  ....  ..",
"..####  ++67777777777777777777777777777777777777777766  ..    ..",
"..####  +6377777777777777777777777777777777777777777736 ..    ..",
"####..  .3777777777777777777777777777777777777777777773.      ..",
"####..  637777777777777777777777777777777777777777777736      ..",
"..##   66777777777777777777777777777777777777777777777766       ",
"..##  663777777777777777777777777777777777777777777777736       ",
"  ##..637777777777777777777777777777777777777777777777773###    ",
"  ##..3377777777777777777777777777777777777777777777777736##    ",
"##  .633777777777777777777777777777777777777777777777777366#  ..",
"##  66377777777777777777777777777777777777777777777777777366  ..",
"## 6333777777777777777777777777777777777777777777777777773336 ..",
"## 6337777777777777777777777777777777777777777777777777773336 ..",
".66333777777777777777777777777777777777777777777777777777333 66.",
"6. 3337777777777777777777777777777777777777777777777777773333 ..",
"6  3337777777777777777777777777777777777777777777777777773333   ",
"  333377777777777777777777777777777777777777777777777777733333  ",
" 33633777777777777777777777777777777777777777777777777777333333.",
" 33333777777777777777777777777777777777777777777777777777333633."};
