/* XPM */
static char * player_down_xpm[] = {
"64 64 44 1",
" 	c #7B9200",
".	c #8CB229",
"+	c #CEFB42",
"@	c #BDBA00",
"#	c #101410",
"$	c #313431",
"%	c #212421",
"&	c #4A494A",
"*	c #000000",
"=	c #845118",
"-	c #CE8663",
";	c #AD7939",
">	c #FFBEAD",
",	c #ADAEAD",
"'	c #E79E84",
")	c #FFFFFF",
"!	c #5A595A",
"~	c #00007B",
"{	c #AD4900",
"]	c #733800",
"^	c #000039",
"/	c #0000AD",
"(	c #FF7100",
"_	c #D66100",
":	c #899524",
"<	c #845318",
"[	c #855419",
"}	c #B3903B",
"|	c #7E7E07",
"1	c #DEA284",
"2	c #754A00",
"3	c #885B1A",
"4	c #7E8007",
"5	c #A18B26",
"6	c #A47D2F",
"7	c #A78336",
"8	c #B9CB36",
"9	c #91A123",
"0	c #838600",
"a	c #8C5129",
"b	c #8C9529",
"c	c #807E0C",
"d	c #8B5527",
"e	c #80800C",
"              ....  ..++      ..              ....  ..++      ..",
"              ....  ..++      ..              ....  ..++      ..",
"  ..    ....@@..    ++@@..  ..    ..    ....@@..    ++@@..  ..  ",
"  ..    ....@@..    ++@@..  ..    ..    ....@@..    ++@@..  ..  ",
"    ....  ..@@    ..@@      #.      ....  ..@@    ..@@      ..  ",
"    ....  ..@@    ..@@      #.      ....  ..@@    ..@@      ..  ",
"      ..  ..@@  ..++..  ..  ###       ..  ..@@  ..++..  ..      ",
"      ..  ..@@  ..++..  ..  ###       ..  ..@@  ..++..  ..      ",
"..    ..    @@@@########@@..#$$##.    ..    @@@@++++    @@..    ",
"..    ..    @@@@########@@..#$$##.    ..    @@@@++++    @@..    ",
"++..          @@@##%%$$&#####&&##+..          @@@@  ..  @@..  ..",
"++..          @@@@ ##%%$&&$$#$$%%#****        @@@@  ..  @@..  ..",
"@@++..  ..    @@.. ##%%$&&$$#$$%%#****  ..    @@..  ..  ....  ..",
"@@++..  ..    @@.. ####%$$&&$%%%%$%%##* ..    @@..  ..  ....  ..",
"..@@@@  ++++  .... ####%$$&&$%%%%$%%##* ++++  ....  ..  ..    ..",
"..@@@@  ++++  ..###&&%%$&&$$#%%$$&%%%%#**+++  ....  ..  ..    ..",
"  ....  ..++    ###&&%%$&&$$#%%$$&%%%%#**.++          ..      ..",
"  ....  ..++  ##$&&&&$$%####$%%**&##**#**.++          ..      ..",
"          @@#######$$%%#%%##&##**$**==*##**@@@      ....        ",
"          @@#######$$%%#%%##&##**$**==*##**@@@      ....        ",
"    ..    ....  ...##%%#==##&##==***===****...  ........@@@@    ",
"    ..    ....  ...##%%#==##&##==***===****...  ........@@@@    ",
"    ..++++..    .####%%###--###--*==--=**##*    ........@@@@  ..",
"    ..++++..    #%%$$%%;####*##--******==##%**  ........@@@@  ..",
"  ..  ..@@@@..  #%%$$%%;####*##--******==##%**  ....          ..",
"  ..  ..@@@@..#######;;>;;##,**''*,,''-''==*****....          ..",
"  ....  ..@@..#######;;>;;##,**''*,,''-''==*****      ..  ..  ..",
"  ....  ..@@..     **;;';;>>)!!''!))''=--==*..        ..  ..  ..",
"    ..    ..@@     **;;';;>>)!!''!))''=--==*@@        ..        ",
"    ..    ..@@   ******;=='')**>>*))--===*****        ..        ",
"    ..      ..        .***;;'>>>>'--==***   ..        ..    ....",
"    ..      ..        .***;;'>>>>'--==***   ..        ..    ....",
"              ....  .~~{{{{{;;;;;===]]]]]^^   ....  ..++      ..",
"              ....  .~~{{{{{;;;;;===]]]]]^^   ....  ..++      ..",
"  ..    ....@@..   ~~//{((__{~~//^]]{{_]]//^@@..    ++@@..  ..  ",
"  ..    ....@@..   ~~//{((__{~~//^]]{{_]]//^@@..    ++@@..  ..  ",
"    ....  ..@@    .:=~~/{{((({{~~]**))]~~^^:@@    ..@@      ..  ",
"    ....  ..@@    .<=--~{{__((({{{__**]^^--:@@    ..@@      ..  ",
"      ..  ..@@  ..+[=--~{{__((({{{__**]^^--:@@  ..++..  ..      ",
"      ..  ..@@  ..+};''-==^^~//^^/~~^^=--'':@@  ..++..  ..      ",
"..    ..    @@@@+++;;''-==^^~//^^/~~^^:--''|@@@@++++    @@..    ",
"..    ..    @@@@+++~~//^11^^^^^^^^^^^^.^^^^^@@@@++++    @@..    ",
"++..          @@@@ ~~//^11^^^^^^^^^^^^ ^^^^^  @@@@  ..  @@..  ..",
"++..          @@@@ ~~~~^]]{{^//^^/^^]]2^^~~^  @@@@  ..  @@..  ..",
"@@++..  ..    @@.. ;;>>'{{__^~~^^~^^{{]''--|  @@..  ..  ....  ..",
"@@++..  ..    @@.. ;;>>'{{__^~~^^~^^{{]''--|  @@..  ..  ....  ..",
"..@@@@  ++++  .... ;;''>{{((^~~..~^^__]--''=| ....  ..  ..    ..",
"..@@@@  ++++  .... ;;''>{{((^~~..~^^__]--''34 ....  ..  ..    ..",
"@@@@..  ..++       5567={{((^^^. ^^^__]==:8+          ..      ..",
"@@@@..  ..++          ..{{__({9. 0__{{]ab.++          ..      ..",
"..@@      @@@@      ....{{__({0  0__{{]ac @@@@      ....        ",
"..@@      @@@@      ....]]]]]^^  ]]]]]^ac @@@@      ....        ",
"  @@..    ....  ........]]]]]^^  ]]]]]^de ....  ........@@@@    ",
"  @@..    ....  ........~~{{/^^  ^~~{{^   ....  ........@@@@    ",
"@@  ..++++..    ........~~{{/^^. ^~~{{^+++..    ........@@@@  ..",
"@@  ..++++..    .....***~~__{]]**]]]{{]****.    ........@@@@  ..",
"@@    ..@@@@..  ...*****~~{{/^^**^~~~~]^^****.  ....          ..",
"@@    ..@@@@..  ...*****~~{{/^^**^~~~~]^^****.  ....          ..",
"..  ..  ..@@..       *****]]^**************@..        ..  ..  ..",
"..  ..  ..@@..       *****]]^**************@..        ..  ..  ..",
"    ..    ..@@        ..            ..    ..@@        ..        ",
"    ..    ..@@        ..            ..    ..@@        ..        ",
"    ..      ..        ..    ....    ..      ..        ..    ....",
"    ..      ..        ..    ....    ..      ..        ..    ...."};
