/* XPM */
static char * player_death_left_xpm[] = {
"64 64 705 2",
"  	c #8CB229",
". 	c #7B9200",
"+ 	c #CEFB42",
"@ 	c #BDBA00",
"# 	c #738001",
"$ 	c #555200",
"% 	c #1C0304",
"& 	c #3B3700",
"* 	c #607022",
"= 	c #8FAA2B",
"- 	c #BCB802",
"; 	c #413E00",
"> 	c #2E2901",
", 	c #2B2700",
"' 	c #2B2600",
") 	c #36360C",
"! 	c #8EA43C",
"~ 	c #868C30",
"{ 	c #140501",
"] 	c #090301",
"^ 	c #1E1305",
"/ 	c #443C10",
"( 	c #94A42A",
"_ 	c #280500",
": 	c #190000",
"< 	c #140000",
"[ 	c #0E0005",
"} 	c #07000C",
"| 	c #020202",
"1 	c #040202",
"2 	c #040200",
"3 	c #0E0300",
"4 	c #150A05",
"5 	c #060405",
"6 	c #000600",
"7 	c #000506",
"8 	c #000306",
"9 	c #0B0201",
"0 	c #220F08",
"a 	c #8DB12B",
"b 	c #140808",
"c 	c #080101",
"d 	c #070203",
"e 	c #060004",
"f 	c #030306",
"g 	c #020300",
"h 	c #010400",
"i 	c #030303",
"j 	c #050301",
"k 	c #0C0503",
"l 	c #4C4E1B",
"m 	c #050303",
"n 	c #040104",
"o 	c #030100",
"p 	c #060100",
"q 	c #110804",
"r 	c #31150A",
"s 	c #7D9002",
"t 	c #130100",
"u 	c #080305",
"v 	c #010101",
"w 	c #010200",
"x 	c #070201",
"y 	c #130000",
"z 	c #818C0A",
"A 	c #361F07",
"B 	c #170706",
"C 	c #0C0306",
"D 	c #000000",
"E 	c #070506",
"F 	c #090109",
"G 	c #758600",
"H 	c #6A7208",
"I 	c #462720",
"J 	c #412417",
"K 	c #362323",
"L 	c #070106",
"M 	c #030001",
"N 	c #040001",
"O 	c #090000",
"P 	c #7A6656",
"Q 	c #0D0103",
"R 	c #0B0001",
"S 	c #0A0000",
"T 	c #050000",
"U 	c #7D7A34",
"V 	c #4D3730",
"W 	c #0A0101",
"X 	c #020204",
"Y 	c #060102",
"Z 	c #070000",
"` 	c #170200",
" .	c #020004",
"..	c #020206",
"+.	c #04000E",
"@.	c #08000A",
"#.	c #130C03",
"$.	c #190B02",
"%.	c #1B0800",
"&.	c #100607",
"*.	c #090002",
"=.	c #000301",
"-.	c #060001",
";.	c #BBB509",
">.	c #0E0100",
",.	c #030003",
"'.	c #070002",
").	c #170202",
"!.	c #765945",
"~.	c #7F5531",
"{.	c #7A4E29",
"].	c #68472E",
"^.	c #160000",
"/.	c #080303",
"(.	c #0B0003",
"_.	c #160500",
":.	c #2D0C00",
"<.	c #050501",
"[.	c #040106",
"}.	c #1C1611",
"|.	c #543A35",
"1.	c #C39B84",
"2.	c #CA9D71",
"3.	c #9A6A3D",
"4.	c #88633E",
"5.	c #553B24",
"6.	c #080600",
"7.	c #020403",
"8.	c #050300",
"9.	c #010103",
"0.	c #000203",
"a.	c #120A04",
"b.	c #090004",
"c.	c #282018",
"d.	c #6C5549",
"e.	c #E9C1AC",
"f.	c #EEBB94",
"g.	c #9F6E3C",
"h.	c #996C3E",
"i.	c #725327",
"j.	c #160600",
"k.	c #0F0305",
"l.	c #0F0200",
"m.	c #1D0D09",
"n.	c #818D15",
"o.	c #7F8F0A",
"p.	c #2B0A02",
"q.	c #000404",
"r.	c #7C6D67",
"s.	c #867667",
"t.	c #150204",
"u.	c #030000",
"v.	c #260C05",
"w.	c #784F41",
"x.	c #8D5B33",
"y.	c #EAB988",
"z.	c #D9A77B",
"A.	c #7A522B",
"B.	c #1D0100",
"C.	c #260B09",
"D.	c #7F900C",
"E.	c #8EAE2F",
"F.	c #100000",
"G.	c #000504",
"H.	c #847263",
"I.	c #8F7B5F",
"J.	c #1D0500",
"K.	c #170802",
"L.	c #1F0000",
"M.	c #7C4F41",
"N.	c #895630",
"O.	c #F5C494",
"P.	c #D8A97E",
"Q.	c #774D29",
"R.	c #2C0500",
"S.	c #2F0400",
"T.	c #0B0000",
"U.	c #604931",
"V.	c #6D512D",
"W.	c #8F735D",
"X.	c #A58B78",
"Y.	c #E0B8A1",
"Z.	c #D19C80",
"`.	c #D5A37D",
" +	c #A37243",
".+	c #9E6F3F",
"++	c #7B4C1D",
"@+	c #683414",
"#+	c #682E0B",
"$+	c #733307",
"%+	c #723000",
"&+	c #743401",
"*+	c #8EAE2A",
"=+	c #91A32B",
"-+	c #0A0003",
";+	c #050208",
">+	c #100801",
",+	c #140904",
"'+	c #130500",
")+	c #634836",
"!+	c #6C4E34",
"~+	c #927556",
"{+	c #B19483",
"]+	c #EDC1AB",
"^+	c #DAA38B",
"/+	c #9C713B",
"(+	c #997631",
"_+	c #824F1E",
":+	c #6F2E0B",
"<+	c #7F3415",
"[+	c #7A2C04",
"}+	c #7D3301",
"|+	c #793101",
"1+	c #90A72B",
"2+	c #92A52B",
"3+	c #080200",
"4+	c #050206",
"5+	c #070006",
"6+	c #010208",
"7+	c #0C0600",
"8+	c #83725A",
"9+	c #887459",
"0+	c #6A4E38",
"a+	c #240E06",
"b+	c #100100",
"c+	c #FDEED8",
"d+	c #F4DBCB",
"e+	c #E9BEAF",
"f+	c #E6B199",
"g+	c #E7B48F",
"h+	c #828B1D",
"i+	c #753106",
"j+	c #7A2800",
"k+	c #A24F1B",
"l+	c #9F4E13",
"m+	c #A5531B",
"n+	c #7B2800",
"o+	c #823003",
"p+	c #0D0200",
"q+	c #728501",
"r+	c #779325",
"s+	c #06030B",
"t+	c #0F0A02",
"u+	c #8D7765",
"v+	c #8A6D57",
"w+	c #7E5C3F",
"x+	c #261300",
"y+	c #211404",
"z+	c #DFD1C6",
"A+	c #E7D2C7",
"B+	c #EEC9BD",
"C+	c #E7B6A2",
"D+	c #E2AF8A",
"E+	c #82851B",
"F+	c #893F0D",
"G+	c #8C3100",
"H+	c #AE4F11",
"I+	c #AF520B",
"J+	c #A34E09",
"K+	c #893200",
"L+	c #842E02",
"M+	c #8BAE2A",
"N+	c #170300",
"O+	c #0A0004",
"P+	c #030400",
"Q+	c #1D0404",
"R+	c #3C1B12",
"S+	c #DFBB9E",
"T+	c #987A55",
"U+	c #947A63",
"V+	c #56473E",
"W+	c #FFECE2",
"X+	c #D3A492",
"Y+	c #CE9C74",
"Z+	c #807718",
"`+	c #AE6233",
" @	c #C1612F",
".@	c #E27D46",
"+@	c #CC6926",
"@@	c #B0631B",
"#@	c #9D4D14",
"$@	c #944517",
"%@	c #722D0B",
"&@	c #A28633",
"*@	c #0D0006",
"=@	c #140600",
"-@	c #BE8B68",
";@	c #CD916C",
">@	c #BE8A6C",
",@	c #9A7464",
"'@	c #AD907E",
")@	c #DBB19D",
"!@	c #946044",
"~@	c #8DAA2A",
"{@	c #746509",
"]@	c #662934",
"^@	c #631F3D",
"/@	c #6E264C",
"(@	c #6B2636",
"_@	c #632A2B",
":@	c #742F1B",
"<@	c #762E1B",
"[@	c #4C1E20",
"}@	c #6F372F",
"|@	c #7C9101",
"1@	c #848B07",
"2@	c #0F0001",
"3@	c #140200",
"4@	c #2C0B00",
"5@	c #D89E70",
"6@	c #D89D76",
"7@	c #DAA686",
"8@	c #D4A381",
"9@	c #DAA37C",
"0@	c #7C8B05",
"a@	c #683035",
"b@	c #471B57",
"c@	c #3C1171",
"d@	c #3F0F7D",
"e@	c #41156D",
"f@	c #422251",
"g@	c #603040",
"h@	c #67313C",
"i@	c #3D1C40",
"j@	c #6A3B44",
"k@	c #7E692D",
"l@	c #8EAF2B",
"m@	c #491F44",
"n@	c #472384",
"o@	c #3E1CA2",
"p@	c #411EB0",
"q@	c #381897",
"r@	c #351874",
"s@	c #432461",
"t@	c #43285F",
"u@	c #301D5C",
"v@	c #4F2740",
"w@	c #757100",
"x@	c #716513",
"y@	c #44124A",
"z@	c #482281",
"A@	c #4A28A3",
"B@	c #4320A2",
"C@	c #401B99",
"D@	c #2F0F73",
"E@	c #36185D",
"F@	c #361A51",
"G@	c #2E1E46",
"H@	c #4B1B29",
"I@	c #1D0000",
"J@	c #808505",
"K@	c #887806",
"L@	c #AC5D14",
"M@	c #AD5D19",
"N@	c #873B07",
"O@	c #7F3927",
"P@	c #5C2040",
"Q@	c #734582",
"R@	c #71488C",
"S@	c #855FA3",
"T@	c #81589D",
"U@	c #6D437C",
"V@	c #553051",
"W@	c #573243",
"X@	c #5B3438",
"Y@	c #693426",
"Z@	c #92A528",
"`@	c #90A92B",
" #	c #8FAB28",
".#	c #97A931",
"+#	c #782F00",
"@#	c #A24404",
"##	c #C55F17",
"$#	c #DF7420",
"%#	c #D76E1B",
"&#	c #A84205",
"*#	c #A1440F",
"=#	c #7F300B",
"-#	c #AC6E57",
";#	c #A6765B",
">#	c #DBAE92",
",#	c #CA9A7F",
"'#	c #B58668",
")#	c #7C4C24",
"!#	c #80521F",
"~#	c #974918",
"{#	c #8C4716",
"]#	c #AF6129",
"^#	c #BF641C",
"/#	c #D4702B",
"(#	c #CE641B",
"_#	c #C15D08",
":#	c #A64400",
"<#	c #A44700",
"[#	c #9C4C07",
"}#	c #AF6D36",
"|#	c #A7713F",
"1#	c #AB7A4D",
"2#	c #936031",
"3#	c #814C18",
"4#	c #835215",
"5#	c #86540E",
"6#	c #9C4A08",
"7#	c #964511",
"8#	c #A35733",
"9#	c #B36443",
"0#	c #C76E55",
"a#	c #BA5E46",
"b#	c #B0622F",
"c#	c #A34F15",
"d#	c #A04C06",
"e#	c #945005",
"f#	c #AF713B",
"g#	c #A7723D",
"h#	c #A67449",
"i#	c #956433",
"j#	c #864E1F",
"k#	c #7D5316",
"l#	c #85520F",
"m#	c #964B05",
"n#	c #994A0C",
"o#	c #8B7909",
"p#	c #7F8705",
"q#	c #5E1C10",
"r#	c #53181C",
"s#	c #50101F",
"t#	c #501021",
"u#	c #59190F",
"v#	c #753212",
"w#	c #833F04",
"x#	c #914F13",
"y#	c #AC7241",
"z#	c #A77952",
"A#	c #E6BAA2",
"B#	c #CEA480",
"C#	c #C1916A",
"D#	c #7D521C",
"E#	c #895116",
"F#	c #B05F1F",
"G#	c #A34D0F",
"H#	c #872E03",
"I#	c #963F0A",
"J#	c #95480E",
"K#	c #763207",
"L#	c #6F300C",
"M#	c #6B311C",
"N#	c #996511",
"O#	c #974828",
"P#	c #581616",
"Q#	c #581A2D",
"R#	c #4F142D",
"S#	c #4A132E",
"T#	c #52191A",
"U#	c #6A2E17",
"V#	c #7D410E",
"W#	c #8B4D24",
"X#	c #A56C5F",
"Y#	c #9E757E",
"Z#	c #D8B2CC",
"`#	c #C39FAD",
" $	c #A88784",
".$	c #744F40",
"+$	c #7E4836",
"@$	c #B85F29",
"#$	c #AA4D11",
"$$	c #8B2A00",
"%$	c #A74705",
"&$	c #A44C0F",
"*$	c #763006",
"=$	c #6A2D1F",
"-$	c #602C2B",
";$	c #9E8B0C",
">$	c #886B15",
",$	c #828C07",
"'$	c #95772D",
")$	c #8F4742",
"!$	c #AA6161",
"~$	c #AB5F67",
"{$	c #AD636C",
"]$	c #66232C",
"^$	c #623225",
"/$	c #BB8B6E",
"($	c #AB7A58",
"_$	c #612F20",
":$	c #572843",
"<$	c #522E70",
"[$	c #381A81",
"}$	c #2F187B",
"|$	c #2C1F5C",
"1$	c #351E55",
"2$	c #482044",
"3$	c #B36232",
"4$	c #BE5A1E",
"5$	c #B14707",
"6$	c #D36B1E",
"7$	c #D4752F",
"8$	c #7A3300",
"9$	c #5F2230",
"0$	c #451742",
"a$	c #734046",
"b$	c #7F4A3C",
"c$	c #411D3B",
"d$	c #6C3D56",
"e$	c #818C0C",
"f$	c #828D06",
"g$	c #978E30",
"h$	c #6F302E",
"i$	c #622250",
"j$	c #7A3D71",
"k$	c #6D3568",
"l$	c #66315E",
"m$	c #501F46",
"n$	c #4B222E",
"o$	c #4F2C23",
"p$	c #502A20",
"q$	c #3B1413",
"r$	c #805E6E",
"s$	c #7D5B8F",
"t$	c #381482",
"u$	c #30148B",
"v$	c #281D6F",
"w$	c #2E1D6A",
"x$	c #3E2154",
"y$	c #A35935",
"z$	c #B8541A",
"A$	c #BD540C",
"B$	c #BF540D",
"C$	c #B85514",
"D$	c #7B310F",
"E$	c #5F1E40",
"F$	c #4A134E",
"G$	c #904D52",
"H$	c #985948",
"I$	c #3D1C4B",
"J$	c #461F59",
"K$	c #6D3C46",
"L$	c #8DB029",
"M$	c #808E05",
"N$	c #9C7E42",
"O$	c #4C1744",
"P$	c #3A0B6D",
"Q$	c #4A2490",
"R$	c #402385",
"S$	c #31156E",
"T$	c #311860",
"U$	c #351F44",
"V$	c #0E0008",
"W$	c #1B0609",
"X$	c #987772",
"Y$	c #9B7389",
"Z$	c #41146A",
"`$	c #361071",
" %	c #2F1A65",
".%	c #28195A",
"+%	c #3F264C",
"@%	c #894225",
"#%	c #AE4E17",
"$%	c #C5631D",
"%%	c #AC490D",
"&%	c #9B400A",
"*%	c #712A10",
"=%	c #5E1939",
"-%	c #4F0D35",
";%	c #AB5754",
">%	c #AD614B",
",%	c #401644",
"'%	c #3E185B",
")%	c #4D1C31",
"!%	c #808F04",
"~%	c #72404A",
"{%	c #4B1E6D",
"]%	c #36148F",
"^%	c #302296",
"/%	c #2A1B94",
"(%	c #26187E",
"_%	c #261B6E",
":%	c #261F4F",
"<%	c #050213",
"[%	c #120908",
"}%	c #41200D",
"|%	c #AD836D",
"1%	c #B17F80",
"2%	c #7A497B",
"3%	c #64396C",
"4%	c #5F3A67",
"5%	c #412A47",
"6%	c #503434",
"7%	c #7B8A03",
"8%	c #AA4E1E",
"9%	c #AE531B",
"0%	c #96460F",
"a%	c #807606",
"b%	c #6D3006",
"c%	c #83882B",
"d%	c #85902A",
"e%	c #A5533C",
"f%	c #A7562F",
"g%	c #5E243A",
"h%	c #5D4A2D",
"i%	c #59232E",
"j%	c #7C9102",
"k%	c #3B1846",
"l%	c #2A176D",
"m%	c #2C1D79",
"n%	c #291A75",
"o%	c #2A1C73",
"p%	c #291F5B",
"q%	c #281E58",
"r%	c #221943",
"s%	c #0B0114",
"t%	c #24130B",
"u%	c #EFBA96",
"v%	c #F3C1A5",
"w%	c #E9B69C",
"x%	c #CB9B80",
"y%	c #BC9378",
"z%	c #765241",
"A%	c #74711C",
"B%	c #817D0F",
"C%	c #856A1F",
"D%	c #B0C637",
"E%	c #280A00",
"F%	c #270700",
"G%	c #1E0100",
"H%	c #210903",
"I%	c #140317",
"J%	c #0D0030",
"K%	c #100538",
"L%	c #0A0033",
"M%	c #0B0132",
"N%	c #0A0320",
"O%	c #070123",
"P%	c #0E0A24",
"Q%	c #0B020E",
"R%	c #221507",
"S%	c #7D8D06",
"T%	c #200100",
"U%	c #1E0900",
"V%	c #240500",
"W%	c #220500",
"X%	c #200400",
"Y%	c #1F0300",
"Z%	c #200600",
"`%	c #1C0300",
" &	c #240600",
".&	c #290400",
"+&	c #230000",
"@&	c #280400",
"#&	c #260201",
"$&	c #230500",
"%&	c #240700",
"&&	c #270900",
"*&	c #1F0500",
"=&	c #1A0500",
"-&	c #0B0107",
";&	c #050010",
">&	c #030014",
",&	c #020012",
"'&	c #02000C",
")&	c #000310",
"!&	c #01050D",
"~&	c #1E1506",
"{&	c #7C9005",
"]&	c #7E8D0C",
"^&	c #7D8A0E",
"/&	c #110000",
"(&	c #090400",
"_&	c #090100",
":&	c #0F0000",
"<&	c #170000",
"[&	c #200000",
"}&	c #220100",
"|&	c #250200",
"1&	c #110003",
"2&	c #0A0008",
"3&	c #030308",
"4&	c #050505",
"5&	c #020000",
"6&	c #0E0400",
"7&	c #270D06",
"8&	c #190200",
"9&	c #240C09",
"0&	c #230808",
"a&	c #1E0202",
"b&	c #230303",
"c&	c #0D0000",
"d&	c #050500",
"e&	c #0A0100",
"f&	c #120500",
"g&	c #2C0807",
"h&	c #250A05",
"i&	c #210C03",
"j&	c #210901",
"k&	c #200800",
"l&	c #220801",
"m&	c #250A03",
"n&	c #220900",
"o&	c #210700",
"p&	c #260C00",
"q&	c #250B00",
"r&	c #260C02",
"s&	c #230B03",
"t&	c #251007",
"u&	c #281006",
"v&	c #341600",
"    . . . . . . + +     . .         . . . . . . . . . . . . . .     . . . . . . + +     . .         . . . . . . . . . . . . . . ",
"    . . . . . . + +     . .         . . . . . . . . . . . . . .     . . . . . . + +     . .         . . . . . . . . . . . . . . ",
". .     . .     @ @ + + . . . .     @ @         . . . .     . . . .     . .     @ @ + + . . . .     @ @         . . . .     . . ",
". .     . .     @ @ + + . . . .     @ @         . . . .     . . . .     . .     @ @ + + . . . .     @ @         . . . .     . . ",
". .     . . . . . . @ @     . . . . @ @     . .         . . . . . .     . . . . . . @ @     . . . . @ @     . .         . . . . ",
". .     . . . . . . @ @     . . . . @ @     . .         . . . . . .     . . . . . . @ @     . . . . @ @     . .         . . . . ",
". . . . . .     . .     + +     . . @ @     . .     . . . . . . . . . . . .     . .     + +     . . @ @     . .     . . . . . . ",
". . . . . .     . .     + +     . . @ @     . .     . . . . . . . . . . . .     . .     + +     . . @ @     . .     . . . . . . ",
". . . .     @ @ . . . . + + + + @ @ @ @ . . . .     . . . .     . . . .     @ @ . . . . + + + + @ @ @ @ . . . .     . . . .     ",
". . . .     @ @ . . . . + + + + @ @ @ @ . . . .     . . . .     . . . .     @ @ . . . . + + + + @ @ @ @ . . . .     . . . .     ",
"    . .     @ @ . .     . . @ @ @ @ . . . . . . . . . .     + +     . .     @ @ . .     . . @ @ @ @ . . . . . . . . . .     + + ",
"    . .     @ @ . .     . . @ @ @ @ . . . . . # $ % . .     + +     . .     @ @ . .     . . @ @ @ @ . . . . . . . . . .     + + ",
"    . .         . .     . .     @ @ . . . .     . & *   + + @ @     . .         . .     . .     @ @ . . . .     . .     + + @ @ ",
"    . .         . .     . .   = - @ ; > , ' ) ! ~ { ] ^ / ( @ @     . .         . .     . .     @ @ . . . .     . .     + + @ @ ",
"    . . . .     . .     . .   _ : < [ } | 1 2 3 4 5 6 7 8 9 0       . . . .     . .     . .         . . + + + + . . @ @ @ @     ",
"    . . . .     . .     . . a b c d e f | | g 2 2 g h | i j k l     . . . .     . .     . .         . . + + + + . . @ @ @ @     ",
"    . . . . . .     . . . . . d m m n i | | g g g g g o 2 j p q r   . . . s . .     . . . . . . . . . . + +     . .         . . ",
"    . . . . . .     . . . . t u m m n | v v w v | | | 1 1 2 x x y   . . . z . .     . . . . . . . . . . + +     . .         . . ",
". . . . . . . .         A B C u m m n | v v D v | | | 1 1 2 p E F . . . . G . .         . . . . . . @ @ @ @ . . . . . . . . . . ",
". . . . . . . .         . H I J K L v D D D v | | | | | | 1 1 M N . . O . . . .         . . . . . . @ @ @ @ . . . . . . . . . . ",
". . . . @ @ @ @                 P Q v D D D v | | | | | | 1 M M 1 R S T @ @ @ @                 . .         . . . .     . . . . ",
". . . . @ @ @ @               U V W v D D D D X X X X X X 1 1 1 1 Y 2 Z @ @ @ @                 . .         . . . .     . . . . ",
"    . . @ @ @ @               ` O  .v D D D D X X X ....1 p p 1 1 | h Z @ @ @ @                 . . . .     + + + +     . . . . ",
"    . . @ @ @ @               u M M M D D D D X X X +.@.#.$.%.&.*.1 =.-.@ ;.@ @                 . . . .     + + + +     . . . . ",
"    . . . . . . . . . .     >.M M M ,.v v v M X X X '.).!.~.{.].^./.| Y (.'._.:.. . . .         . .     @ @ @ @     . .     . . ",
"    . . . . . . . . . .     <.1 M M ,.v v v M n n [.}.|.1.2.3.4.5.6.2 Y m 7.. . . . . .         . .     @ @ @ @     . .     . . ",
"    . .     . .     . . . . 8.1 v v 9.9.0.9.N W a.b.c.d.e.f.g.h.i.j.k.l.y m.n.o.    . . . . . . . .     @ @     . .         . . ",
"    . .     . .     . . p.>.q.1 v v 9.9.0.,.N r.s.t.u.v.w.x.y.z.A.B.C.D.a E.. .     . . . . . . . .     @ @     . .         . . ",
". . . . . . . .     . . F.m G.X 9.9.9.9.0.,.'.H.I.J.K.L.M.N.O.P.Q.R.S.. . . . .     . . . . . . . . @ @     . . . .     . . . . ",
". . . . . . . .     . . T.j g g v v v M 9.,.O U.V.W.X.Y.Z.`. +.+++@+#+$+%+&+. . *+=+. . . . . . . . @ @     . . . .     . . . . ",
"        . . . .     . . -+;+1 2 2 g 2 T >+,+'+)+!+~+{+]+^+`./+(+_+:+<+[+}+|+. . 1+2+. . . . . . . .     . . . . . .     . . . . ",
"        . . . .     . . 3+4+5+Z n 6+[.7+8+9+0+a+b+c+d+e+f+g+. . h+i+j+k+l+m+n+o+    . . . . . . . .     . . . . . .     . . . . ",
"    . . . . . . + +     p+q+    r+s+4+t+u+v+w+x+y+z+A+B+C+D+. . E+F+G+H+I+J+K+L++ +     . .         . . . . . . . . . . . . . . ",
"    . . . . . . + +   M+N+.       O+P+3+Q+R+S+T+U+^.V+W+X+Y+. . Z+`+ @.@+@@@#@$@%@&@    . .         . . . . . . . . . . . . . . ",
". .     . .     @ @ + + . . . .   *@'.=@    -@;@>@,@'@)@!@~@. . {@]@^@/@(@_@:@<@[@}@+ + . . . .     @ @         . . . .     . . ",
". .     . .     @ @ + + . |@1@.   2@3@4@      5@6@7@8@9@    . 0@a@b@c@d@e@f@g@h@i@j@+ + . . . .     @ @         . . . .     . . ",
". .     . . . . . . @ @     . . . t k@@     . .   l@    . . . . m@n@o@p@q@r@s@t@u@v@@ @     . . . . @ @     . .         . . . . ",
". .     . . . . . . @ @     . . . y @ @     . .         . . w@x@y@z@A@B@C@D@E@F@G@H@@ @     . . . . @ @     . .         . . . . ",
". . . . . .     . .     + +     . I@@ @     . .     J@K@L@M@N@O@P@Q@R@S@T@U@V@W@X@Y@    + +     . . @ @     . .     . . . . . . ",
". . . . . .     . .     + + Z@`@. . @ @  #  . . .#+#@###$#%#&#*#=#-#;#>#,#'#)#!#~#{#    + +     . . @ @     . .     . . . . . . ",
". . . .     @ @ . . . . + + + + @ @ @ @ . . . .   ]#^#/#(#_#:#<#[#}#|#1#2#3#4#5#6#7#. . + + + + @ @ @ @ . . . .     . . . .     ",
". . . .     @ @ . . . . + + + + @ @ @ @ . . . .   8#9#0#a#b#c#d#e#f#g#h#i#j#k#l#m#n#. . + + + + @ @ @ @ . . . .     . . . .     ",
"    . .     @ @ . .     . . @ @ @ @ . . . . . o#p#q#r#s#t#u#v#w#x#y#z#A#B#C#D#E#F#G#H#I#J#K#L#M#@ @ . . . . . . . . . .     + + ",
"    . .     @ @ . .     . . @ @ @ @ . . . . . N#O#P#Q#R#S#T#U#V#W#X#Y#Z#`# $.$+$@$#$$$%$&$*$=$-$;$>$. . . . . . . . . .     + + ",
"    . .         . .     ,$.     @ @ . . . .   '$)$!$~${$]$^$/$($_$:$<$[$}$|$1$2$3$4$5$6$7$8$9$0$a$b$c$d$e$.     . .     + + @ @ ",
"    . .         . .     f$.     @ @ . . . . g$h$i$j$k$l$m$n$o$p$q$r$s$t$u$v$w$x$y$z$A$B$C$D$E$F$G$H$I$J$K$.     . .     + + @ @ ",
"    . . . .     . .   L$M$.         . . + + N$O$P$Q$R$S$T$U$V$W$: X$Y$Z$`$ %.%+%@%#%$%%%&%*%=%-%;%>%,%'%)%+ + + . . @ @ @ @     ",
"    . . . .     . .     !%.         . . + + ~%{%]%^%/%(%_%:%<%[%}%|%1%2%3%4%5%6%7%8%9%0%a%b%c%d%e%f%g%h%i%+ + + . . @ @ @ @     ",
"    . . . . . .     . . . . . . . . j%. + + k%l%m%n%o%p%q%r%s%t%  u%v%w%x%y%z%A%    . . . . . . . B%C%. D%+     . .     @ @ @ @ ",
"    . . . . . .     . . . . . . . . E%F%G%H%I%J%K%L%M%N%O%P%Q%R%    . . S%. T%U%V%W%X%Y%Z%`% &.&+&@&#&$&%&+     . .     @ @ @ @ ",
". . . . . . . .         . . . . . . B.&&*&=&-&;&>&,&'&| )&!&2 ~&{&]&. . ^&. /&(&T.T.R T._&:&<&I@[&}&L.L.|&@ . . . . . . @ @     ",
". . . . . . . .         . . . . . . @ @ @ @ 1&2&e e Y p 3&4&5&6&7&8&9&0&a&b&c&d&e&e&T.c&f&. . . . . @ @ @ @ . . . . . . @ @     ",
". . . . @ @ @ @                 . .         g&h&i&i&i&j&k&k&l&m&m&n&o&p&q&r&v.m&j&s&t&u&v&      . .         . . . .     @ @ . . ",
". . . . @ @ @ @                 . .         . . . .     . . . . . . . . @ @ @ @                 . .         . . . .     @ @ . . ",
"    . . @ @ @ @                 . . . .     + + + +     . . . .     . . @ @ @ @                 . . . .     + + + +     . . @ @ ",
"    . . @ @ @ @                 . . . .     + + + +     . . . .     . . @ @ @ @                 . . . .     + + + +     . . @ @ ",
"    . . . . . . . . . .         . .     @ @ @ @     . .     . .     . . . . . . . . . .         . .     @ @ @ @     . . . . @ @ ",
"    . . . . . . . . . .         . .     @ @ @ @     . .     . .     . . . . . . . . . .         . .     @ @ @ @     . . . . @ @ ",
"    . .     . .     . . . . . . . .     @ @     . .         . .     . .     . .     . . . . . . . .     @ @     . .     . .     ",
"    . .     . .     . . . . . . . .     @ @     . .         . .     . .     . .     . . . . . . . .     @ @     . .     . .     ",
". . . . . . . .     . . . . . . . . @ @     . . . .     . . . . . . . . . . . .     . . . . . . . . @ @     . . . .     . . . . ",
". . . . . . . .     . . . . . . . . @ @     . . . .     . . . . . . . . . . . .     . . . . . . . . @ @     . . . .     . . . . ",
"        . . . .     . . . . . . . .     . . . . . .     . . . .         . . . .     . . . . . . . .     . . . . . .     . . . . ",
"        . . . .     . . . . . . . .     . . . . . .     . . . .         . . . .     . . . . . . . .     . . . . . .     . . . . "};
