/* XPM */
static char * player_laser_t_xpm[] = {
"64 64 661 2",
"  	c #7B9200",
". 	c #5088F8",
"+ 	c #A0C0F8",
"@ 	c #EBF2FE",
"# 	c #8CB229",
"$ 	c #190500",
"% 	c #140400",
"& 	c #180800",
"* 	c #150500",
"= 	c #130500",
"- 	c #190800",
"; 	c #C3BEB7",
"> 	c #0E0000",
", 	c #0A0000",
"' 	c #070000",
") 	c #090000",
"! 	c #080000",
"~ 	c #0F0300",
"{ 	c #B1AA9F",
"] 	c #CEFB42",
"^ 	c #050102",
"/ 	c #050100",
"( 	c #090100",
"_ 	c #A8977D",
": 	c #3B2F21",
"< 	c #010005",
"[ 	c #020003",
"} 	c #030004",
"| 	c #040002",
"1 	c #120600",
"2 	c #020204",
"3 	c #020200",
"4 	c #080100",
"5 	c #AB9B82",
"6 	c #373020",
"7 	c #000105",
"8 	c #010006",
"9 	c #050008",
"0 	c #010100",
"a 	c #020005",
"b 	c #BDBA00",
"c 	c #0D0100",
"d 	c #010206",
"e 	c #010302",
"f 	c #050200",
"g 	c #433826",
"h 	c #161206",
"i 	c #020307",
"j 	c #030208",
"k 	c #06000A",
"l 	c #010300",
"m 	c #010204",
"n 	c #030106",
"o 	c #624729",
"p 	c #E0E4EB",
"q 	c #DDE0E6",
"r 	c #100901",
"s 	c #000002",
"t 	c #000000",
"u 	c #010004",
"v 	c #000203",
"w 	c #000300",
"x 	c #462A14",
"y 	c #040402",
"z 	c #000100",
"A 	c #010000",
"B 	c #000106",
"C 	c #080006",
"D 	c #070007",
"E 	c #020001",
"F 	c #040003",
"G 	c #020107",
"H 	c #41351F",
"I 	c #403728",
"J 	c #07010B",
"K 	c #020006",
"L 	c #010101",
"M 	c #030400",
"N 	c #060100",
"O 	c #524437",
"P 	c #000004",
"Q 	c #000201",
"R 	c #000200",
"S 	c #E9EFFA",
"T 	c #010103",
"U 	c #140500",
"V 	c #0F0000",
"W 	c #020100",
"X 	c #0A0100",
"Y 	c #000202",
"Z 	c #010506",
"` 	c #170900",
" .	c #0C0300",
"..	c #000103",
"+.	c #040000",
"@.	c #000007",
"#.	c #08060B",
"$.	c #0D0502",
"%.	c #130200",
"&.	c #FFFFFF",
"*.	c #65462A",
"=.	c #030104",
"-.	c #000205",
";.	c #110A00",
">.	c #7F7C7A",
",.	c #BBB4AC",
"'.	c #687BAA",
").	c #130300",
"!.	c #080109",
"~.	c #060009",
"{.	c #010200",
"].	c #090200",
"^.	c #88868B",
"/.	c #110100",
"(.	c #000209",
"_.	c #0C0703",
":.	c #A69E96",
"<.	c #846C5A",
"[.	c #160000",
"}.	c #070200",
"|.	c #000005",
"1.	c #040404",
"2.	c #050001",
"3.	c #735E4B",
"4.	c #1A0300",
"5.	c #0D0500",
"6.	c #0C0600",
"7.	c #030200",
"8.	c #030000",
"9.	c #1A0000",
"0.	c #040001",
"a.	c #231500",
"b.	c #654D33",
"c.	c #060300",
"d.	c #010400",
"e.	c #030005",
"f.	c #010508",
"g.	c #000301",
"h.	c #18334E",
"i.	c #1E324A",
"j.	c #1D3444",
"k.	c #1A2C3A",
"l.	c #09111C",
"m.	c #040005",
"n.	c #080004",
"o.	c #7B752C",
"p.	c #170500",
"q.	c #030300",
"r.	c #040006",
"s.	c #000206",
"t.	c #000706",
"u.	c #335475",
"v.	c #324B6A",
"w.	c #2F4D67",
"x.	c #324B61",
"y.	c #0D1B28",
"z.	c #070105",
"A.	c #090305",
"B.	c #0B0006",
"C.	c #8DAD2C",
"D.	c #4B310C",
"E.	c #503A2F",
"F.	c #513A34",
"G.	c #11182A",
"H.	c #0F1A30",
"I.	c #151D34",
"J.	c #4C4B51",
"K.	c #485052",
"L.	c #475153",
"M.	c #454D50",
"N.	c #212B34",
"O.	c #261A0E",
"P.	c #3C260F",
"Q.	c #492701",
"R.	c #889915",
"S.	c #929F26",
"T.	c #020300",
"U.	c #030007",
"V.	c #384A62",
"W.	c #344B6D",
"X.	c #3A4A6B",
"Y.	c #664E32",
"Z.	c #6E5A27",
"`.	c #70582A",
" +	c #685334",
".+	c #4E4E50",
"++	c #756738",
"@+	c #010810",
"#+	c #00030C",
"$+	c #0F0100",
"%+	c #3C4D55",
"&+	c #364E5A",
"*+	c #3E4A56",
"=+	c #7E5422",
"-+	c #815315",
";+	c #7E4B12",
">+	c #785126",
",+	c #534A3B",
"'+	c #75642B",
")+	c #434D68",
"!+	c #494C5D",
"~+	c #815532",
"{+	c #7D5941",
"]+	c #030303",
"^+	c #585647",
"/+	c #575641",
"(+	c #645840",
"_+	c #A37230",
":+	c #D49F53",
"<+	c #D9A05D",
"[+	c #A5703E",
"}+	c #815D39",
"|+	c #8C8C27",
"1+	c #929D07",
"2+	c #95A009",
"3+	c #9DB629",
"4+	c #5C4B39",
"5+	c #64492E",
"6+	c #985113",
"7+	c #8F5629",
"8+	c #6B4D33",
"9+	c #704B21",
"0+	c #7B4E15",
"a+	c #B07F3C",
"b+	c #DC9E3B",
"c+	c #D9A23D",
"d+	c #B47929",
"e+	c #985D19",
"f+	c #84860E",
"g+	c #866F21",
"h+	c #7C5423",
"i+	c #9B5114",
"j+	c #90572A",
"k+	c #0B0708",
"l+	c #313131",
"m+	c #0A0809",
"n+	c #75563A",
"o+	c #7B5127",
"p+	c #7F5116",
"q+	c #A97B3F",
"r+	c #E09B40",
"s+	c #DA9E3C",
"t+	c #CD9943",
"u+	c #9F6C1D",
"v+	c #AA8654",
"w+	c #98B733",
"x+	c #866500",
"y+	c #9A560D",
"z+	c #9B520D",
"A+	c #985B24",
"B+	c #8B6035",
"C+	c #0C0B07",
"D+	c #383733",
"E+	c #6C5938",
"F+	c #745829",
"G+	c #79501C",
"H+	c #A57533",
"I+	c #DA9D44",
"J+	c #E0AB4B",
"K+	c #D7A046",
"L+	c #9B6F24",
"M+	c #9F8667",
"N+	c #725312",
"O+	c #9E6A1B",
"P+	c #9C5521",
"Q+	c #0B0004",
"R+	c #09040A",
"S+	c #B6B1B7",
"T+	c #7D7B7E",
"U+	c #5E5C5F",
"V+	c #060004",
"W+	c #0A0002",
"X+	c #190000",
"Y+	c #775019",
"Z+	c #DC9B41",
"`+	c #D8A04B",
" @	c #A66E35",
".@	c #9F7038",
"+@	c #6E5E4F",
"@@	c #2F2D32",
"#@	c #142B4A",
"$@	c #18284A",
"%@	c #31262C",
"&@	c #97743A",
"*@	c #685127",
"=@	c #955911",
"-@	c #8E6815",
";@	c #150301",
">@	c #0C0000",
",@	c #B2ABB2",
"'@	c #7C777D",
")@	c #5A585B",
"!@	c #0F0209",
"~@	c #110004",
"{@	c #210300",
"]@	c #764F18",
"^@	c #DD9C4A",
"/@	c #D29C52",
"(@	c #A17653",
"_@	c #9C7A57",
":@	c #6D635A",
"<@	c #323035",
"[@	c #1D283C",
"}@	c #212842",
"|@	c #362422",
"1@	c #A17B3C",
"2@	c #6C5428",
"3@	c #4A4A4A",
"4@	c #414A4F",
"5@	c #2E4668",
"6@	c #405C81",
"7@	c #3A5985",
"8@	c #50618D",
"9@	c #55608E",
"0@	c #515A85",
"a@	c #45657C",
"b@	c #3C505B",
"c@	c #365363",
"d@	c #2E4E75",
"e@	c #616A73",
"f@	c #AB8C60",
"g@	c #C69D69",
"h@	c #D5A35A",
"i@	c #A77634",
"j@	c #A3702E",
"k@	c #804E11",
"l@	c #735136",
"m@	c #404855",
"n@	c #344559",
"o@	c #325481",
"p@	c #335787",
"q@	c #3E679F",
"r@	c #4569A5",
"s@	c #4668A7",
"t@	c #45639F",
"u@	c #396892",
"v@	c #314B64",
"w@	c #325068",
"x@	c #314A68",
"y@	c #6C6960",
"z@	c #AF874A",
"A@	c #CC9B58",
"B@	c #D8A355",
"C@	c #A67334",
"D@	c #A5732E",
"E@	c #865616",
"F@	c #694E33",
"G@	c #826A22",
"H@	c #755848",
"I@	c #2F4D7F",
"J@	c #2E4D83",
"K@	c #3A629D",
"L@	c #3F67A4",
"M@	c #4068A5",
"N@	c #3C68A5",
"O@	c #294F7E",
"P@	c #69533B",
"Q@	c #785630",
"R@	c #A67D49",
"S@	c #C08E51",
"T@	c #C98D37",
"U@	c #AE7420",
"V@	c #AC732C",
"W@	c #85531E",
"X@	c #825619",
"Y@	c #79591C",
"Z@	c #866A1B",
"`@	c #7B583A",
" #	c #324667",
".#	c #30466B",
"+#	c #456190",
"@#	c #475F8F",
"##	c #495F90",
"$#	c #45608F",
"%#	c #344C68",
"&#	c #6B4E24",
"*#	c #78511A",
"=#	c #A97C45",
"-#	c #C59253",
";#	c #C88F3E",
">#	c #B17A2A",
",#	c #A47331",
"'#	c #7E4F21",
")#	c #7B521E",
"!#	c #745423",
"~#	c #8EB02A",
"{#	c #9D550D",
"]#	c #925617",
"^#	c #705542",
"/#	c #755A47",
"(#	c #7D665E",
"_#	c #836759",
":#	c #846853",
"<#	c #836752",
"[#	c #7C5D40",
"}#	c #9D5F16",
"|#	c #A06114",
"1#	c #976327",
"2#	c #A46D2D",
"3#	c #A3712A",
"4#	c #986923",
"5#	c #8E672E",
"6#	c #B09F65",
"7#	c #ADA062",
"8#	c #AEA971",
"9#	c #91AD2B",
"0#	c #AC4F01",
"a#	c #AB4F00",
"b#	c #B55500",
"c#	c #BE5F05",
"d#	c #BA5A0E",
"e#	c #C16417",
"f#	c #C16416",
"g#	c #C36316",
"h#	c #C46312",
"i#	c #C4670A",
"j#	c #B56005",
"k#	c #9B550F",
"l#	c #8E480D",
"m#	c #83541C",
"n#	c #9F783F",
"o#	c #8E7745",
"p#	c #CFFB44",
"q#	c #D9EC4B",
"r#	c #AC4E04",
"s#	c #AD4E00",
"t#	c #CA680D",
"u#	c #D27412",
"v#	c #9C3B00",
"w#	c #AF4E07",
"x#	c #AF4F05",
"y#	c #B04E05",
"z#	c #B24E02",
"A#	c #B15500",
"B#	c #AA5200",
"C#	c #B5651C",
"D#	c #95490D",
"E#	c #A47740",
"F#	c #AC4E08",
"G#	c #AD4D00",
"H#	c #C96B09",
"I#	c #D2760F",
"J#	c #9A3B00",
"K#	c #AF4E0A",
"L#	c #B04E07",
"M#	c #B24D05",
"N#	c #AF5202",
"O#	c #AD5300",
"P#	c #C16719",
"Q#	c #984404",
"R#	c #A17641",
"S#	c #AE5101",
"T#	c #AF5000",
"U#	c #CB6B00",
"V#	c #D57600",
"W#	c #C56A17",
"X#	c #8F3200",
"Y#	c #8D3200",
"Z#	c #AD4B00",
"`#	c #AD4C00",
" $	c #AF520C",
".$	c #993B05",
"+$	c #906A1A",
"@$	c #AE4D00",
"#$	c #B35300",
"$$	c #CA6B00",
"%$	c #D07200",
"&$	c #CB6F08",
"*$	c #8A3100",
"=$	c #883000",
"-$	c #853200",
";$	c #AC510B",
">$	c #A64800",
",$	c #A34E0B",
"'$	c #8D3400",
")$	c #8B7907",
"!$	c #A45200",
"~$	c #AD5500",
"{$	c #CE6803",
"]$	c #C8640C",
"^$	c #8B3000",
"/$	c #883002",
"($	c #873003",
"_$	c #843107",
":$	c #842B00",
"<$	c #832D00",
"[$	c #A64B16",
"}$	c #803810",
"|$	c #822B10",
"1$	c #A75100",
"2$	c #AD5400",
"3$	c #D47403",
"4$	c #C16303",
"5$	c #873100",
"6$	c #843202",
"7$	c #833205",
"8$	c #8A2F00",
"9$	c #832F03",
"0$	c #954017",
"a$	c #672F16",
"b$	c #82542D",
"c$	c #B25102",
"d$	c #B05100",
"e$	c #DC7F08",
"f$	c #DC7F06",
"g$	c #AE5600",
"h$	c #823201",
"i$	c #7D320B",
"j$	c #783210",
"k$	c #773211",
"l$	c #8D2F00",
"m$	c #81330D",
"n$	c #773622",
"o$	c #462C2F",
"p$	c #6F5D5D",
"q$	c #A6480A",
"r$	c #9F4200",
"s$	c #D07212",
"t$	c #D17011",
"u$	c #A64E07",
"v$	c #6A381F",
"w$	c #603A2D",
"x$	c #583B35",
"y$	c #583B37",
"z$	c #802E00",
"A$	c #6A3418",
"B$	c #453236",
"C$	c #262D49",
"D$	c #5F5D68",
"E$	c #92B331",
"F$	c #9FB741",
"G$	c #6E341C",
"H$	c #6B3214",
"I$	c #9B5112",
"J$	c #9F510F",
"K$	c #78340D",
"L$	c #292639",
"M$	c #1B2A4B",
"N$	c #102D57",
"O$	c #102C53",
"P$	c #753208",
"Q$	c #56382D",
"R$	c #1A2E4F",
"S$	c #132F57",
"T$	c #54595C",
"U$	c #81950A",
"V$	c #DDBDA4",
"W$	c #673C2C",
"X$	c #643928",
"Y$	c #945424",
"Z$	c #9B561F",
"`$	c #6F371E",
" %	c #262547",
".%	c #1A2855",
"+%	c #0C2B61",
"@%	c #0D2B5D",
"#%	c #7B3009",
"$%	c #5B352C",
"%%	c #1E2E4F",
"&%	c #162A4F",
"*%	c #5C6063",
"=%	c #01010D",
"-%	c #0E3056",
";%	c #0C2E54",
">%	c #312B39",
",%	c #4C2F2B",
"'%	c #2D2937",
")%	c #0D2E61",
"!%	c #0D3266",
"~%	c #052B5C",
"{%	c #172E62",
"]%	c #7B3619",
"^%	c #5E3B35",
"/%	c #202F4C",
"(%	c #091428",
"_%	c #030102",
":%	c #432B13",
"<%	c #392818",
"[%	c #000306",
"}%	c #00040D",
"|%	c #0D2D66",
"1%	c #082C66",
"2%	c #4E5065",
"3%	c #664E4C",
"4%	c #42424C",
"5%	c #0D3165",
"6%	c #0C3165",
"7%	c #052D60",
"8%	c #000523",
"9%	c #260600",
"0%	c #130806",
"a%	c #030C15",
"b%	c #00040A",
"c%	c #361E14",
"d%	c #3C2106",
"e%	c #150000",
"f%	c #000307",
"g%	c #00040E",
"h%	c #0D2D6A",
"i%	c #052D6B",
"j%	c #53596F",
"k%	c #6A5753",
"l%	c #484852",
"m%	c #052A5E",
"n%	c #042C60",
"o%	c #093164",
"p%	c #00051B",
"q%	c #130000",
"r%	c #060000",
"s%	c #160100",
"t%	c #1F0500",
"u%	c #756633",
"v%	c #6E5F41",
"w%	c #00010D",
"x%	c #000A1C",
"y%	c #062D66",
"z%	c #002C6B",
"A%	c #5A647D",
"B%	c #715F5B",
"C%	c #45484F",
"D%	c #0A3266",
"E%	c #0C3468",
"F%	c #083063",
"G%	c #010002",
"H%	c #6D5E4C",
"I%	c #786F30",
"J%	c #2E2111",
"K%	c #2D261E",
"L%	c #152547",
"M%	c #0C244A",
"N%	c #525163",
"O%	c #684F4B",
"P%	c #484653",
"Q%	c #0C2043",
"R%	c #122140",
"S%	c #11203D",
"T%	c #070001",
"U%	c #32251C",
"V%	c #281506",
"W%	c #000017",
"X%	c #00011F",
"Y%	c #352F3D",
"Z%	c #4E312D",
"`%	c #292533",
" &	c #000219",
".&	c #000012",
"+&	c #00000F",
"@&	c #020804",
"#&	c #050000",
"$&	c #58503D",
"%&	c #B5C16F",
"&&	c #8EB22C",
"*&	c #1D0B00",
"=&	c #3A261F",
"-&	c #4A2B17",
";&	c #412E28",
">&	c #120403",
",&	c #0C0100",
"'&	c #0E0100",
")&	c #100200",
"!&	c #634D35",
"  . . + + + + @ @ @ @ @ @ @ @ @ @ @ @ @ @ @ @ @ @ @ @ @ @ @ @ @ @ @ @ @ @ @ @ @ @ @ @ @ @ @ @ @ @ @ @ @ @ @ @ @ @ @ + + + . . + ",
"  + . + + + + @ @ @ @ @ @ @ @ @ @ @ @ @ @ @ @ @ @ @ @ @ @ @ @ @ @ @ @ @ @ @ @ @ @ @ @ @ @ @ @ @ @ @ @ @ @ @ @ @ @ @ + + + . + + ",
"  + + . + + + @ @ @ @ @ @ @ @ @ @ @ @ @ @ @ @ @ @ @ @ @ @ @ @ @ @ @ @ @ @ @ @ @ @ @ @ @ @ @ @ @ @ @ @ @ @ @ @ @ @ @ + + + + +   ",
"  + + + + + + @ @ @ @ @ @ @ @ @ @ @ @ @ @ @ @ @ @ @ @ @ @ @ @ @ @ @ @ @ @ @ @ @ @ @ @ @ @ @ @ @ @ @ @ @ @ @ @ @ @ @ + + . + +   ",
"    + + + + + @ @ @ @ @ @ @ @ @ @ @ @ @ @ @ @ @ @ @ @ @ @ @ @ @ @ @ @ @ @ @ @ @ @ @ @ @ @ @ @ @ @ @ @ @ @ @ @ @ @ @ + + + +     ",
"      + + + + @ @ @ @ @ @ @ @ @ @ @ @ @ @ @ @ @ @ @ @ @ @ @ @ @ @ @ @ @ @ @ @ @ @ @ @ @ @ @ @ @ @ @ @ @ @ @ @ @ @ @ + + + #   . ",
"      + + + + @ @ @ @ @ @ @ @ @ @ @ @ @ @ @ @ @ @ @ @ @ @ @ @ @ @ @ @ @ @ @ @ @ @ @ @ @ @ @ @ @ @ @ @ @ @ @ @ @ @ @ + + +     . ",
"  . .   + + + @ @ @ @ @ @ @ @ @ @ @ @ @ @ @ @ @ @ @ @ @ @ @ @ @ @ @ @ @ @ @ @ @ @ @ @ @ @ @ @ @ @ @ @ @ @ @ @ @ @ @ + + + . .   ",
"# #   . + + + @ @ @ @ @ @ @ @ @ @ @ @ @ @ @ @ @ @ @ @ $ % % & * = - ; @ @ @ @ @ @ @ @ @ @ @ @ @ @ @ @ @ @ @ @ @ @ @ + + .       ",
"# #   . + + + @ @ @ @ @ @ @ @ @ @ @ @ @ @ @ @ @ @ @ @ > , , ' ) ! ~ { @ @ @ @ @ @ @ @ @ @ @ @ @ @ @ @ @ @ @ @ @ @ + + + .       ",
"] ] # # . . + @ @ @ @ @ @ @ @ @ @ @ @ @ @ @ @ @ @ @ & ^ / / / / ( _ : < < [ } < | @ @ @ @ @ @ @ @ @ @ @ @ @ @ @ @ + . .     # # ",
"] ] # #   . . + @ @ @ @ @ @ @ @ @ @ @ @ @ @ @ @ @ @ 1 2 3 3 3 3 4 5 6 7 8 9 0 7 a @ @ @ @ @ @ @ @ @ @ @ @ @ @ @ + + . #     # # ",
"b b ] ] # # . + @ @ @ @ @ @ @ @ @ @ @ @ @ @ @ @ @ @ c d e e e e f g h i j k l m n o @ @ @ @ @ @ @ @ @ @ @ @ @ @ + + # #     # # ",
"b b ] ] # #   + @ @ @ @ @ @ @ @ @ @ @ @ @ @ @ @ p q r s t t t t t t t t t t u v w x @ @ @ @ @ @ @ @ @ @ @ @ @ @ + . # #     # # ",
"# # b b b b   . + @ @ @ @ @ @ @ @ @ @ @ @ @ @ @ , , y z t t t t t t t t t t A B 7 @ @ @ @ @ @ @ @ @ @ @ @ @ @ + . .         # # ",
"# # b b b b   . . @ @ @ @ @ @ @ @ @ @ @ @ @ C D E [ F t t t t t t t t t t t G ! @ @ @ @ @ @ @ @ @ @ @ @ @ @ @ . . #         # # ",
"    # # # #     . + @ @ @ @ @ @ @ @ @ @ H I J K L L E A t t t t t t t t t t M N O @ @ @ @ @ @ @ @ @ @ @ @ @ + .             # # ",
"    # # # #     # + @ @ @ @ @ @ @ @ @ @ A P A A t t t t t t t t t t t t t t L Q R S @ @ @ @ @ @ @ @ @ @ @ @ + #             # # ",
"                  . + @ @ @ @ @ @ @ @ @ A P A A t t t t t t t t t t t t t t L T L U @ @ @ @ @ @ @ @ @ @ @ + . #                 ",
"                    . . @ @ @ @ @ @ @ @ A P A A t t t t t t t t t t t t t t [ a a V @ @ @ @ @ @ @ @ @ @ @ . # #                 ",
"        # #         . . @ @ @ @ @ @ @ @ W L L L t t t t t t t t t t t t t t R R e X @ @ @ @ @ @ @ @ @ @ + . # # b b b b         ",
"        # #         # # . + @ @ @ @ @ @ W L L L t t t t t t t t t t t t t t Y Z m ) @ @ @ @ @ @ @ @ + . . # # # b b b b         ",
"        # # ] ] ] + # # . . + @ @ @ `  ...v +.W t t t t t t t t t t t t t t @.#.$.%.@ @ @ @ @ @ @ @ . . # # + # b b b b     # # ",
"        # # ] ] ] ] # + &.&.. + @ *.! =.-.-.+.W t t t t t t t t t t t t t t W ;.>.,.@ @ @ @ @ @ + . &.&.+ # # # b b b b     # # ",
"    # #     # # b b b b + + + + '.).!.~.{.0 K a t t t t t t t t t t t t t t B ].+ + + @ @ @ @ . + + + +                     # # ",
"    # #     # + + b b b # + + + ^./.k k R Q K K t t t t t t t t t t t t t t (._.:.@ + + + + + + + + + #       + +           # # ",
"    # # # #     # + + + + + + + <.[.}.f |.|.s t t t t t t t t t t t t t t t 1.G 2.@ @ + . + &.&.+ + + + + + + #     # #     # # ",
"    # # # #     # # b b # + + + 3.4.5.6.|.|.z z t t t t t t t t t t t t t t 7.j u . + &.+ + + + + + +       # #     # #     # # ",
"        # #         # # b b       + + + 2.F R R t t t s s s s s s t t t t t 8.Q Q 9.+ + + + +               # #                 ",
"        # #         # # b b             ' 0.R R t t t s s s s s s t t t t t 8.R w a.# # b b                 # #                 ",
"        # #             # #       b.c.d.e.u R z A A t B f.g.h.i.j.k.l.m.F n.            # #                 # #         # # # # ",
"        # #             # #     o.p.c.q.r.m.w R A A t |.s.t.u.v.w.x.y.z.A.B.            # #                 # #         # # # # ",
"                            # # C.D.E.F.{.L E W A A t G.H.I.J.K.L.M.N.O.P.Q.                # # # #     # # ] ]             # # ",
"                            # # # # R.S.q.T.U.n A A t V.W.X.Y.Z.`. +.+++                    # # # #     # # ] ]             # # ",
"    # #         # # # # b b # #         @+#+> $+A E t %+&+*+=+-+;+>+,+'+        # # # # b b # #         ] ] b b # #     # #     ",
"    # #         # # # # b b # #         )+!+~+{+^ A ]+^+/+(+_+:+<+[+}+|+    1+2+3+# # # b b # #         ] ] b b # #     # #     ",
"        # # # #     # # b b         # # 4+5+6+7+8.L A 8+9+0+a+b+c+d+e+f+# # # #     # # b b         # # b b             # #     ",
"        # # # #     # # b b         # # g+h+i+j+k+l+m+n+o+p+q+r+s+t+u+v+# # # w+x+  # # b b         # # b b             # #     ",
"            # #     # # b b     # # ] ] y+z+A+B+C+D+A E+F+G+H+I+J+K+L+M+    # # N+  # # b b     # # ] ] # #     # #             ",
"            # #     # # b b     # # ] ] O+P+Q+R+S+T+U+V+W+X+Y+Z+`+ @.@+@@@#@$@%@&@*@# # b b     # # ] ] # #     # #             ",
"# #         # #         b b b b ] ] ] ] =@-@;@>@,@'@)@!@~@{@]@^@/@(@_@:@<@[@}@|@1@2@    b b b b ] ] ] ]         b b # #         ",
"# #         # #         b b b b ] ] ] ]     3@4@5@6@7@8@9@0@a@b@c@d@e@f@g@h@i@j@k@l@    b b b b ] ] ] ]         b b # #         ",
"] ] # #                     b b b b     # # m@n@o@p@q@r@s@t@u@v@w@x@y@z@A@B@C@D@E@F@        b b b b     # #     b b # #     # # ",
"] ] # #                     b b b b     # # G@H@I@J@K@L@M@N@O@P@Q@R@S@T@U@V@W@X@Y@          b b b b     # #     b b # #     # # ",
"b b ] ] # #     # #         b b # #     # # Z@`@ #.#+#@###$#%#&#*#=#-#;#>#,#'#)#!##         b b # ~#    # #     # # # #     # # ",
"b b ] ] # #     # #         b b # #     # # {#]#^#/#(#_#:#<#[#}#|#1#2#3#4#5#6#7#8##         b b # 9#    # #     # # # #     # # ",
"# # b b b b     ] ] ] ]     # # # #     # # 0#a#b#c#d#e#f#g#h#i#j#k#l#m#n#o#    ] ] p#q#    # # # #     # #     # #         # # ",
"# # b b b b     ] ] ] ]     # # # #     # # r#s#t#u#v#w#x#y#z#A#B#C#D#E#b b     ] ] ] ]     # # # #     # #     # #         # # ",
"b b b b # #     # # ] ]                     F#G#H#I#J#K#L#L#M#N#O#P#Q#R## #     # # ] ]                     # #             # # ",
"b b b b # #     # # ] ]                     S#T#U#V#W#X#Y#Y#Y#Z#`# $.$+$# #     # # ] ]                     # #             # # ",
"# # b b             b b b b             # # @$#$$$%$&$*$=$=$-$;$>$,$'$)$            b b b b             # # # #                 ",
"# # b b             b b b b             # # !$~${${$]$^$/$($_$:$<$[$}$|$            b b b b             # # # #                 ",
"    b b # #         # # # #     # # # # # # 1$2$3$3$4$*$5$6$7$8$9$0$a$b$# #         # # # #     # # # # # # # # b b b b         ",
"    b b # #         # # # #     # # # # # # c$d$e$f$g$h$i$j$k$l$m$n$o$p$# #         # # # #     # # # # # # # # b b b b         ",
"b b     # # ] ] ] ] # #         # # # # # # q$r$s$t$u$v$w$x$y$z$A$B$C$D$# # ] ] ] ] # #         # # # # # # # # b b b b     # # ",
"b b     # # ] ] ] ] # #         # # # # E$F$G$H$I$J$K$L$M$N$O$P$Q$R$S$T$# # ] ] ] ] # #         # # # # # # # # b b b b     # # ",
"b b         # # b b b b # #     # # # # U$V$W$X$Y$Z$`$ %.%+%@%#%$%%%&%*%    # # b b b b # #     # # # #                     # # ",
"b b         # # b b b b # #     # # # # V+=%-%;%>%,%'%)%!%~%{%]%^%/%(%[ _%! # # b b b b # #     # # # #                     # # ",
"# #     # #     # # b b # #         :%<%[%}%|%1%2%3%4%5%6%7%8%9%0%a%b%L 0 W c%d%# # b b # #                 # #     # #     # # ",
"# #     # #     # # b b # #         e%>@f%g%h%i%j%k%l%m%n%o%p%q%r%f%[%t 0 E s%t%# # b b # #                 # #     # #     # # ",
"        # #         # # b b         u%v%w%x%y%z%A%B%C%D%E%F%0...T [ T G%=.F H%I%    # # b b                 # #                 ",
"        # #         # # b b             J%K%L%M%N%O%P%Q%R%S%z W T%8 T X U%V%        # # b b                 # #                 ",
"        # #             # #                 W%X%Y%Z%`% &.&+&@&#&T%7 Q $&%&&&            # #                 # #         # # # # ",
"        # #             # #                 *&) =&-&;&| >@>&,&'&V )&)&!&# #             # #                 # #         # # # # "};
