/* XPM */
static char * player_d_exit_xpm[] = {
"64 64 113 2",
"  	c #7B9200",
". 	c #8CB229",
"+ 	c #CEFB42",
"@ 	c #7A8E01",
"# 	c #BDBA00",
"$ 	c #101410",
"% 	c #313431",
"& 	c #212421",
"* 	c #4A494A",
"= 	c #6A7C08",
"- 	c #000000",
"; 	c #7B824F",
"> 	c #818D5D",
", 	c #7B797B",
"' 	c #9C9A9C",
") 	c #93904F",
"! 	c #7A9001",
"~ 	c #798F01",
"{ 	c #845118",
"] 	c #828E5E",
"^ 	c #7B9106",
"/ 	c #8A8B79",
"( 	c #7B8639",
"_ 	c #929091",
": 	c #BDBABD",
"< 	c #939093",
"[ 	c #83816B",
"} 	c #CE8663",
"| 	c #AD7939",
"1 	c #FFBEAD",
"2 	c #ADAEAD",
"3 	c #E79E84",
"4 	c #8AAA35",
"5 	c #7B0039",
"6 	c #FF5D8C",
"7 	c #FFFFFF",
"8 	c #5A595A",
"9 	c #7D920A",
"0 	c #9C9A9B",
"a 	c #7C9205",
"b 	c #9C9D90",
"c 	c #AAA8AA",
"d 	c #7C033B",
"e 	c #FF72B3",
"f 	c #FF5C94",
"g 	c #FF7FB9",
"h 	c #FF8ABD",
"i 	c #DEDBDE",
"j 	c #B4A2AC",
"k 	c #D53D88",
"l 	c #FF73AC",
"m 	c #FF88BC",
"n 	c #94466B",
"o 	c #FF79B5",
"p 	c #00007B",
"q 	c #AD4900",
"r 	c #733800",
"s 	c #000039",
"t 	c #7E083F",
"u 	c #939193",
"v 	c #BBB8BB",
"w 	c #9E9B9E",
"x 	c #0000AD",
"y 	c #FF7100",
"z 	c #D66100",
"A 	c #9A989A",
"B 	c #B6B3B6",
"C 	c #A3A1A3",
"D 	c #FF79CE",
"E 	c #B1AEB1",
"F 	c #9D9B9D",
"G 	c #DA5969",
"H 	c #C3B1A2",
"I 	c #A9A7A9",
"J 	c #86511A",
"K 	c #AC9A8B",
"L 	c #7D7B7D",
"M 	c #FF0000",
"N 	c #BB7448",
"O 	c #7A787A",
"P 	c #DEA284",
"Q 	c #999799",
"R 	c #B1AFB1",
"S 	c #989598",
"T 	c #979597",
"U 	c #ABA8AB",
"V 	c #A4A2A4",
"W 	c #A5A3A5",
"X 	c #8B898B",
"Y 	c #878487",
"Z 	c #858385",
"` 	c #7E7C7E",
" .	c #7C7A7C",
"..	c #7B4B1F",
"+.	c #7E6D5D",
"@.	c #958474",
"#.	c #83531E",
"$.	c #7E6E5F",
"%.	c #8CB129",
"&.	c #83A42C",
"*.	c #A17D68",
"=.	c #B38F7A",
"-.	c #AA7F4A",
";.	c #958577",
">.	c #9F8D83",
",.	c #8C5129",
"'.	c #978479",
").	c #837168",
"!.	c #806D62",
"~.	c #8B542B",
"{.	c #807444",
"].	c #8DAF2A",
"^.	c #979731",
"                            . . . .     . . + +             . .                             . . . .     . . + +             . . ",
"  @                         . . . .     . . + +             . .                             . . . .     . . + +             . . ",
"    . .         . . . . # # . .         + + # # . .     . .         . .         . . . . # # . .         + + # # . .     . .     ",
"    . .         . . . . # # . .         + + # # . .     . .         . .         . . . . # # . .         + + # # . .     . .     ",
"        . . . .     . . # #         . . # #             $ .             . . . .     . . # #         . . # #             . .     ",
"        . . . .     . . # #         . . # #             $ .             . . . .     . . # #         . . # #             . .     ",
"            . .     . . # #     . . + + . .     . .     $ $ $               . .     . . # #     . . + + . .     . .             ",
"            . .     . . # #     . . + + . .     . .     $ $ $               . .     . . # #     . . + + . .     . .             ",
". .         . .         # # # # $ $ $ $ $ $ $ $ # # . . $ % % $ $ .         . .         # # # # + + + +         # # . .         ",
". .         . .         # # # # $ $ $ $ $ $ $ $ # # . . $ % % $ $ .         . .         # # # # + + + +         # # . .         ",
"+ + . .                     # # # $ $ & & % % * $ $ $ $ $ * * $ $ + . .                     # # # #     . .     # # . .     . . ",
"+ + . .                   = # # # #   $ $ & & % * * % % $ % % & & $ - - - -                 # # # #     . .     # # . .     . . ",
"# # + + . .     . .         # # . .   $ $ & & % * * % % $ % % & & $ - - - - ; ; > >         # # . .     . .     . . . .     . . ",
"# # + + . .     . .         # # . .   $ $ $ $ & % % * * % & & & & % & & $ $ - , ' , ; ; ; ; ) ) . .     . .     . . . .     . . ",
". . # # # #     + + + +     . . . .   $ $ $ $ & % % * * % & & & & % & & $ $ - , , ' , , , , , , > >     . .     . .         . . ",
". . # # # #     + + + +     . . $ $ $ * * & & % * * % % $ & & % % * & & & & $ - - ' ' , , , , , , , ; ; > .     . .         . . ",
"    . . . .     . . + +         $ $ $ * * & & % * * % % $ & & % % * & & & & $ - - , , ' , , , , , , , , , ; . .             . . ",
"    . . . .     . . + + !   $ $ % * * * * % % & $ $ $ $ % & & - - * $ $ - - $ - - ' ' , , , , , , , , , , , > .     ~       . . ",
"                    # # $ $ $ $ $ $ $ % % & & $ & & $ $ * $ $ - - % - - { { - $ $ - - ' ' ' ' ' , , ' , , , , ] ^               ",
"                    # # $ $ $ $ $ $ $ % % & & $ & & $ $ * $ $ - - % - - { { - $ $ - - ' , , , , , , , , ' , , , / (             ",
"        . .         . . . . ; , , , ' $ $ & & $ { { $ $ * $ $ { { - - - { { { - - - - ' , , , , , , , , ' , , , _ : ) #         ",
"        . .         . . . ' , , , ' ' $ $ & & $ { { $ $ * $ $ { { - - - { { { - - - - ' ' ' , , ' ' ' , , , , , , < [ #         ",
"        . . + + + + . > ; ' , ' ' $ $ $ $ & & $ $ $ } } $ $ $ } } - { { } } { - - $ $ - ' ' ' ' ' ' ' , ' , , , , ' ' ) ;   . . ",
"        . . + + + + . > , , ' ' $ & & % % & & | $ $ $ $ - $ $ } } - - - - - - { { $ $ & - - ' ' ' ' ' ' ' , ' , ' , , ' '   . . ",
"    . .     . . # # ) ' ' , ' ' $ & & % % & & | $ $ $ $ - $ $ } } - - - - - - { { $ $ & - - ' ' ' ' ' ' , ' , ' , ' ' ' '   . . ",
"    . .     . . # # ) , , ' $ $ $ $ $ $ $ | | 1 | | $ $ 2 - - 3 3 - 2 2 3 3 } 3 3 { { - - - - - ' ' ' ' ' ' ' ' , ' ' ' '   . . ",
"    . . . .     . . ) ' ' ' $ $ $ $ $ $ $ | | 1 | | $ $ 2 - - 3 3 - 2 2 3 3 } 3 3 { { - - - - - ' ' ' ' ' ' ' ' ' ' ' ' '   . . ",
"    . . . .     4 > ' ' ' ' : 5 5 6 6 - - | | 3 | | 1 1 7 8 8 3 3 8 7 7 3 3 { } } { { - : : : : ' ' ' ' ' ' ' ' ' ' ' ' ' : . . ",
"        . .     9 0 ' ' ' ' : 5 5 6 6 - - | | 3 | | 1 1 7 8 8 3 3 8 7 7 3 3 { } } { { - : : : : : : ' : ' ' ' ' ' ' ' ' ' :     ",
"        . .     a b ' ' ' ' : 5 5 - - - - - - | { { 3 3 7 - - 1 1 - 7 7 } } { { { - - - - - ' ' : : ' ' ' : ' ' ' ' ' ' ' :     ",
"        . .       c ' ' ' : ' d 5 e f g h h h - - - | | 3 1 1 1 1 3 } } { { - - - i : : : : : : : : ' : ' ' ' ' ' ' ' : : : . . ",
"        . .   ' ' ' ' ' ' : j 5 k l m h h h h - - - | | 3 1 1 1 1 3 } } { { - - - i : : : : : : ' ' : ' ' ' : ' ' : : ' ' : . . ",
"              ' ' ' ' : : : n 5 6 o h h h p p q q q q q | | | | | { { { r r r r r s s : : : : : : : : : ' ' ' ' ' ' ' ' ' : . . ",
"              ' ' ' ' : : : t 5 6 o h h h p p q q q q q | | | | | { { { r r r r r s s i : : : : : : ' : : ' : ' : ' ' : : : . . ",
"    . .       ' ' u : v : w 5 5 o 6 h p p x x q y y z z q p p x x s r r q q z r r x x s : : : : : : ' : ' ' : ' : ' ' : : :     ",
"    . .       ' ' A B B C : 5 5 6 o D p p x x q y y z z q p p x x s r r q q z r r x x s : : : : : : ' : ' ' : ' : ' ' : : :     ",
"        . . . ' ' ' ' E F : 5 5 6 6 6 G { p p x q q y y y q q p p r - - 7 7 r p p s s H : : : : : : : : : ' : ' : ' ' : : .     ",
"        . . . > ; ' ' I F : 5 5 6 6 6 J { } } p q q z z y y y q q q z z - - r s s } } K : : : : : : : : : ' : : ' : : : : .     ",
"            . .   ; ' ' ' ' : : 5 6 6 J { } } p q q z z y y y q q q z z - - r s s } } H : : : : : : : : ' : ' ' : : : : :       ",
"            . .   ; , L ' ' ' ' 5 M 6 N | 3 3 } { { s s p x x s s x p p s s { } } 3 3 K : : : : : : : ' : : : : ' : : : :       ",
". .         . .   ; ' ' O ' ' ' ' ' M | | 3 3 } { { s s p x x s s x p p s s H } } 3 3 K : : : : : : : : ' : ' : ' : : '         ",
". .         . .     ; , , ' ' ' ' ' 5 p p x x s P P s s s s s s s s s s s s i s s s s s : : : : : : : : : : Q R S , T '         ",
"+ + . .             ; ; ' , ' ' ' ' ' p p x x s P P s s s s s s s s s s s s U s s s s s V W W W W W X ' Y Z `  .' ' > >     . . ",
"+ + . .                 ' , , , ' ' ' p p p p s r r q q s x x s s x s s r r ..s s p p s ' , , ' ' ' , , , , , , ) ) . .     . . ",
"# # + + . .     . .       ; , , , ' ' | | 1 1 3 q q z z s p p s s p s s q q r 3 3 } } +., , , , , , , ' , , , ; . . . .     . . ",
"# # + + . .     . .       ; , , , ' ' | | 1 1 3 q q z z s p p s s p s s q q r 3 3 } } +., , , , , , , ' , , , ; . . . .     . . ",
". . # # # #     + + + +     ' ' , , ' | | 3 3 1 q q y y s p p ' ' p s s z z r } } 3 3 { @.' ' , , ' , , , , ;   . .         . . ",
". . # # # #     + + + +     . . > ' ' | | 3 3 1 q q y y s p p ' ' p s s z z r } } 3 3 #.$., , , , , , , , >     . .         . . ",
"# # # # . .     %.&.+ +           ; , *.=.-.-.{ q q y y s s s ' ' s s s z z r { { +.;., , , , , , , , , ;   . .             . . ",
"# # # # . .     . . + +             ; ; , ' ' ' q q z z y q >.' , >.z z q q r ,.'.' , , , , , , , ; ; ;     . .             . . ",
". . # #             # # # #             > ' , , q q z z y q >., ' ).z z q q r ,.'., , , , , , ; ;       . . . .                 ",
". . # #             # # # #             . . > > r r r r r s s , , r r r r r s ,.!.; ) ) ) ) ;           . . . .                 ",
"    # # . .         . . . .     . . . . . . . . r r r r r s s ; ; r r r r r s ~.{.  . . . .     . . . . . . . . # # # #         ",
"    # # . .         . . . .     . . . . . . . . p p q q x s s     s p p q q s       . . . .     . . . . . . . . # # # #         ",
"# #     . . + + + + . .         . . . . . . . . p p q q x s s .   s p p q q s + + + . .         . . . . . . . . # # # #     . . ",
"# #     . . + + + + . .         . . . . . - - - p p z z q r r - - r r r q q r - - - - .         . . . . . . . . # # # #     . . ",
"# #         . . # # # # . .     . . . - - - - - p p q q x s s - - s p p p p r s s - - - - .     . . . .                     . . ",
"# #         . . # # # # . .     . . . - - - - - p p q q x s s - - s p p p p r s s - - - - .     . . . .                     . . ",
". .     . .     . . # # . .               - - - - - r r s - - - - - - - - - - - - - - # . .                 . .     . .     . . ",
". .     . .     . . # # . .               - - - - - r r s - - - - - - - - - - - - - - # . .                 . .     . .     . . ",
"        . .         . . # #                 . .                         . .         . . # #                 . .                 ",
"        . .         . . # #                 . .                         . .         . . # #                 . .                 ",
"        . .             . .                 . .         . . . .         . .             . .                 . .         . . . . ",
"        . .             . .                 . .         . . . .         . .             . .                 . .         . . ].^."};
