/* XPM */
static char * trail_fire_xpm[] = {
"64 64 536 2",
"  	c #7B9200",
". 	c #F7941D",
"+ 	c #F7941F",
"@ 	c #F9911E",
"# 	c #F25A29",
"$ 	c #F35B2A",
"% 	c #F35D2A",
"& 	c #FAB140",
"* 	c #FDB141",
"= 	c #FCB040",
"- 	c #FBA83E",
"; 	c #F25C2A",
"> 	c #FEB043",
", 	c #FCB042",
"' 	c #FAAA39",
") 	c #F8931F",
"! 	c #FA9926",
"~ 	c #FBC16D",
"{ 	c #8CB229",
"] 	c #F35D2B",
"^ 	c #FAB444",
"/ 	c #FAB243",
"( 	c #FBB545",
"_ 	c #F8A73C",
": 	c #F7592A",
"< 	c #FDAF43",
"[ 	c #FBB243",
"} 	c #F79323",
"| 	c #FA9626",
"1 	c #FCAD37",
"2 	c #F8C35B",
"3 	c #F15B29",
"4 	c #F55728",
"5 	c #F15928",
"6 	c #F65B2F",
"7 	c #F7682C",
"8 	c #FBAF41",
"9 	c #F69715",
"0 	c #F2A849",
"a 	c #CEFB42",
"b 	c #BDBA00",
"c 	c #F26C2F",
"d 	c #F9AA4B",
"e 	c #F6931C",
"f 	c #F99928",
"g 	c #F5921B",
"h 	c #F6931E",
"i 	c #F9A93A",
"j 	c #F69220",
"k 	c #F89A29",
"l 	c #F5921D",
"m 	c #F4931E",
"n 	c #F8A94C",
"o 	c #F5911F",
"p 	c #F69A2B",
"q 	c #F49521",
"r 	c #F3921F",
"s 	c #F5A94B",
"t 	c #FF9425",
"u 	c #F05A28",
"v 	c #EF5728",
"w 	c #F36C2C",
"x 	c #FDB23D",
"y 	c #FAB142",
"z 	c #FCA838",
"A 	c #F99A2C",
"B 	c #F79928",
"C 	c #F2911E",
"D 	c #F3A94A",
"E 	c #F2931D",
"F 	c #FA9720",
"G 	c #FAB33D",
"H 	c #F9B23C",
"I 	c #F8AC3C",
"J 	c #EE1A28",
"K 	c #ED1B28",
"L 	c #ED1927",
"M 	c #FAAF38",
"N 	c #FFA83F",
"O 	c #F99219",
"P 	c #FA921F",
"Q 	c #F3941E",
"R 	c #F79824",
"S 	c #F69827",
"T 	c #F39322",
"U 	c #FA9C28",
"V 	c #F9971A",
"W 	c #F8AD38",
"X 	c #FAAD39",
"Y 	c #FBAE3A",
"Z 	c #F8C373",
"` 	c #F5951C",
" .	c #F9941E",
"..	c #FFB041",
"+.	c #FCA33B",
"@.	c #EF1B27",
"#.	c #ED1B24",
"$.	c #FCB13E",
"%.	c #F8AA3B",
"&.	c #F3921D",
"*.	c #F0911D",
"=.	c #F0901F",
"-.	c #FA9F34",
";.	c #F7AD40",
">.	c #F8AF40",
",.	c #F8951E",
"'.	c #F1921E",
").	c #F7AE3F",
"!.	c #F9B041",
"~.	c #FBAF3F",
"{.	c #F5941F",
"].	c #EF901C",
"^.	c #F29422",
"/.	c #F59525",
"(.	c #F4AC40",
"_.	c #F8AE41",
":.	c #F99B2A",
"<.	c #F69A2D",
"[.	c #FDB64C",
"}.	c #FDB64A",
"|.	c #FBB249",
"1.	c #FDC06D",
"2.	c #F1901D",
"3.	c #EE8E1D",
"4.	c #FB9F32",
"5.	c #F3AB3F",
"6.	c #FDB64E",
"7.	c #F8B044",
"8.	c #F8AF3E",
"9.	c #FAC06C",
"0.	c #F49320",
"a.	c #FDA134",
"b.	c #F9B548",
"c.	c #F9B145",
"d.	c #F69522",
"e.	c #FA981D",
"f.	c #F8AF3C",
"g.	c #F7A537",
"h.	c #EF1B29",
"i.	c #ED1B26",
"j.	c #EB1C24",
"k.	c #F01728",
"l.	c #EB1C26",
"m.	c #F7AA38",
"n.	c #F69419",
"o.	c #F69520",
"p.	c #F59618",
"q.	c #F4961A",
"r.	c #F59821",
"s.	c #FC9D31",
"t.	c #F8B147",
"u.	c #F9B248",
"v.	c #FDB44B",
"w.	c #FCB54B",
"x.	c #F9BF6D",
"y.	c #F3961D",
"z.	c #F9A03C",
"A.	c #F89F3B",
"B.	c #F79939",
"C.	c #EA2723",
"D.	c #E92823",
"E.	c #EA2922",
"F.	c #ED2820",
"G.	c #EA2E23",
"H.	c #ED1C22",
"I.	c #F9AE39",
"J.	c #F78B1C",
"K.	c #F68922",
"L.	c #F68C1E",
"M.	c #F48B20",
"N.	c #F79321",
"O.	c #F79727",
"P.	c #FCB448",
"Q.	c #FBB44A",
"R.	c #F7BD6B",
"S.	c #F8901F",
"T.	c #F15429",
"U.	c #F01A24",
"V.	c #FD9F3B",
"W.	c #F3582A",
"X.	c #F66828",
"Y.	c #F79726",
"Z.	c #F5AB40",
"`.	c #F7BE6D",
" +	c #EF5927",
".+	c #F89827",
"++	c #FAAE40",
"@+	c #F6AC41",
"#+	c #F2A83D",
"$+	c #FDC473",
"%+	c #F05E2F",
"&+	c #F0592A",
"*+	c #FEB74D",
"=+	c #F1A93D",
"-+	c #F1B765",
";+	c #F69021",
">+	c #EF5829",
",+	c #F9AF42",
"'+	c #F5AB3E",
")+	c #F4AA3F",
"!+	c #F2AB41",
"~+	c #F5BD6A",
"{+	c #F78F1E",
"]+	c #F26132",
"^+	c #ED5B2C",
"/+	c #F7AF43",
"(+	c #F8BF6E",
"_+	c #F79226",
":+	c #F16031",
"<+	c #F46336",
"[+	c #F46638",
"}+	c #F9AD3F",
"|+	c #FBB44C",
"1+	c #F9C06F",
"2+	c #F89327",
"3+	c #F46334",
"4+	c #F05F30",
"5+	c #F15A2D",
"6+	c #F25B2C",
"7+	c #F35B2C",
"8+	c #ED542A",
"9+	c #F01928",
"0+	c #EC1A23",
"a+	c #FDB046",
"b+	c #FDAF42",
"c+	c #F8A138",
"d+	c #F05D29",
"e+	c #EE5A2A",
"f+	c #F06A23",
"g+	c #F99317",
"h+	c #FAAE3E",
"i+	c #F7BF6C",
"j+	c #F68E1F",
"k+	c #EA5829",
"l+	c #F36535",
"m+	c #E95829",
"n+	c #F26436",
"o+	c #EC5A2B",
"p+	c #F15A2B",
"q+	c #EC5528",
"r+	c #E72025",
"s+	c #EE1B24",
"t+	c #FEB340",
"u+	c #FDAF40",
"v+	c #FAA33A",
"w+	c #EE5C2B",
"x+	c #F15B28",
"y+	c #F46A29",
"z+	c #F5951A",
"A+	c #F8BE6A",
"B+	c #F38F20",
"C+	c #F56739",
"D+	c #F36639",
"E+	c #EB592A",
"F+	c #F26537",
"G+	c #EE5B2F",
"H+	c #F2931F",
"I+	c #F89520",
"J+	c #F49B19",
"K+	c #FFB047",
"L+	c #F9921C",
"M+	c #F7921C",
"N+	c #F7991D",
"O+	c #FBB440",
"P+	c #F6B53F",
"Q+	c #FBA63B",
"R+	c #F0961E",
"S+	c #FCAE41",
"T+	c #F79324",
"U+	c #F66538",
"V+	c #EF6133",
"W+	c #EC5C2A",
"X+	c #FBB23F",
"Y+	c #F99420",
"Z+	c #F99A24",
"`+	c #FDB03E",
" @	c #FDA939",
".@	c #F9BF6B",
"+@	c #F58F20",
"@@	c #ED5929",
"#@	c #EE5D2E",
"$@	c #F66838",
"%@	c #F36537",
"&@	c #F56938",
"*@	c #F49423",
"=@	c #FAB13E",
"-@	c #FA9B25",
";@	c #F76639",
">@	c #EB5D2D",
",@	c #F49624",
"'@	c #F8941C",
")@	c #F99120",
"!@	c #F36736",
"~@	c #F59726",
"{@	c #F09020",
"]@	c #F8931D",
"^@	c #ED592B",
"/@	c #F26432",
"(@	c #F69626",
"_@	c #EE901F",
":@	c #F5992A",
"<@	c #F49424",
"[@	c #F4941C",
"}@	c #F9B23E",
"|@	c #F99825",
"1@	c #FEC16E",
"2@	c #EF9120",
"3@	c #F5962A",
"4@	c #F89B31",
"5@	c #F7982C",
"6@	c #EF8E23",
"7@	c #F29224",
"8@	c #F39420",
"9@	c #FAB043",
"0@	c #F99621",
"a@	c #F49419",
"b@	c #FD9A25",
"c@	c #FAB23C",
"d@	c #FBC269",
"e@	c #F05D2A",
"f@	c #EC8621",
"g@	c #F4902E",
"h@	c #F38F2D",
"i@	c #EB841F",
"j@	c #F5912F",
"k@	c #F49030",
"l@	c #F98A31",
"m@	c #F48F37",
"n@	c #F6903B",
"o@	c #F8903B",
"p@	c #F7951A",
"q@	c #F99F31",
"r@	c #FBBE61",
"s@	c #F9CB7E",
"t@	c #F36235",
"u@	c #EA592A",
"v@	c #E95728",
"w@	c #F45F37",
"x@	c #EF212B",
"y@	c #EC582A",
"z@	c #EF5B2D",
"A@	c #EB5729",
"B@	c #E95227",
"C@	c #EC1D25",
"D@	c #EA1B23",
"E@	c #EF5E2F",
"F@	c #EE5229",
"G@	c #EE1C25",
"H@	c #EC5329",
"I@	c #EC1A25",
"J@	c #ED262D",
"K@	c #E81A24",
"L@	c #ED5627",
"M@	c #EC5828",
"N@	c #EA1B25",
"O@	c #E9212B",
"P@	c #EB262F",
"Q@	c #E91B25",
"R@	c #EF532A",
"S@	c #F12530",
"T@	c #E81F29",
"U@	c #ED2831",
"V@	c #E92028",
"W@	c #F0532A",
"X@	c #F12933",
"Y@	c #EE2932",
"Z@	c #F0222E",
"`@	c #F02832",
" #	c #E61D25",
".#	c #EF2731",
"+#	c #F6911B",
"@#	c #F8B544",
"##	c #FBB344",
"$#	c #F9AA41",
"%#	c #F35B29",
"&#	c #F5971D",
"*#	c #F5961E",
"=#	c #F6981E",
"-#	c #F4981D",
";#	c #F29222",
">#	c #EF5E29",
",#	c #F0642F",
"'#	c #EE622D",
")#	c #F26935",
"!#	c #F36732",
"~#	c #ED5A2E",
"{#	c #F1552D",
"]#	c #F1552C",
"^#	c #F3562D",
"/#	c #F06E32",
"(#	c #FCAF3D",
"_#	c #F9A83C",
":#	c #F45C2A",
"<#	c #F98F21",
"[#	c #F1592A",
"}#	c #F1582C",
"|#	c #F36233",
"1#	c #F46135",
"2#	c #F8643E",
"3#	c #F0592C",
"4#	c #F25A2B",
"5#	c #F46F34",
"6#	c #F8AA3D",
"7#	c #F78C22",
"8#	c #F16436",
"9#	c #EF5C30",
"0#	c #E8572A",
"a#	c #F35E34",
"b#	c #EF6E2C",
"c#	c #FAA93D",
"d#	c #F7941C",
"e#	c #F88E20",
"f#	c #F15F30",
"g#	c #F66536",
"h#	c #EB5A2B",
"i#	c #F56437",
"j#	c #F36F2F",
"k#	c #F2592D",
"l#	c #EB5928",
"m#	c #F16335",
"n#	c #E95726",
"o#	c #EC5B2C",
"p#	c #F26E30",
"q#	c #EF5D2E",
"r#	c #F26134",
"s#	c #F46233",
"t#	c #EF6D2F",
"u#	c #FEB147",
"v#	c #FAA93E",
"w#	c #F8941A",
"x#	c #FA931C",
"y#	c #FA931A",
"z#	c #F09018",
"A#	c #F16029",
"B#	c #F15E28",
"C#	c #EF5E27",
"D#	c #EB5E28",
"E#	c #ED602B",
"F#	c #E85B26",
"G#	c #F16834",
"H#	c #F26633",
"I#	c #F37737",
"J#	c #F7AF41",
"K#	c #FFAE42",
"L#	c #FCA635",
"M#	c #F3931B",
"N#	c #FA9217",
"O#	c #F6AC55",
"P#	c #F3951B",
"Q#	c #FDB143",
"R#	c #FBB241",
"S#	c #F8A444",
"T#	c #EA1D24",
"U#	c #EB1B28",
"V#	c #E91B28",
"W#	c #E71B27",
"X#	c #ED2734",
"Y#	c #E81E2C",
"Z#	c #F34431",
"`#	c #F4AE3F",
" $	c #FFB144",
".$	c #FAA53B",
"+$	c #F89422",
"@$	c #F8AC4A",
"#$	c #F5951D",
"$$	c #FEB041",
"%$	c #FAA43D",
"&$	c #F31820",
"*$	c #EE1A26",
"=$	c #EF2732",
"-$	c #EC2731",
";$	c #ED2530",
">$	c #ED402F",
",$	c #FDB44D",
"'$	c #FAB341",
")$	c #FBB03D",
"!$	c #FFB345",
"~$	c #FFA634",
"{$	c #F6961E",
"]$	c #F6AD4F",
"^$	c #FAA240",
"/$	c #EE1B22",
"($	c #EA1C26",
"_$	c #EC2730",
":$	c #E83928",
"<$	c #FEB74B",
"[$	c #F6AC3F",
"}$	c #FCAF43",
"|$	c #FBA939",
"1$	c #F9AC50",
"2$	c #EF4231",
"3$	c #F5AD41",
"4$	c #E61B21",
"5$	c #EE422E",
"6$	c #FAB347",
"7$	c #EE4130",
"8$	c #F9B143",
"9$	c #EC412F",
"0$	c #FEB64A",
"a$	c #F6AD3E",
"b$	c #F3941C",
"c$	c #F48E1F",
"d$	c #F25F2C",
"e$	c #F6A43E",
"f$	c #F1182B",
"g$	c #EC1D23",
"h$	c #EC1E2B",
"i$	c #ED3E2B",
"j$	c #F6AC43",
"k$	c #F9B343",
"l$	c #FCB446",
"m$	c #FEB044",
"n$	c #FDA937",
"o$	c #F1AB49",
"p$	c #F6961D",
"q$	c #FA971F",
"r$	c #FB9820",
"s$	c #EBA418",
"t$	c #F9991E",
"u$	c #F89C1D",
"v$	c #EE602E",
"w$	c #F25F2B",
"x$	c #F0602B",
"y$	c #F2612C",
"z$	c #F46C32",
"A$	c #FFAD38",
"B$	c #FBC273",
"C$	c #F89321",
"D$	c #FA931D",
"E$	c #EE5A2C",
"F$	c #F55929",
"G$	c #F45929",
"H$	c #F1702F",
"I$	c #F7B03E",
"J$	c #FAAF3A",
"K$	c #FCC167",
"                    . . . . + @ # # # $ % & * = = = = - ; # # # # > = = = = = = = = = = , ' ) . . . ! = = = = = ~           { { ",
"                    . . . . + @ # # # $ % & * = = = = - ; # # # # > = = = = = = = = = = , ' ) . . . ! = = = = = ~           { { ",
"    { {         { { . . . . + @ # # # # ] ^ / ( ( ^ ^ _ : # # # # ( ( ( ( ( < [ = = = = , ' ) . . } | 1 1 1 1 1 2 {     { {     ",
"    { {         { { . . . . + @ # # # # $ 3 # # # # # 4 5 # # # # 6 # # # # 7 8 = = = = , ' ) . . 9 0   a a b b { {     { {     ",
"        { { { {     . . . . + @ # # # # # # # # # # # # # # # # # # # # # # c = = = = = , ' ) . . + d { b b             { {     ",
"        { { { {     . . . . + @ # # # # # # # # # # # # # # # # # # # # # # c = = = = = , ' ) . . + d { b b             { {     ",
"            { {     . . . . + @ # # # # # # # # # # # # # # # # # # # # # # c = = = = = , ' ) e . + d a { {     { {             ",
"            { {     . . . . + @ # # # # # # # # # # # # # # # # # # # # # # c = = = = = = ' + f g h d a { {     { {             ",
"{ {         { {     . . . . + @ # # # # # # # # # # # # # # # # # # # # # # c = = = = = , i j k l m n a         b b { {         ",
"{ {         { {     . . . . + @ # # # # # # # # # # # # # # # # # # # # # # c = = = = = 8 i o p q r s a         b b { {         ",
"a a { {             . . . . . t # # # u 3 5 5 u u u u u u u u u u v # # # # w x = = = = y z | A B C D   { {     b b { {     { { ",
"a a { {             . . . . E F G G G H I J K L L L L L L L L L L M G G G G N O P P P P E Q R S T U V W X X Y Y Z b { {     { { ",
"b b a a { {     { { . . . . `  .= = = ..+.@.#.#.#.#.#.#.#.#.#.#.#.$.= = = = %.+ . . . . . e &.B *.=.-.;.>.8 8 = ~ { { {     { { ",
"b b a a { {     { { . . . . `  .= = = ..+.@.#.#.#.#.#.#.#.#.#.#.#.$.= = = = %.+ . . . . ,.e &.S '.*.-.;.).!.8 ~.~ { { {     { { ",
"{ { b b b b     a a . . . . `  .= = = ..+.@.#.#.#.#.#.#.#.#.#.#.#.$.= = = = %.+ . . . . . e {.].^./.-.(._.>.!.8 ~ {         { { ",
"{ { b b b b     a a . . . . `  .= = = ..+.@.#.#.#.#.#.#.#.#.#.#.#.$.= = = = %.+ . . . . . . e r k :.<.[.}.|.).8 1.{         { { ",
"    { { { {     { { . . . . `  .= = = ..+.@.#.#.#.#.#.#.#.#.#.#.#.$.= = = = %.+ . . . . . . . g 2.3.4.|.5.6.7.8.9.          { { ",
"    { { { {     { { . . . . `  .= = = ..+.@.#.#.#.#.#.#.#.#.#.#.#.$.= = = = %.+ . . . . e . . . l 0.a.5.5.b.c.;.9.          { { ",
"                    . . . . d.e.$.$.$.f.g.h.K i.i.j.j.k.l.#.#.#.#.$.= = = = m.n.o.o.o.o.p.q.r.. e l s.t.u.v.5.w.x.              ",
"                    . . . . + y.z.z.z.A.B.C.D.E.E.F.F.G.H.#.#.#.#.$.= = = = I.J.K.K.K.K.L.M.N.. . g O.P.Q.(.5.w.R.              ",
"        { {         . . . . + S.u u 3 # # # # # # # # T.U.#.#.#.#.$.= = = = V.W.# # # # # X.. . . . Y.).(.Z.[.Q.`.b b b         ",
"        { {         . . . . + S. +u 3 # # # # # # # # T.U.#.#.#.#.$.= = = = V.W.# # # # # X.. . . . .+++@+Q.[.#+$+b b b         ",
"        { { a a a a . . . . + S.u %+&+3 # # # # # # # T.U.#.#.#.#.$.= = = = V.W.# # # # # X.. . . . f ).P.Q.*+=+-+b b b     { { ",
"        { { a a a a . . . . + ;+>+%+&+u 3 # # # # # # T.U.#.#.#.#.$.= = = = V.W.# # # # # X.. . . . ! ++,+'+)+!+~+b b b     { { ",
"    { {     { { b b . . . . N.{+ +]+^+u 3 # # # # # # T.U.#.#.#.#.$.= = = = V.W.# # # # # X.. . . . ! 8 >./+[.'+(+          { { ",
"    { {     { { b b . . . . 0._+:+<+[+>+u 3 3 # # # # T.U.#.#.#.#.$.= = = = V.W.# # # # # X.. . . . ! 8 ++}+|+7.1+          { { ",
"    { { { {     { { . . . . j 2+3+4+]+%+ +5+6+7+7+7+7+8+9+0+0+0+0+a+b+b+b+b+c+d+$ $ $ $ e+f+g+. . . ! 8 8 h+_.[.i+  { {     { { ",
"    { { { {     { { . . . . o j+k+l+m+n+o+e+&+&+p+3 3 q+r+s+s+s+s+t+u+u+u+u+v+w+x+x+x+x+% y+z+. . . ! = ~.8 8 }+A+  { {     { { ",
"        { {         . . . . N.B+C+D+E+F+G+H+m + I+I+I+J+K+y y y y L+M+M+M+M+N+!.O+O+O+O+P+Q+R+. . . ! = = S+, _.x.              ",
"        { {         . . . . j T+U+k+V+[+W+H+r e . . .  .X+= = = = Y+. . . . Z+`+= = = = b+ @+ . . . ! = = = = ~..@              ",
"        { {         . . . . j +@@@e+l+#@$@:.:.&.g . .  .X+= = = = Y+. . . . Z+`+= = = = b+ @+ . . . ! = = = = = 9.      { { { { ",
"        { {         . . . . + S.u u @@%@&@].O.*@l e ,. .=@= = = = ) . . . . -@`+= = = = , ' ) . . . ! = = = = = 9.      { { { { ",
"                    . . . . + S.3 3 >+;@>@].B ,@H+l e '@=@= = = = ) . . . . -@`+= = = = , ' ) . . . ! = = = = = ~           { { ",
"                    . . . . + )@# # u 3+!@~@:.{@:.*@e ]@& = = = = ) . . . . -@`+= = = = , ' ) . . . ! = = = = = ~           { { ",
"    { {         { { . . . . + )@# # 3 ^@/@k (@_@:@<@2.[@}@$.$.$.$.o.. . . . -@`+= = = = , ' ) . . n.|@b+b+b+b+b+1@{     { {     ",
"    { {         { { . . . . + )@# # # u  +2@3@4@5@6@7@8@!.9@y y y 0@. . . . -@`+= = = = , ' ) . . a@b@c@c@c@c@c@d@{     { {     ",
"        { { { {     . . . . + )@# # # e+e@f@g@h@i@j@k@l@m@n@o@o@o@I+. . . . -@`+= = = = , ' ) . . p@q@r@r@r@r@r@s@      { {     ",
"        { { { {     . . . . + )@# # # 3 &+t@n+C+u@%@v@w@x@i.@.#.#.,.. . . . -@`+= = = = , ' ) . . + d { b b             { {     ",
"            { {     . . . . + )@# # # 3 u y@z@^+A@%@o+B@C@D@D@#.#.,.. . . . -@`+= = = = , ' ) . . + d a { {     { {             ",
"            { {     . . . . + )@# # # 3 3 &+@@%@A@3+E@F@0+G@D@D@s+. . . . . -@`+= = = = , ' ) . . + d a { {     { {             ",
"{ {         { {     . . . . + )@# # # # 3 &+>+3+n+%@#@H@I@J@K@D@0+. . . . . -@`+= = = = , ' ) . . + d a         b b { {         ",
"{ {         { {     . . . . + )@# # # # # 3 u L@3+3+M@H@N@O@P@Q@D@. . . . . -@`+= = = = , ' ) . . + d a         b b { {         ",
"a a { {             . . . . + )@# # # # # # u u >+>+>+R@S@T@U@V@D@. . . . . Z+`+= = = = , ' ) . . + d   { {     b b { {     { { ",
"a a { {             . . . . + )@# # # # # # # 3 u u &+W@X@X@Y@V@Q@e . . . . Z+`+= = = = , ' ) . . + d   { {     b b { {     { { ",
"b b a a { {     { { . . . . + )@# # # # # # # # # 3 3 8+Z@`@Y@ #.#l +#+#M+M+Z+`+= = = = , ' ) . . + d   { {     { { { {     { { ",
"b b a a { {     { { @#^ ^ ^ ##$## # # # %#&#*#=#=#&#-#;#>#,#'#)#!#~#{#]#^#^#/#(#= = = = , ' ) . . + d   { {     { { { {     { { ",
"{ { b b b b     a a = = = = y _## # # # :#M+. + + h h <#[#}#|#1#y@2#3#3#&+4#5#=@= = = = , ' ) . . + d   { {     { {         { { ",
"{ { b b b b     a a $.$.$.$.u+6## # # # :#+ {.. . + . 7#z@3#8#9#0#a#y@>+u # b#8 = = = = , ' ) . . + d   { {     { {         { { ",
"b b b b { {     { { = = = = y c## # # $ % d#. . . . . e#}#>+f#g#[+h#i#4+&+3 j#, = = = = , ' ) . . + d       { {             { { ",
"b b b b { {     { { = = = = y c## # # $ % d#. . . . . e#k#>+l#%@[+%@n+[+e+u j#, = = = = , ' ) . . + d       { {             { { ",
"{ { b b             = = = = y c## # # $ % d#. . . . . e#k#>+%@%@E+m#n#o#i#@@p#< = = = = , ' ) . . + d   { { { {                 ",
"{ { b b             = = = = y c## # # $ % d#. . . . . e#k#u %+q#@@r#v@[+s#y@p#,+8 = = = , ' ) . . + d   { { { {                 ",
"    b b { {         = = = = y c## # # $ % d#. . . . . e#k#3 5 &+>+C+[+n+u@g#t#>.8 8 = = , ' ) . . + d { { { { { b b b b         ",
"    b b { {         [ [ [ [ u#v## # # $ % w#x#y#y#w#O z#A#B#C#C#>#D#E#F#G#H#I#J#8 8 = = K#L#M#O O N#O#{ { { { { b b b b         ",
"b b     { { a a a a P#` ` ` . + # # # $ % & Q#= = R#= S#T#K K K U#V#W#X#X#Y#Z#`#>.8 8 = u+y [ = =  $.$+$+$+$+$+$@$b b b     { { ",
"b b     { { a a a a . . . . #$} # # # $ % = $$= = Q#b+%$&$*$*$*$K U#=$-$;$X#>$,$_.8 8 = '$)$u+, , !$~${${${${${$]$b b b     { { ",
"b b         { { b b . . . . + @ # # # $ % & * = = = ~.^$/$#.#.#.#.($`@ #P@_$:$<$[$++8 8 = = = = = }$|$. . . . . 1$          { { ",
"b b         { { b b . . . . + @ # # # $ % & * = = = ~.^$/$#.#.#.#.D@T#N@N@Q@2$[.3$;.).8 8 = = = = }$|$. . . . . 1$          { { ",
"{ {     { {     { { . . . . + @ # # # $ % & * = = = ~.^$/$#.#.#.#.#.j.D@0+4$5$J#w.6$w.!.8 = = = = }$|$. . . . . 1$  { {     { { ",
"{ {     { {     { { . . . . + @ # # # $ % & * = = = ~.^$/$#.#.#.#.#.#.#.0+V@7$(.w.w.8$, 8 = = = = }$|$. . . . . 1$  { {     { { ",
"        { {         . . . . + @ # # # $ % & * = = = ~.^$/$#.#.#.#.#.#.#.#.Y@9$0$c.a$8 8 8 = = = = }$|$. . . . . 1$              ",
"        { {         . . . . b$c$p+p+p+; d$(#(#$.$.`+(#e$f$g$g$g$g$/$K K K h$i$j$).>.8 8 =@k$l$m$m$y n${${${${${$o$              ",
"        { {         . . . . . p$q$q$q$q$r$[@[@M+M+#$[@s$t$u$u$u$u$v$w$w$x$y$z$}+8 8 8 = A$B$                { {         { { { { ",
"        { {         . . . .  .C$+ + + + + . ,.D$D$d#d#q.l '@'@'@'@E$F$F$F$G$H$I$8 8 = = J$K$                { {         { { { { "};
