/* XPM */
static char * use_laser_t_xpm[] = {
"64 64 27 1",
" 	c #7B9200",
".	c #A0C0F8",
"+	c #EBF2FE",
"@	c #5088F8",
"#	c #8CB229",
"$	c #BDBA00",
"%	c #CEFB42",
"&	c #F2EAF7",
"*	c #000000",
"=	c #A0C956",
"-	c #0A3807",
";	c #4A8822",
">	c #F2F2F2",
",	c #EDEFEF",
"'	c #303848",
")	c #6C6880",
"!	c #B5B5C4",
"~	c #768298",
"{	c #1A1E24",
"]	c #F8DC70",
"^	c #C99E1D",
"/	c #714D91",
"(	c #4D3463",
"_	c #7A5F2C",
":	c #E67597",
"<	c #474648",
"[	c #4D1D4E",
"   .++++++++++++++++++++++++++++++++++++++++++++++++++++++.@@ ##",
"   .++++++++++++++++++++++++++++++++++++++++++++++++++++++.@  ##",
"  #@@.++++++++++++++++++++++++++++++++++++++++++++++++++.@@ ##  ",
"  ##@.++++++++++++++++++++++++++++++++++++++++++++++++++.@  ##  ",
"    @@.++++++++++++++++++++++++++++++++++++++++++++++++.@@  ##  ",
"    #@@++++++++++++++++++++++++++++++++++++++++++++++++@@   ##  ",
"     @@.++++++++++++++++++++++++++++++++++++++++++++++.@@#      ",
"      @@.++++++++++++++++++++++++++++++++++++++++++++.@@##      ",
"##  . ##@@.++++++++++.+++++++++++++++++++..++++++++.@@  $.##    ",
"##    #... @@.++++++...+++++++.+++++++++....+++++@@%... $$##    ",
"%%##    .....@.++.+..+&.++.++.+..++.+.+.&.+..+.++.....  $$##  ##",
"%%##     ...........++.+..+.++++++.+.&.+.+++.........#  $$#.. ##",
"$$%................++++++++++++++++++.+++++++...............  ##",
"$$%%......... $.@..++++++++++++++++++++++++++...#.........##  ##",
"##$$$$.........##.@@.++++++++++++++++++++++.@@.##.......##    ##",
"##$$$$  %%%%  ........@@.+++++++++++++.@@@.......#  ##  ##    ##",
"  ####  ##%%  **      #*=-..........*;=*##%%          ##      ##",
"  ####  ##%% *>*      #*===-=*##  #**;=*##*%          ##      ##",
"          **$*>* ** ###*;====***** **;=* *,*$$      ####        ",
"          *>**>**>* ###*-=--=;*'''****;=**,*$**     ####        ",
"    ##    #*>)!*>!*#####*=--==*'~~'***;=**!**,* ########$$$$    ",
"    ##   **!!!!)>*######*;;;==-{~~{'**;=*!!),*  ########$$$$    ",
"    ##%%%*>>>!!!)*######*--;;==;{{{~'*;;*)!!)***########$$$$  ##",
"    ##%%%%**)!!!!=*#####*-;;;=-=;{''{*=*,!)!)!,*########$$$$  ##",
"  ##  ##$$$$***==;;*    *=========;{{{=**!!!*** ####          ##",
"  ##  ##$$$$## *;=-=*  *=--**=**===;{;;**;;*##  ####          ##",
"  ####  ##$$##  *===;*#*;-*]^/(,*===;;;=*;-*##        ##  ##  ##",
"  ####  ##$$##   *;==/***;*_]/(,,*;==;=;*;*$##        ##  ##  ##",
"    ##    ##$$    *//==;***_]]/,,:<;=;=*;*##$$        ##        ",
"    ##    ##$$     *==-==**^^]/!,,,,,!*-;*##$$        ##        ",
"    ##      ##      *=;;='**^]//,[[[,!*;*   ##        ##    ####",
"    ##      ##       *;-;'~'*^]/,//[!*;;*   ##        ##    ####",
"              ####  ##*;-'''!)^]/,,!*';*      ####  ##%%      ##",
"              ####  ##***''/'))^]]**'''*      ####  ##%%      ##",
"  ##    ####$$##    %*'{*'/'''!!!)!!''* ####$$##    %%$$##  ##  ",
"  ##    ####$$##    *'{{{*/''~~'''{'~'**####$$##    %%$$##  ##  ",
"    ####  ##$$    ##*'{{{{*{''''''{'''**  ##$$    ##$$      ##  ",
"    ####  ##$$    #*'{{{{{*'{{'''{{{''*'* ##$$    ##$$      ##  ",
"      ##  ##$$  ##%*'{{{{{{*''{{{''~{*{'* ##$$  ##%%##  ##      ",
"      ##  ##$$  ##*'{{{{{{{{*'==;'~';*{'* ##$$  ##%%##  ##      ",
"##    ##    $$$$%%*'{{{{{{{#*;;;=='=;*{{'*  $$$$%%%%    $$##    ",
"##    ##    $$$$%*'{{{{{{{{#*=====;==*{{'*  $$$$%%%%    $$##    ",
"%%##          $$$*'{{{{{{{##*//((((((*{{'*    $$$$  ##  $$##  ##",
"%%##          $$*'{{{{{{{$#*===//////=*{'*    $$$$  ##  $$##  ##",
"$$%%##  ##    $$*'{{{{{{###*;;;===;==;*{{'*   $$##  ##  ####  ##",
"$$%%##  ##    $$*'{{{{{{##*//==;;;;;;(*{{'*   $$##  ##  ####  ##",
"##$$$$  %%%%  #*'{{{{{{ #*===/;=====(;;*{'*%  ####  ##  ##    ##",
"##$$$$  %%%%  #*'{{{{{  #*;-==//***(;;-*{'*%  ####  ##  ##    ##",
"$$$$##  ##%%   *'{{{{ ## *;;===*  *;;;-*{'*%          ##      ##",
"$$$$##  ##%%  *'{{{{{ ## *==--;*  *;-;;*{{'*          ##      ##",
"##$$      $$$$*'{{{{####*;==--*    *--;;*{'*$$      ####        ",
"##$$      $$$$*'{{{ ####*//==;*    *;;((**'*$$      ####        ",
"  $$##    ####*'{{#####*/==/;*     *((;;* **##  ########$$$$    ",
"  $$##    ####*'{######*/=;/*       *{-;* ####  ########$$$$    ",
"$$  ##%%%%##  **#######*'//*  ##    *{'{*%##    ########$$$$  ##",
"$$  ##%%%%##    ######*{'~{*  ##    *{'{*%##    ########$$$$  ##",
"$$    ##$$$$##  ####  *'~'*   ##  ##*{{'*$$$##  ####          ##",
"$$    ##$$$$##  ####  *'~'*   ##  ## *{'*$$$##  ####          ##",
"##  ##  ##$$##       *'~'*##  ##  ###*{{*#$$##        ##  ##  ##",
"##  ##  ##$$##       *'']*##  ##  ###*^{*#$$##        ##  ##  ##",
"    ##    ##$$      *^]^*           #*^_* ##$$        ##        ",
"    ##    ##$$      *]]^*           ##_^^*##$$        ##        ",
"    ##      ##      *]]*    ####    ## ^^*  ##        ##    ####",
"    ##      ##      *]*#    ####    ##      ##        ##    ####"};
