/* XPM */
static char * use_laser_l_xpm[] = {
"64 64 6 1",
" 	c #7B9200",
".	c #8CB229",
"+	c #CEFB42",
"@	c #BDBA00",
"#	c #5088F8",
"$	c #EBF2FE",
"              ....  ..++      ..              ....  ..++      ..",
"              ....  ..++      ..              ....  ..++      ..",
"  ..    ....@@..    ++@@..  ..    @.    ....@@..    ++@@..  ..  ",
"  ..    ....@@..    ++@@..  ..   @..    ....@@..    ++@@..  ..  ",
"    ....  ..@@    ..@@  @   ..  @@  ....  ..@@    ..@@      ..  ",
"#   ....  ..@@    ..@@  @   .. @+@  .... +@@@@    ..@@      ..  ",
"###   ..  ..@$  ..++..  @.    @+$     @@+++.@@  ..++..  ..      ",
"$$##  ..  ..@$$ ..++.. @@.    +$$    @++$+@.@@  ..++..  ..      ",
"$$$$# ..    @@$@++++   ++@.. @$$$.  @+$$$+@@@@@@@+++    @@..    ",
"$$$$###.  $ @@$$++++  @++@..@+$$$.@@+$$$$@@+++++++@@@   @@..    ",
"$$$$$$###     $$@@ @..+$+@.@++$$+@++$$$$+++$$$$$$+@ ..  @@..  ..",
"$$$$$$$###    $$$@ @.@+$+@@++$$$++$$$$$$$$$$$$$$++  ..  @@..  ..",
"$$$$$$$$$# $  $$$. @.+$$$+++$$$$+$$$$$$$$$$$$$++@@  ..  ....  ..",
"$$$$$$$$$$#$$ $$$.@+@+$$$+$$$$$++$$$$$$$$$$$+++@@@@@..  ....  ..",
"$$$$$$$$$$#$$$$$$.@+@$$$$$$$$$$+$$$$$$$$$$$$++++++++@@@ ..    ..",
"$$$$$$$$$$$+$$$$$.@++$$$$$$$$$$$$$$$$$$$$$$$$$$$$$$$++++..    ..",
"$$$$$$$$$$$#$$$$$ +$+$$$$$$$$$$$$$$$$$$$$$$$$$$$$$$$$$$$@@    ..",
"$$$$$$$$$$$#$$$$$ +$$$$$$$$$$$ $$$$$$$$$$$$$$$$$$$$$$$++      ..",
"$$$$$$$$$$$$$$$  $+$$$$$$$$$    .  $$$$$$$$$$$$$$$+++@@@        ",
"$$$$$$$$$$$$$$$$ $+$$$$$$$$$    .. $$$$$$$$$$$$$$$$$$+++@       ",
"$$$$$$$$$$$$$$$$$$$$$$$$$$$    ...  $$$$$$$$$$$$$$$$$$$$++++@   ",
"$$$$$$$$$$$$$$$$#$$$$$$$$$$    . .  $$$$$$$$$$$$$$$$$$$$$$$++@@ ",
"$$$$$$$$$$$$$$$$#$$$$$$$$$    ...   $$$$$$$$$$$$$$$$$$$$++++@@@.",
"$$$$$$$$$$$$$$$$$$$$$$$$$$    ...   $$$$$$$$$$$$$$$$++++@@@@  ..",
"$$$$$$$$$$$$$$$$$$$$$$$$$$    ....  $$$$$$$$$$$$$$$$$$++@@    ..",
"$$$$$$$$$$$$$$$$$#$$$$$$$$      .   $$$$$$$$$$$$$$$$$$$$++@@  ..",
"$$$$$$$$$$$$$$$$$#$$$$$$$$   .  .   $$$$$$$$$$$$$$$$$$$$$++++@..",
"$$$$$$$$$$$$$$$$$#$$$$$$$$#  ....   $$$$$$$$$$$$$$$$$$$$$$$$+++.",
"$$$$$$$$$$$$$$$$$$$$$  $$$  . ....   $$$$$$$$$$$$$$$$$$$$$$$$$+@",
"$$$$$$$$$$$$$$$$$$$$$$$ $$ ...  #    $$$$$$$$$$$$$$$$$$$$$$$$$$+",
"$$$$$$$$$$$$$$$$$$$$$ $$$$... $ #    $$$$$$$$$$$$$$$$$$$$$$++++@",
"$$$$$$$$$$$$$$$$$$$$$$ $$$ .  $ #    $$$$$$$$$$$$$$$$$$$+++@@@@.",
"$$$$$$$$$$$$$$$$$$$$$  $$$$  $$       $$$$$$$$$$$$$$$$$$$$+++@@.",
"$$$$$$$$$$$$$$$$$$$$$$.$         #  #   $$$$$$$$$$$$$$$$$$$$$++@",
"$$$$$$$$$$$$$$$$$$$$$$.$. ... .# #   #   $$$$$$$$$$$$$$$$$$$$$$+",
"$$$$$$$$$$$$$$$$$$$$$           # ...     $$$$$$$$$$$$$$$$$$$$$$",
"$$$$$$$$$$$$$$$$$$$$$$.$       #  ...      $$$$$$$$$$$$$$$$$$$$$",
"$$$$$$$$$$$$$$$$$$$$$ .$        #.         $$$$$$$$$$$$$$$$$$$$+",
"$$$$$$$$$$$$$$$$$$$$$ $.                    $$$$$$$$$$$$$$$$$++@",
"$$$$$$$$$$$$$$$$$$$$$ $ $$       ...        $$$$$$$$$$$$$$+++@@ ",
"$$$$$$$$$$$$$$$$$$$$$$. $$$$$$   ## .        $$$$$$$$$$$+++@@@@ ",
"$$$$$$$$$$$$$$$$$$$$$  $$$$$$$.    ##  .      $$$$$$$$$$$$$++++@",
"$$$$$$$$$$$$$$$$$$$$$$$$$$    ..#..# ..  $     $$$$$$$$$$$$$$$+@",
"$$$$$$$$$$$$$$$$$#$$$$$$$$     .#. #....  $    $$$$$$$$$$$$$+++.",
"$$$$$$$$$$$$$$$$$#$$$$$$$          #. ..       $$$$$$$$$$++++@@.",
"$$$$$$$$$$$$$$$$$$$$$$$$$$    $$$     . .. $    $$$$$$++@@..  ..",
"$$$$$$$$$$$$$$$$$$$$$$$$$$     $$$   $    . $   $$$$++++@@@   ..",
"$$$$$$$$$$$$$$$$#$$$$$$$$$$    $$$$  $$$  # $$  $$$$$$$$++++@@@.",
"$$$$$$$$$$$$$$$$#$$$$$$$$$$    $$$$$ $$$$    $$$$$$$$$$$$$$++@@.",
"$$$$$$$$$$$$$$$$$$$$$$$$$$$$   $$$$$$$$$$  # $$$$$$$$$$$++++@ ..",
"$$$$$$$$$$$$$$$# $$$$$$$$$$$  @ $$$$$$$$$$    $$$$$$$$$$+@      ",
"$$$$$$$$$$$$$$$$ $$$$$$$$$  @@@ $$$$$$$$$$$+  $$$$$$$+++@       ",
"$$$$$$$$$$$$$$$ $$$$$$$$$$$$$$$$$$$$$$$$$$$ +++ $+@@@@..@@@@    ",
"$$$$$$$$$$$$#$$ $.......@@@@        ..    ....  ........@@@@    ",
"$$$$$$$$$$$#$$$$$.......@@@@  ..    ..++++..    ........@@@@  ..",
"$$$$$$$$$$$#$$$$$.......@@@@  ..    ..++++..    ........@@@@  ..",
"$$$$$$$$$$$@$$$$$...          ..  ..  ..@@@@..  ....          ..",
"$$$$$$$$$$#$$$$$$...          ..  ..  ..@@@@..  ....          ..",
"$$$$$$$$$$#$$.$$$     ..  ..  ..  ....  ..@@..        ..  ..  ..",
"$$$$$$$$$#@$..$$$     ..  ..  ..  ....  ..@@..        ..  ..  ..",
"$$$$$$$###..@@$$$     ..            ..    ..@@        ..        ",
"$$$$$$### ..@@$$      ..            ..    ..@@        ..        ",
"$$$$###   $ ..$$      ..    ....    ..      ..        ..    ....",
"$$$$#.      ..$       ..    ....    ..      ..        ..    ...."};
